STARTFONT 2.1
COMMENT
COMMENT Converted from OpenType font "..\ttf\arial.ttf" by "otf2bdf.exe 3.0".
COMMENT
FONT -FreeType-Arial-Medium-R-Normal--22-160-100-100-P-128-ISO10646-1
SIZE 16 100 100
FONTBOUNDINGBOX 21 25 0 -5
STARTPROPERTIES 19
FOUNDRY "FreeType"
FAMILY_NAME "Arial"
WEIGHT_NAME "Medium"
SLANT "R"
SETWIDTH_NAME "Normal"
ADD_STYLE_NAME ""
PIXEL_SIZE 22
POINT_SIZE 160
RESOLUTION_X 100
RESOLUTION_Y 100
SPACING "P"
AVERAGE_WIDTH 128
CHARSET_REGISTRY "ISO10646"
CHARSET_ENCODING "1"
FONT_ASCENT 19
FONT_DESCENT 4
COPYRIGHT "Typeface © The Monotype Corporation plc. Data © The Monotype Corporation plc/Type Solutions Inc. 1990-1992. All Rights Reserved"
_OTF_FONTFILE "..\ttf\arial.ttf"
_OTF_PSNAME "ArialMT"
ENDPROPERTIES
CHARS 64
STARTCHAR 0410
ENCODING 1040
SWIDTH 675 0
DWIDTH 15 0
BBX 15 16 0 0
BITMAP
0380
0780
0780
06C0
0CC0
0C60
0C60
1860
1830
3FF0
3FF8
3018
6018
600C
600C
C00E
ENDCHAR
STARTCHAR 0411
ENCODING 1041
SWIDTH 675 0
DWIDTH 15 0
BBX 12 16 2 0
BITMAP
FFE0
FFE0
C000
C000
C000
C000
C000
FF80
FFE0
C070
C030
C030
C030
C070
FFE0
FF80
ENDCHAR
STARTCHAR 0412
ENCODING 1042
SWIDTH 675 0
DWIDTH 15 0
BBX 12 16 2 0
BITMAP
FF80
FFC0
C0E0
C060
C060
C060
C0C0
FF80
FFE0
C060
C030
C030
C030
C070
FFE0
FF80
ENDCHAR
STARTCHAR 0413
ENCODING 1043
SWIDTH 585 0
DWIDTH 13 0
BBX 11 16 2 0
BITMAP
FFE0
FFE0
C000
C000
C000
C000
C000
C000
C000
C000
C000
C000
C000
C000
C000
C000
ENDCHAR
STARTCHAR 0414
ENCODING 1044
SWIDTH 675 0
DWIDTH 15 0
BBX 14 20 0 -5
BITMAP
1FF8
1FF8
1818
1818
1818
1818
1818
1818
1818
1818
3018
3018
3018
3018
FFFC
FFFC
C00C
C00C
C00C
C00C
ENDCHAR
STARTCHAR 0415
ENCODING 1045
SWIDTH 675 0
DWIDTH 15 0
BBX 12 16 2 0
BITMAP
FFF0
FFF0
C000
C000
C000
C000
C000
FFE0
FFE0
C000
C000
C000
C000
C000
FFF0
FFF0
ENDCHAR
STARTCHAR 0416
ENCODING 1046
SWIDTH 990 0
DWIDTH 22 0
BBX 20 16 1 0
BITMAP
E06070
F060F0
186180
186180
0C6300
0C6300
0E6600
07FC00
07FE00
0E6700
1C6380
186180
3861C0
7060E0
606060
E06070
ENDCHAR
STARTCHAR 0417
ENCODING 1047
SWIDTH 630 0
DWIDTH 14 0
BBX 12 16 1 0
BITMAP
1F80
3FC0
70E0
6060
E060
00E0
07C0
07C0
00E0
0070
0030
E030
6030
7060
3FC0
0F80
ENDCHAR
STARTCHAR 0418
ENCODING 1048
SWIDTH 765 0
DWIDTH 17 0
BBX 13 16 2 0
BITMAP
C038
C038
C078
C0F8
C0D8
C1D8
C398
C318
C618
CE18
DC18
D818
F818
F018
E018
E018
ENDCHAR
STARTCHAR 0419
ENCODING 1049
SWIDTH 765 0
DWIDTH 17 0
BBX 13 20 2 0
BITMAP
18C0
1F80
0F00
0000
C038
C038
C078
C0F8
C0D8
C1D8
C398
C318
C618
CE18
DC18
D818
F818
F018
E018
E018
ENDCHAR
STARTCHAR 041A
ENCODING 1050
SWIDTH 630 0
DWIDTH 14 0
BBX 11 16 2 0
BITMAP
C0E0
C1E0
C300
C300
C600
C600
CC00
F800
FC00
CE00
C700
C300
C380
C1C0
C0C0
C0E0
ENDCHAR
STARTCHAR 041B
ENCODING 1051
SWIDTH 675 0
DWIDTH 15 0
BBX 13 16 0 0
BITMAP
1FF8
1FF8
1818
1818
1818
1818
1818
1818
1818
1818
1818
1818
1818
1818
7018
F018
ENDCHAR
STARTCHAR 041C
ENCODING 1052
SWIDTH 855 0
DWIDTH 19 0
BBX 15 16 2 0
BITMAP
E00E
F00E
F01E
F01E
D816
D836
D836
CC26
CC66
CC66
C646
C6C6
C6C6
C386
C386
C386
ENDCHAR
STARTCHAR 041D
ENCODING 1053
SWIDTH 720 0
DWIDTH 16 0
BBX 12 16 2 0
BITMAP
C030
C030
C030
C030
C030
C030
FFF0
FFF0
C030
C030
C030
C030
C030
C030
C030
C030
ENDCHAR
STARTCHAR 041E
ENCODING 1054
SWIDTH 765 0
DWIDTH 17 0
BBX 15 16 1 0
BITMAP
07C0
1FF0
3838
600C
600C
C006
C006
C006
C006
C006
C006
600C
600C
3038
1FF0
07C0
ENDCHAR
STARTCHAR 041F
ENCODING 1055
SWIDTH 720 0
DWIDTH 16 0
BBX 12 16 2 0
BITMAP
FFF0
FFF0
C030
C030
C030
C030
C030
C030
C030
C030
C030
C030
C030
C030
C030
C030
ENDCHAR
STARTCHAR 0420
ENCODING 1056
SWIDTH 675 0
DWIDTH 15 0
BBX 12 16 2 0
BITMAP
FFC0
FFE0
C070
C030
C030
C030
C070
FFE0
FF80
C000
C000
C000
C000
C000
C000
C000
ENDCHAR
STARTCHAR 0421
ENCODING 1057
SWIDTH 720 0
DWIDTH 16 0
BBX 14 16 1 0
BITMAP
07C0
1FF0
3038
6018
6018
C000
C000
C000
C000
C000
C000
601C
6018
3038
1FF0
0FC0
ENDCHAR
STARTCHAR 0422
ENCODING 1058
SWIDTH 675 0
DWIDTH 15 0
BBX 13 16 1 0
BITMAP
FFF8
FFF8
0600
0600
0600
0600
0600
0600
0600
0600
0600
0600
0600
0600
0600
0600
ENDCHAR
STARTCHAR 0423
ENCODING 1059
SWIDTH 630 0
DWIDTH 14 0
BBX 14 16 0 0
BITMAP
C01C
6018
6018
3030
3030
1860
0C60
0CC0
06C0
0780
0380
0300
0300
0600
3E00
3C00
ENDCHAR
STARTCHAR 0424
ENCODING 1060
SWIDTH 765 0
DWIDTH 17 0
BBX 15 16 1 0
BITMAP
0180
0180
0FF0
3FF8
718C
E18E
C186
C186
C186
C186
618C
719C
1FF8
03C0
0180
0180
ENDCHAR
STARTCHAR 0425
ENCODING 1061
SWIDTH 675 0
DWIDTH 15 0
BBX 14 16 0 0
BITMAP
700C
3018
1830
1C70
0C60
06C0
0780
0380
0380
06C0
0EE0
1C60
1830
3038
701C
E00C
ENDCHAR
STARTCHAR 0426
ENCODING 1062
SWIDTH 765 0
DWIDTH 17 0
BBX 14 20 2 -4
BITMAP
C030
C030
C030
C030
C030
C030
C030
C030
C030
C030
C030
C030
C030
C030
FFFC
FFFC
000C
000C
000C
000C
ENDCHAR
STARTCHAR 0427
ENCODING 1063
SWIDTH 675 0
DWIDTH 15 0
BBX 12 16 1 0
BITMAP
C030
C030
C030
C030
C030
C030
C030
C030
6070
3FF0
0C30
0030
0030
0030
0030
0030
ENDCHAR
STARTCHAR 0428
ENCODING 1064
SWIDTH 900 0
DWIDTH 20 0
BBX 16 16 2 0
BITMAP
C183
C183
C183
C183
C183
C183
C183
C183
C183
C183
C183
C183
C183
C183
FFFF
FFFF
ENDCHAR
STARTCHAR 0429
ENCODING 1065
SWIDTH 945 0
DWIDTH 21 0
BBX 18 20 2 -4
BITMAP
C18180
C18180
C18180
C18180
C18180
C18180
C18180
C18180
C18180
C18180
C18180
C18180
C18180
C18180
FFFFC0
FFFFC0
0000C0
0000C0
0000C0
0000C0
ENDCHAR
STARTCHAR 042A
ENCODING 1066
SWIDTH 810 0
DWIDTH 18 0
BBX 17 16 0 0
BITMAP
FE0000
FE0000
060000
060000
060000
060000
060000
07FC00
07FF00
060380
060180
060180
060180
060380
07FF00
07FC00
ENDCHAR
STARTCHAR 042B
ENCODING 1067
SWIDTH 900 0
DWIDTH 20 0
BBX 16 16 2 0
BITMAP
C003
C003
C003
C003
C003
C003
C003
FF83
FFE3
C073
C033
C033
C033
C073
FFE3
FF83
ENDCHAR
STARTCHAR 042C
ENCODING 1068
SWIDTH 675 0
DWIDTH 15 0
BBX 12 16 2 0
BITMAP
C000
C000
C000
C000
C000
C000
C000
FF80
FFE0
C070
C030
C030
C030
C070
FFE0
FF80
ENDCHAR
STARTCHAR 042D
ENCODING 1069
SWIDTH 720 0
DWIDTH 16 0
BBX 14 16 1 0
BITMAP
0F80
3FE0
7030
6018
0008
000C
03FC
03FC
000C
000C
C00C
E018
6018
7030
3FE0
0FC0
ENDCHAR
STARTCHAR 042E
ENCODING 1070
SWIDTH 990 0
DWIDTH 22 0
BBX 19 16 2 0
BITMAP
C07E00
C1FF00
C38180
C300C0
C700C0
C60060
C60060
FE0060
FE0060
C60060
C60060
C300C0
C300C0
C18180
C0FF00
C07E00
ENDCHAR
STARTCHAR 042F
ENCODING 1071
SWIDTH 765 0
DWIDTH 17 0
BBX 14 16 1 0
BITMAP
1FFC
3FFC
700C
600C
600C
600C
300C
1FFC
07FC
0E0C
1C0C
380C
300C
700C
600C
E00C
ENDCHAR
STARTCHAR 0430
ENCODING 1072
SWIDTH 585 0
DWIDTH 13 0
BBX 10 12 1 0
BITMAP
1F00
7F80
60C0
C0C0
00C0
1FC0
7CC0
C0C0
C0C0
C1C0
7FC0
3CC0
ENDCHAR
STARTCHAR 0431
ENCODING 1073
SWIDTH 585 0
DWIDTH 13 0
BBX 11 16 1 0
BITMAP
1FE0
3F80
6000
C000
CF00
DF80
F0C0
E060
E060
E060
C060
E060
60E0
70C0
3F80
1F00
ENDCHAR
STARTCHAR 0432
ENCODING 1074
SWIDTH 495 0
DWIDTH 11 0
BBX 9 12 1 0
BITMAP
FE00
FF00
C180
C180
C180
FF00
FF00
C380
C180
C180
FF80
FF00
ENDCHAR
STARTCHAR 0433
ENCODING 1075
SWIDTH 360 0
DWIDTH 8 0
BBX 7 12 1 0
BITMAP
FE
FE
C0
C0
C0
C0
C0
C0
C0
C0
C0
C0
ENDCHAR
STARTCHAR 0434
ENCODING 1076
SWIDTH 585 0
DWIDTH 13 0
BBX 12 15 0 -4
BITMAP
1FE0
1FE0
1860
1860
1860
1860
1860
3060
3060
2060
FFF0
FFF0
C030
C030
C030
ENDCHAR
STARTCHAR 0435
ENCODING 1077
SWIDTH 540 0
DWIDTH 12 0
BBX 11 12 1 0
BITMAP
1F00
3F80
61C0
C0C0
C0C0
FFC0
FFE0
C000
C0C0
60C0
3F80
1F00
ENDCHAR
STARTCHAR 0436
ENCODING 1078
SWIDTH 720 0
DWIDTH 16 0
BBX 14 12 1 0
BITMAP
C30C
E31C
3330
3330
1B60
0FC0
1B60
3330
7318
6318
C30C
C30C
ENDCHAR
STARTCHAR 0437
ENCODING 1079
SWIDTH 450 0
DWIDTH 10 0
BBX 8 12 1 0
BITMAP
3C
7E
C3
03
07
1E
1E
03
83
C3
FE
7C
ENDCHAR
STARTCHAR 0438
ENCODING 1080
SWIDTH 495 0
DWIDTH 11 0
BBX 9 12 1 0
BITMAP
C180
C380
C380
C780
CD80
CD80
D980
D980
F180
E180
E180
C180
ENDCHAR
STARTCHAR 0439
ENCODING 1081
SWIDTH 495 0
DWIDTH 11 0
BBX 9 16 1 0
BITMAP
2300
3E00
0C00
0000
C180
C380
C380
C780
CD80
CD80
D980
D980
F180
E180
E180
C180
ENDCHAR
STARTCHAR 043A
ENCODING 1082
SWIDTH 450 0
DWIDTH 10 0
BBX 8 12 1 0
BITMAP
C3
C7
CC
CC
D8
F0
D8
CC
C6
C6
C3
C3
ENDCHAR
STARTCHAR 043B
ENCODING 1083
SWIDTH 585 0
DWIDTH 13 0
BBX 11 12 1 0
BITMAP
3FE0
3FE0
3060
3060
3060
3060
3060
3060
3060
3060
F060
E060
ENDCHAR
STARTCHAR 043C
ENCODING 1084
SWIDTH 720 0
DWIDTH 16 0
BBX 12 12 2 0
BITMAP
E070
F070
F0F0
F0F0
D0B0
D9B0
D9B0
C930
CF30
CF30
C630
C630
ENDCHAR
STARTCHAR 043D
ENCODING 1085
SWIDTH 495 0
DWIDTH 11 0
BBX 9 12 1 0
BITMAP
C180
C180
C180
C180
C180
FF80
FF80
C180
C180
C180
C180
C180
ENDCHAR
STARTCHAR 043E
ENCODING 1086
SWIDTH 585 0
DWIDTH 13 0
BBX 11 12 1 0
BITMAP
1F00
3F80
60C0
C0E0
C060
C060
C060
C060
C0E0
60C0
3F80
1F00
ENDCHAR
STARTCHAR 043F
ENCODING 1087
SWIDTH 495 0
DWIDTH 11 0
BBX 9 12 1 0
BITMAP
FF80
FF80
C180
C180
C180
C180
C180
C180
C180
C180
C180
C180
ENDCHAR
STARTCHAR 0440
ENCODING 1088
SWIDTH 540 0
DWIDTH 12 0
BBX 10 16 1 -4
BITMAP
DE00
FF80
E180
C0C0
C0C0
C0C0
C0C0
C0C0
C0C0
E180
FF00
DE00
C000
C000
C000
C000
ENDCHAR
STARTCHAR 0441
ENCODING 1089
SWIDTH 495 0
DWIDTH 11 0
BBX 10 12 1 0
BITMAP
1F00
7F80
6180
C0C0
C000
C000
C000
C000
C0C0
61C0
7F80
1E00
ENDCHAR
STARTCHAR 0442
ENCODING 1090
SWIDTH 495 0
DWIDTH 11 0
BBX 9 12 1 0
BITMAP
FF80
FF80
0C00
0C00
0C00
0C00
0C00
0C00
0C00
0C00
0C00
0C00
ENDCHAR
STARTCHAR 0443
ENCODING 1091
SWIDTH 495 0
DWIDTH 11 0
BBX 10 16 1 -4
BITMAP
C0C0
C180
C180
6180
6300
6300
3200
3600
1600
1C00
1C00
0C00
1800
1800
F000
E000
ENDCHAR
STARTCHAR 0444
ENCODING 1092
SWIDTH 810 0
DWIDTH 18 0
BBX 16 20 1 -4
BITMAP
0180
0180
0180
0180
3DBC
7FFE
63C6
C183
C183
C183
C183
C183
C183
63C6
7FFE
1DBC
0180
0180
0180
0180
ENDCHAR
STARTCHAR 0445
ENCODING 1093
SWIDTH 495 0
DWIDTH 11 0
BBX 11 12 0 0
BITMAP
60C0
31C0
3180
1B00
0E00
0E00
0E00
1B00
1B80
3180
70C0
E0E0
ENDCHAR
STARTCHAR 0446
ENCODING 1094
SWIDTH 585 0
DWIDTH 13 0
BBX 11 15 1 -4
BITMAP
C180
C180
C180
C180
C180
C180
C180
C180
C180
C180
FFE0
FFE0
0060
0060
0060
ENDCHAR
STARTCHAR 0447
ENCODING 1095
SWIDTH 495 0
DWIDTH 11 0
BBX 9 12 1 0
BITMAP
C180
C180
C180
C180
C180
E180
7F80
3F80
0180
0180
0180
0180
ENDCHAR
STARTCHAR 0448
ENCODING 1096
SWIDTH 810 0
DWIDTH 18 0
BBX 14 12 2 0
BITMAP
C30C
C30C
C30C
C30C
C30C
C30C
C30C
C30C
C30C
C30C
FFFC
FFFC
ENDCHAR
STARTCHAR 0449
ENCODING 1097
SWIDTH 855 0
DWIDTH 19 0
BBX 16 15 2 -4
BITMAP
C306
C306
C306
C306
C306
C306
C306
C306
C306
C306
FFFF
FFFF
0003
0003
0003
ENDCHAR
STARTCHAR 044A
ENCODING 1098
SWIDTH 630 0
DWIDTH 14 0
BBX 12 12 1 0
BITMAP
F800
F800
1800
1800
1800
1FC0
1FE0
1830
1830
1830
1FE0
1FC0
ENDCHAR
STARTCHAR 044B
ENCODING 1099
SWIDTH 765 0
DWIDTH 17 0
BBX 13 12 2 0
BITMAP
C018
C018
C018
C018
C018
FE18
FF18
C198
C198
C198
FF18
FE18
ENDCHAR
STARTCHAR 044C
ENCODING 1100
SWIDTH 495 0
DWIDTH 11 0
BBX 9 12 1 0
BITMAP
C000
C000
C000
C000
C000
FE00
FF00
C180
C180
C180
FF00
FE00
ENDCHAR
STARTCHAR 044D
ENCODING 1101
SWIDTH 495 0
DWIDTH 11 0
BBX 10 12 0 0
BITMAP
1E00
7F80
6180
C0C0
00C0
0FC0
0FC0
00C0
C0C0
6180
7F80
1E00
ENDCHAR
STARTCHAR 044E
ENCODING 1102
SWIDTH 720 0
DWIDTH 16 0
BBX 14 12 1 0
BITMAP
C1E0
C7F8
C618
CC0C
CC0C
FC0C
FC0C
CC0C
CC0C
C618
C7F8
C1E0
ENDCHAR
STARTCHAR 044F
ENCODING 1103
SWIDTH 540 0
DWIDTH 12 0
BBX 9 12 1 0
BITMAP
3F80
7F80
C180
C180
C180
E180
7F80
1F80
3180
6180
E180
C180
ENDCHAR
ENDFONT
