STARTFONT 2.1
COMMENT
COMMENT Converted from OpenType font "..\ttf\arial.ttf" by "otf2bdf.exe 3.0".
COMMENT
FONT -FreeType-Arial-Medium-R-Normal--25-180-100-100-P-144-ISO10646-1
SIZE 18 100 100
FONTBOUNDINGBOX 24 27 0 -5
STARTPROPERTIES 19
FOUNDRY "FreeType"
FAMILY_NAME "Arial"
WEIGHT_NAME "Medium"
SLANT "R"
SETWIDTH_NAME "Normal"
ADD_STYLE_NAME ""
PIXEL_SIZE 25
POINT_SIZE 180
RESOLUTION_X 100
RESOLUTION_Y 100
SPACING "P"
AVERAGE_WIDTH 144
CHARSET_REGISTRY "ISO10646"
CHARSET_ENCODING "1"
FONT_ASCENT 22
FONT_DESCENT 5
COPYRIGHT "Typeface © The Monotype Corporation plc. Data © The Monotype Corporation plc/Type Solutions Inc. 1990-1992. All Rights Reserved"
_OTF_FONTFILE "..\ttf\arial.ttf"
_OTF_PSNAME "ArialMT"
ENDPROPERTIES
CHARS 64
STARTCHAR 0410
ENCODING 1040
SWIDTH 680 0
DWIDTH 17 0
BBX 17 18 0 0
BITMAP
01C000
03C000
03C000
076000
066000
067000
0E3000
0C3000
0C3800
1C1800
181C00
3FFC00
3FFC00
300E00
700600
600700
600700
E00380
ENDCHAR
STARTCHAR 0411
ENCODING 1041
SWIDTH 640 0
DWIDTH 16 0
BBX 13 18 2 0
BITMAP
FFF0
FFF0
C000
C000
C000
C000
C000
C000
FFC0
FFF0
C038
C018
C018
C018
C018
C038
FFF0
FFC0
ENDCHAR
STARTCHAR 0412
ENCODING 1042
SWIDTH 680 0
DWIDTH 17 0
BBX 13 18 2 0
BITMAP
FF80
FFE0
C070
C030
C030
C030
C030
C060
FFC0
FFE0
C038
C018
C018
C018
C018
C038
FFF0
FFC0
ENDCHAR
STARTCHAR 0413
ENCODING 1043
SWIDTH 560 0
DWIDTH 14 0
BBX 12 18 2 0
BITMAP
FFF0
FFF0
C000
C000
C000
C000
C000
C000
C000
C000
C000
C000
C000
C000
C000
C000
C000
C000
ENDCHAR
STARTCHAR 0414
ENCODING 1044
SWIDTH 680 0
DWIDTH 17 0
BBX 16 22 0 -5
BITMAP
0FFC
0FFC
0C0C
0C0C
0C0C
0C0C
0C0C
0C0C
1C0C
1C0C
180C
180C
180C
180C
380C
300C
FFFF
FFFF
C003
C003
C003
C003
ENDCHAR
STARTCHAR 0415
ENCODING 1045
SWIDTH 680 0
DWIDTH 17 0
BBX 14 18 2 0
BITMAP
FFF8
FFF8
C000
C000
C000
C000
C000
C000
FFF8
FFF8
C000
C000
C000
C000
C000
C000
FFFC
FFFC
ENDCHAR
STARTCHAR 0416
ENCODING 1046
SWIDTH 960 0
DWIDTH 24 0
BBX 23 18 1 0
BITMAP
E0301E
F8303E
183070
1C3060
0C30E0
0C30C0
0631C0
073380
03FF00
03FF80
0731C0
0E31C0
1C30E0
1C3070
383070
703038
70301C
E0301C
ENDCHAR
STARTCHAR 0417
ENCODING 1047
SWIDTH 600 0
DWIDTH 15 0
BBX 13 18 1 0
BITMAP
0F80
3FE0
7070
6030
E030
E030
0070
00E0
07C0
07E0
0070
0038
0018
E018
6038
7070
3FE0
0F80
ENDCHAR
STARTCHAR 0418
ENCODING 1048
SWIDTH 720 0
DWIDTH 18 0
BBX 14 18 2 0
BITMAP
C01C
C01C
C03C
C07C
C06C
C0EC
C1CC
C18C
C38C
C70C
C60C
CE0C
DC0C
D80C
F80C
F00C
E00C
E00C
ENDCHAR
STARTCHAR 0419
ENCODING 1049
SWIDTH 720 0
DWIDTH 18 0
BBX 14 22 2 0
BITMAP
1840
18C0
0FC0
0700
C01C
C01C
C03C
C07C
C06C
C0EC
C1CC
C18C
C38C
C70C
C60C
CE0C
DC0C
D80C
F80C
F00C
E00C
E00C
ENDCHAR
STARTCHAR 041A
ENCODING 1050
SWIDTH 600 0
DWIDTH 15 0
BBX 13 18 2 0
BITMAP
C078
C0F8
C1C0
C180
C380
C300
C700
CE00
FC00
FC00
CF00
C700
C380
C1C0
C1C0
C0E0
C070
C070
ENDCHAR
STARTCHAR 041B
ENCODING 1051
SWIDTH 640 0
DWIDTH 16 0
BBX 14 18 0 0
BITMAP
1FFC
1FFC
180C
180C
180C
180C
180C
180C
180C
180C
180C
180C
180C
180C
180C
180C
F80C
F00C
ENDCHAR
STARTCHAR 041C
ENCODING 1052
SWIDTH 840 0
DWIDTH 21 0
BBX 17 18 2 0
BITMAP
F00380
F00780
F00780
D80780
D80D80
D80D80
CC0D80
CC1980
CC1980
C61180
C63180
C63180
C32180
C36180
C36180
C1C180
C1C180
C1C180
ENDCHAR
STARTCHAR 041D
ENCODING 1053
SWIDTH 720 0
DWIDTH 18 0
BBX 14 18 2 0
BITMAP
C00C
C00C
C00C
C00C
C00C
C00C
C00C
C00C
FFFC
FFFC
C00C
C00C
C00C
C00C
C00C
C00C
C00C
C00C
ENDCHAR
STARTCHAR 041E
ENCODING 1054
SWIDTH 760 0
DWIDTH 19 0
BBX 17 18 1 0
BITMAP
03E000
1FF800
3C1E00
300600
600300
600300
E00380
C00180
C00180
C00180
C00180
C00380
600300
600300
300600
380E00
0FFC00
03E000
ENDCHAR
STARTCHAR 041F
ENCODING 1055
SWIDTH 720 0
DWIDTH 18 0
BBX 14 18 2 0
BITMAP
FFFC
FFFC
C00C
C00C
C00C
C00C
C00C
C00C
C00C
C00C
C00C
C00C
C00C
C00C
C00C
C00C
C00C
C00C
ENDCHAR
STARTCHAR 0420
ENCODING 1056
SWIDTH 640 0
DWIDTH 16 0
BBX 13 18 2 0
BITMAP
FFC0
FFF0
C038
C018
C018
C018
C018
C038
C070
FFF0
FF80
C000
C000
C000
C000
C000
C000
C000
ENDCHAR
STARTCHAR 0421
ENCODING 1057
SWIDTH 720 0
DWIDTH 18 0
BBX 16 18 1 0
BITMAP
07E0
1FF8
381C
700E
6006
E000
E000
C000
C000
C000
C000
E000
6007
6006
700E
381C
1FF8
07E0
ENDCHAR
STARTCHAR 0422
ENCODING 1058
SWIDTH 640 0
DWIDTH 16 0
BBX 14 18 1 0
BITMAP
FFFC
FFFC
0300
0300
0300
0300
0300
0300
0300
0300
0300
0300
0300
0300
0300
0300
0300
0300
ENDCHAR
STARTCHAR 0423
ENCODING 1059
SWIDTH 640 0
DWIDTH 16 0
BBX 15 18 0 0
BITMAP
C006
E00E
600C
301C
3018
1838
1830
0C70
0E60
0660
07C0
03C0
0180
0180
0300
0300
3E00
3C00
ENDCHAR
STARTCHAR 0424
ENCODING 1060
SWIDTH 760 0
DWIDTH 19 0
BBX 17 18 1 0
BITMAP
00C000
00C000
00C000
0FF800
1FFE00
78C700
60C300
E0C380
C0C180
C0C180
C0C180
E0C380
60C300
38CF00
1FFE00
03F000
00C000
00C000
ENDCHAR
STARTCHAR 0425
ENCODING 1061
SWIDTH 680 0
DWIDTH 17 0
BBX 16 18 0 0
BITMAP
7007
380E
180C
1C18
0E38
0770
0360
03C0
01C0
03C0
03E0
0770
0E38
1C38
181C
380E
7006
E007
ENDCHAR
STARTCHAR 0426
ENCODING 1062
SWIDTH 760 0
DWIDTH 19 0
BBX 16 23 2 -5
BITMAP
C00C
C00C
C00C
C00C
C00C
C00C
C00C
C00C
C00C
C00C
C00C
C00C
C00C
C00C
C00C
C00C
FFFF
FFFF
0003
0003
0003
0003
0003
ENDCHAR
STARTCHAR 0427
ENCODING 1063
SWIDTH 640 0
DWIDTH 16 0
BBX 13 18 1 0
BITMAP
C018
C018
C018
C018
C018
C018
C018
C018
E018
7038
7FF8
1F98
0018
0018
0018
0018
0018
0018
ENDCHAR
STARTCHAR 0428
ENCODING 1064
SWIDTH 880 0
DWIDTH 22 0
BBX 18 18 2 0
BITMAP
C0C0C0
C0C0C0
C0C0C0
C0C0C0
C0C0C0
C0C0C0
C0C0C0
C0C0C0
C0C0C0
C0C0C0
C0C0C0
C0C0C0
C0C0C0
C0C0C0
C0C0C0
C0C0C0
FFFFC0
FFFFC0
ENDCHAR
STARTCHAR 0429
ENCODING 1065
SWIDTH 960 0
DWIDTH 24 0
BBX 21 23 2 -5
BITMAP
C0C060
C0C060
C0C060
C0C060
C0C060
C0C060
C0C060
C0C060
C0C060
C0C060
C0C060
C0C060
C0C060
C0C060
C0C060
C0C060
FFFFF8
FFFFF8
000018
000018
000018
000018
000018
ENDCHAR
STARTCHAR 042A
ENCODING 1066
SWIDTH 800 0
DWIDTH 20 0
BBX 19 18 0 0
BITMAP
FF0000
FF0000
030000
030000
030000
030000
030000
030000
03FF00
03FFC0
0300E0
030060
030060
030060
030060
0300E0
03FFC0
03FF00
ENDCHAR
STARTCHAR 042B
ENCODING 1067
SWIDTH 880 0
DWIDTH 22 0
BBX 18 18 2 0
BITMAP
C000C0
C000C0
C000C0
C000C0
C000C0
C000C0
C000C0
C000C0
FFC0C0
FFF0C0
C038C0
C018C0
C018C0
C018C0
C018C0
C038C0
FFF0C0
FFC0C0
ENDCHAR
STARTCHAR 042C
ENCODING 1068
SWIDTH 640 0
DWIDTH 16 0
BBX 13 18 2 0
BITMAP
C000
C000
C000
C000
C000
C000
C000
C000
FFC0
FFF0
C038
C018
C018
C018
C018
C038
FFF0
FFC0
ENDCHAR
STARTCHAR 042D
ENCODING 1069
SWIDTH 720 0
DWIDTH 18 0
BBX 15 18 1 0
BITMAP
0FC0
3FF0
7838
600C
E00C
4006
0006
0006
03FE
03FE
0006
0006
C006
E00C
601C
7838
3FF0
0FC0
ENDCHAR
STARTCHAR 042E
ENCODING 1070
SWIDTH 1000 0
DWIDTH 25 0
BBX 22 18 2 0
BITMAP
C01F80
C07FE0
C0E070
C1C038
C18018
C3801C
C3801C
C3000C
FF000C
FF000C
C3000C
C3001C
C3801C
C18018
C1C038
C0E070
C07FE0
C01F80
ENDCHAR
STARTCHAR 042F
ENCODING 1071
SWIDTH 720 0
DWIDTH 18 0
BBX 15 18 1 0
BITMAP
0FFE
3FFE
3006
7006
6006
6006
7006
3806
1FFE
0FFE
0706
0E06
1C06
3806
3806
7006
E006
E006
ENDCHAR
STARTCHAR 0430
ENCODING 1072
SWIDTH 560 0
DWIDTH 14 0
BBX 12 13 1 0
BITMAP
1F80
3FE0
60E0
E060
0060
07E0
3FE0
7060
C060
C060
E0E0
7FE0
3E70
ENDCHAR
STARTCHAR 0431
ENCODING 1073
SWIDTH 560 0
DWIDTH 14 0
BBX 12 18 1 0
BITMAP
0FF0
3FE0
7000
6000
E000
CF80
DFC0
F060
F070
E030
E030
E030
E030
E030
6070
70E0
3FC0
0F80
ENDCHAR
STARTCHAR 0432
ENCODING 1074
SWIDTH 520 0
DWIDTH 13 0
BBX 10 13 2 0
BITMAP
FF00
FF80
C1C0
C0C0
C0C0
C1C0
FF80
FF80
C0C0
C0C0
C0C0
FFC0
FF00
ENDCHAR
STARTCHAR 0433
ENCODING 1075
SWIDTH 400 0
DWIDTH 10 0
BBX 8 13 2 0
BITMAP
FF
FF
C0
C0
C0
C0
C0
C0
C0
C0
C0
C0
C0
ENDCHAR
STARTCHAR 0434
ENCODING 1076
SWIDTH 600 0
DWIDTH 15 0
BBX 14 16 0 -4
BITMAP
1FF0
1FF0
1830
1830
1830
1830
1830
3830
3030
3030
2030
FFFC
FFFC
C00C
C00C
C00C
ENDCHAR
STARTCHAR 0435
ENCODING 1077
SWIDTH 560 0
DWIDTH 14 0
BBX 12 13 1 0
BITMAP
1F80
3FC0
70E0
6060
C030
FFF0
FFF0
C000
C000
E070
70E0
3FC0
1F80
ENDCHAR
STARTCHAR 0436
ENCODING 1078
SWIDTH 720 0
DWIDTH 18 0
BBX 16 13 1 0
BITMAP
E187
F187
318C
198C
1998
0FF0
0FF0
1D98
399C
318C
7186
E187
C183
ENDCHAR
STARTCHAR 0437
ENCODING 1079
SWIDTH 480 0
DWIDTH 12 0
BBX 10 13 1 0
BITMAP
3E00
7F00
E180
4180
0180
1F00
1F80
01C0
00C0
C0C0
E1C0
7F80
3F00
ENDCHAR
STARTCHAR 0438
ENCODING 1080
SWIDTH 600 0
DWIDTH 15 0
BBX 11 13 2 0
BITMAP
C0E0
C0E0
C1E0
C3E0
C360
C660
CE60
CC60
D860
D860
F060
E060
E060
ENDCHAR
STARTCHAR 0439
ENCODING 1081
SWIDTH 600 0
DWIDTH 15 0
BBX 11 18 2 0
BITMAP
3080
3180
1F80
0E00
0000
C0E0
C0E0
C1E0
C3E0
C360
C660
CE60
CC60
D860
D860
F060
E060
E060
ENDCHAR
STARTCHAR 043A
ENCODING 1082
SWIDTH 480 0
DWIDTH 12 0
BBX 9 13 2 0
BITMAP
C380
C780
C600
C600
CC00
F800
F800
CC00
CE00
C600
C300
C380
C180
ENDCHAR
STARTCHAR 043B
ENCODING 1083
SWIDTH 600 0
DWIDTH 15 0
BBX 13 13 0 0
BITMAP
1FF8
1FF8
1818
1818
1818
1818
1818
1818
1818
1818
1818
F818
F018
ENDCHAR
STARTCHAR 043C
ENCODING 1084
SWIDTH 720 0
DWIDTH 18 0
BBX 14 13 2 0
BITMAP
F01C
F03C
F03C
D86C
D86C
D86C
CCCC
CCCC
CCCC
C78C
C78C
C70C
C30C
ENDCHAR
STARTCHAR 043D
ENCODING 1085
SWIDTH 560 0
DWIDTH 14 0
BBX 10 13 2 0
BITMAP
C0C0
C0C0
C0C0
C0C0
C0C0
FFC0
FFC0
C0C0
C0C0
C0C0
C0C0
C0C0
C0C0
ENDCHAR
STARTCHAR 043E
ENCODING 1086
SWIDTH 560 0
DWIDTH 14 0
BBX 12 13 1 0
BITMAP
0F80
3FC0
70E0
E070
E030
C030
C030
C030
E030
E070
70E0
3FC0
1F80
ENDCHAR
STARTCHAR 043F
ENCODING 1087
SWIDTH 560 0
DWIDTH 14 0
BBX 10 13 2 0
BITMAP
FFC0
FFC0
C0C0
C0C0
C0C0
C0C0
C0C0
C0C0
C0C0
C0C0
C0C0
C0C0
C0C0
ENDCHAR
STARTCHAR 0440
ENCODING 1088
SWIDTH 560 0
DWIDTH 14 0
BBX 11 18 2 -5
BITMAP
CF00
DFC0
F0C0
E0E0
E060
C060
C060
C060
C060
E0E0
F0C0
FF80
CF00
C000
C000
C000
C000
C000
ENDCHAR
STARTCHAR 0441
ENCODING 1089
SWIDTH 520 0
DWIDTH 13 0
BBX 11 13 1 0
BITMAP
1F00
3FC0
70E0
E060
E000
C000
C000
C000
C060
E060
70E0
3FC0
1F00
ENDCHAR
STARTCHAR 0442
ENCODING 1090
SWIDTH 520 0
DWIDTH 13 0
BBX 11 13 1 0
BITMAP
FFE0
FFE0
0C00
0C00
0C00
0C00
0C00
0C00
0C00
0C00
0C00
0C00
0C00
ENDCHAR
STARTCHAR 0443
ENCODING 1091
SWIDTH 520 0
DWIDTH 13 0
BBX 11 18 1 -5
BITMAP
C060
C0E0
E0C0
60C0
61C0
3180
3180
3300
1B00
1B00
1E00
0E00
0E00
0C00
0C00
1800
F800
7000
ENDCHAR
STARTCHAR 0444
ENCODING 1092
SWIDTH 800 0
DWIDTH 20 0
BBX 18 23 1 -5
BITMAP
00C000
00C000
00C000
00C000
00C000
1ECE00
3FFF80
61E180
E0E1C0
C0C0C0
C0C0C0
C0C0C0
C0C0C0
C0C0C0
E0E1C0
71E180
3FFF80
1EDE00
00C000
00C000
00C000
00C000
00C000
ENDCHAR
STARTCHAR 0445
ENCODING 1093
SWIDTH 520 0
DWIDTH 13 0
BBX 11 13 1 0
BITMAP
E0E0
61C0
7180
3B00
1F00
1E00
0E00
1E00
3B00
3380
71C0
E0C0
C0E0
ENDCHAR
STARTCHAR 0446
ENCODING 1094
SWIDTH 600 0
DWIDTH 15 0
BBX 12 16 2 -4
BITMAP
C0C0
C0C0
C0C0
C0C0
C0C0
C0C0
C0C0
C0C0
C0C0
C0C0
C0C0
FFF0
FFF0
0030
0030
0030
ENDCHAR
STARTCHAR 0447
ENCODING 1095
SWIDTH 520 0
DWIDTH 13 0
BBX 10 13 1 0
BITMAP
C0C0
C0C0
C0C0
C0C0
C0C0
E0C0
61C0
7FC0
1EC0
00C0
00C0
00C0
00C0
ENDCHAR
STARTCHAR 0448
ENCODING 1096
SWIDTH 800 0
DWIDTH 20 0
BBX 16 13 2 0
BITMAP
C183
C183
C183
C183
C183
C183
C183
C183
C183
C183
C183
FFFF
FFFF
ENDCHAR
STARTCHAR 0449
ENCODING 1097
SWIDTH 840 0
DWIDTH 21 0
BBX 18 16 2 -4
BITMAP
C18180
C18180
C18180
C18180
C18180
C18180
C18180
C18180
C18180
C18180
C18180
FFFFC0
FFFFC0
0000C0
0000C0
0000C0
ENDCHAR
STARTCHAR 044A
ENCODING 1098
SWIDTH 640 0
DWIDTH 16 0
BBX 15 13 0 0
BITMAP
FC00
FC00
0C00
0C00
0C00
0FF0
0FFC
0C0E
0C06
0C06
0C0E
0FFC
0FF8
ENDCHAR
STARTCHAR 044B
ENCODING 1099
SWIDTH 720 0
DWIDTH 18 0
BBX 14 13 2 0
BITMAP
C00C
C00C
C00C
C00C
C00C
FF0C
FFCC
C0EC
C06C
C06C
C0EC
FFCC
FF8C
ENDCHAR
STARTCHAR 044C
ENCODING 1100
SWIDTH 560 0
DWIDTH 14 0
BBX 11 13 2 0
BITMAP
C000
C000
C000
C000
C000
FF00
FFC0
C0E0
C060
C060
C0E0
FFC0
FF80
ENDCHAR
STARTCHAR 044D
ENCODING 1101
SWIDTH 520 0
DWIDTH 13 0
BBX 11 13 1 0
BITMAP
3F00
7F80
E1C0
C0C0
00E0
0FE0
0FE0
0060
C0E0
C0C0
E1C0
7F80
1F00
ENDCHAR
STARTCHAR 044E
ENCODING 1102
SWIDTH 760 0
DWIDTH 19 0
BBX 16 13 2 0
BITMAP
C0F8
C3FC
C386
C707
C603
FE03
FE03
C603
C603
C707
C38E
C1FC
C0F8
ENDCHAR
STARTCHAR 044F
ENCODING 1103
SWIDTH 560 0
DWIDTH 14 0
BBX 11 13 1 0
BITMAP
3FE0
7FE0
E060
C060
C060
E060
7FE0
1FE0
3860
3060
7060
E060
C060
ENDCHAR
ENDFONT
