STARTFONT 2.1
COMMENT
COMMENT Converted from OpenType font "..\ttf\ITC Avant Garde Gothic CE Book.otf" by "otf2bdf.exe 3.0".
COMMENT
FONT -FreeType-AvantGarde CE-Medium-R-Normal--17-120-100-100-P-78-ISO10646-1
SIZE 12 100 100
FONTBOUNDINGBOX 20 20 -1 -4
STARTPROPERTIES 19
FOUNDRY "FreeType"
FAMILY_NAME "AvantGarde CE"
WEIGHT_NAME "Medium"
SLANT "R"
SETWIDTH_NAME "Normal"
ADD_STYLE_NAME ""
PIXEL_SIZE 17
POINT_SIZE 120
RESOLUTION_X 100
RESOLUTION_Y 100
SPACING "P"
AVERAGE_WIDTH 78
CHARSET_REGISTRY "ISO10646"
CHARSET_ENCODING "1"
FONT_ASCENT 12
FONT_DESCENT 3
COPYRIGHT "Copyright (c) 1985, 1987, 1989, 1990, 1991, 1992, 1997 Adobe Systems Incorporated.  All Rights Reserved.ITC Avant Garde Gothic is a registered trademark of International Typeface Corporation."
_OTF_FONTFILE "..\ttf\ITC Avant Garde Gothic CE Book.otf"
_OTF_PSNAME "AvantGardeCE-Book"
ENDPROPERTIES
CHARS 260
STARTCHAR 0020
ENCODING 32
SWIDTH 300 0
DWIDTH 5 0
BBX 0 0 0 0
BITMAP
ENDCHAR
STARTCHAR 0021
ENCODING 33
SWIDTH 300 0
DWIDTH 5 0
BBX 1 12 2 0
BITMAP
80
80
80
80
80
80
80
80
80
00
80
80
ENDCHAR
STARTCHAR 0022
ENCODING 34
SWIDTH 300 0
DWIDTH 5 0
BBX 3 5 1 7
BITMAP
A0
A0
A0
A0
A0
ENDCHAR
STARTCHAR 0023
ENCODING 35
SWIDTH 540 0
DWIDTH 9 0
BBX 8 12 1 0
BITMAP
12
12
32
FF
24
24
24
24
FF
24
44
48
ENDCHAR
STARTCHAR 0024
ENCODING 36
SWIDTH 540 0
DWIDTH 9 0
BBX 7 14 1 0
BITMAP
10
3C
C6
82
80
60
3C
06
02
82
C6
7C
10
10
ENDCHAR
STARTCHAR 0025
ENCODING 37
SWIDTH 780 0
DWIDTH 13 0
BBX 12 12 0 0
BITMAP
7840
CC80
8580
8500
CE00
7A00
05E0
0730
0A10
1210
1330
21E0
ENDCHAR
STARTCHAR 0026
ENCODING 38
SWIDTH 780 0
DWIDTH 13 0
BBX 11 12 1 0
BITMAP
3C00
6600
4200
6200
3C40
78C0
CC80
8700
8300
8280
4640
3820
ENDCHAR
STARTCHAR 0027
ENCODING 39
SWIDTH 180 0
DWIDTH 3 0
BBX 1 5 1 7
BITMAP
80
80
80
80
80
ENDCHAR
STARTCHAR 0028
ENCODING 40
SWIDTH 360 0
DWIDTH 6 0
BBX 5 15 1 -3
BITMAP
08
30
20
40
C0
80
80
80
80
80
C0
40
20
30
08
ENDCHAR
STARTCHAR 0029
ENCODING 41
SWIDTH 360 0
DWIDTH 6 0
BBX 5 16 0 -3
BITMAP
80
C0
20
30
10
18
08
08
08
08
08
10
10
20
40
80
ENDCHAR
STARTCHAR 002A
ENCODING 42
SWIDTH 420 0
DWIDTH 7 0
BBX 5 5 1 7
BITMAP
20
A8
70
50
50
ENDCHAR
STARTCHAR 002B
ENCODING 43
SWIDTH 600 0
DWIDTH 10 0
BBX 9 9 0 0
BITMAP
0800
0800
0800
0800
FF80
0800
0800
0800
0800
ENDCHAR
STARTCHAR 002C
ENCODING 44
SWIDTH 300 0
DWIDTH 5 0
BBX 3 3 0 -1
BITMAP
60
40
C0
ENDCHAR
STARTCHAR 002D
ENCODING 45
SWIDTH 360 0
DWIDTH 6 0
BBX 4 1 0 5
BITMAP
F0
ENDCHAR
STARTCHAR 002E
ENCODING 46
SWIDTH 300 0
DWIDTH 5 0
BBX 1 2 2 1
BITMAP
80
80
ENDCHAR
STARTCHAR 002F
ENCODING 47
SWIDTH 420 0
DWIDTH 7 0
BBX 6 14 1 -2
BITMAP
04
08
08
18
10
10
30
20
20
60
40
40
C0
80
ENDCHAR
STARTCHAR 0030
ENCODING 48
SWIDTH 540 0
DWIDTH 9 0
BBX 7 12 1 0
BITMAP
38
44
82
82
82
82
82
82
82
82
44
38
ENDCHAR
STARTCHAR 0031
ENCODING 49
SWIDTH 540 0
DWIDTH 9 0
BBX 3 12 2 0
BITMAP
E0
20
20
20
20
20
20
20
20
20
20
20
ENDCHAR
STARTCHAR 0032
ENCODING 50
SWIDTH 540 0
DWIDTH 9 0
BBX 7 12 1 0
BITMAP
38
44
82
82
02
06
0C
18
30
60
80
FE
ENDCHAR
STARTCHAR 0033
ENCODING 51
SWIDTH 540 0
DWIDTH 9 0
BBX 7 12 1 0
BITMAP
38
6C
44
04
0C
18
04
02
82
82
C4
38
ENDCHAR
STARTCHAR 0034
ENCODING 52
SWIDTH 540 0
DWIDTH 9 0
BBX 8 12 0 0
BITMAP
06
06
0A
1A
12
32
22
42
C2
FF
02
02
ENDCHAR
STARTCHAR 0035
ENCODING 53
SWIDTH 540 0
DWIDTH 9 0
BBX 8 12 1 0
BITMAP
3E
60
40
40
7C
42
03
01
81
C3
66
3C
ENDCHAR
STARTCHAR 0036
ENCODING 54
SWIDTH 540 0
DWIDTH 9 0
BBX 9 12 0 0
BITMAP
0C00
0800
1000
3000
3E00
6300
C180
8080
8080
C180
6300
3E00
ENDCHAR
STARTCHAR 0037
ENCODING 55
SWIDTH 540 0
DWIDTH 9 0
BBX 7 12 1 0
BITMAP
FE
02
04
04
08
08
18
10
30
20
60
40
ENDCHAR
STARTCHAR 0038
ENCODING 56
SWIDTH 540 0
DWIDTH 9 0
BBX 8 12 1 0
BITMAP
3C
66
42
42
66
3C
42
81
81
81
42
3C
ENDCHAR
STARTCHAR 0039
ENCODING 57
SWIDTH 540 0
DWIDTH 9 0
BBX 9 12 0 0
BITMAP
3E00
6300
C180
8080
8080
C180
6300
3E00
0600
0400
0800
1800
ENDCHAR
STARTCHAR 003A
ENCODING 58
SWIDTH 300 0
DWIDTH 5 0
BBX 1 9 2 0
BITMAP
80
80
00
00
00
00
00
80
80
ENDCHAR
STARTCHAR 003B
ENCODING 59
SWIDTH 300 0
DWIDTH 5 0
BBX 2 10 1 -1
BITMAP
40
40
00
00
00
00
00
40
80
80
ENDCHAR
STARTCHAR 003C
ENCODING 60
SWIDTH 600 0
DWIDTH 10 0
BBX 8 8 1 1
BITMAP
03
0C
70
C0
60
18
06
01
ENDCHAR
STARTCHAR 003D
ENCODING 61
SWIDTH 600 0
DWIDTH 10 0
BBX 8 4 1 2
BITMAP
FF
00
00
FF
ENDCHAR
STARTCHAR 003E
ENCODING 62
SWIDTH 600 0
DWIDTH 10 0
BBX 8 8 1 1
BITMAP
C0
30
0E
03
06
18
60
80
ENDCHAR
STARTCHAR 003F
ENCODING 63
SWIDTH 600 0
DWIDTH 10 0
BBX 7 12 1 0
BITMAP
38
46
82
82
02
04
08
18
10
00
10
10
ENDCHAR
STARTCHAR 0040
ENCODING 64
SWIDTH 840 0
DWIDTH 14 0
BBX 12 12 1 0
BITMAP
0F80
3060
4020
C750
8890
9090
9090
91A0
4EE0
4000
3020
0FC0
ENDCHAR
STARTCHAR 0041
ENCODING 65
SWIDTH 720 0
DWIDTH 12 0
BBX 12 12 0 0
BITMAP
0600
0600
0F00
0900
1980
1080
30C0
3FC0
2040
4020
4020
C030
ENDCHAR
STARTCHAR 0042
ENCODING 66
SWIDTH 600 0
DWIDTH 10 0
BBX 8 12 1 0
BITMAP
FC
86
82
82
86
FC
82
81
81
81
82
FC
ENDCHAR
STARTCHAR 0043
ENCODING 67
SWIDTH 840 0
DWIDTH 14 0
BBX 11 12 1 0
BITMAP
0F80
30C0
6020
C000
8000
8000
8000
8000
C000
6020
30C0
0F80
ENDCHAR
STARTCHAR 0044
ENCODING 68
SWIDTH 720 0
DWIDTH 12 0
BBX 10 12 1 0
BITMAP
FC00
8300
8180
80C0
8040
8040
8040
8040
80C0
8080
8300
FC00
ENDCHAR
STARTCHAR 0045
ENCODING 69
SWIDTH 540 0
DWIDTH 9 0
BBX 7 12 1 0
BITMAP
FE
80
80
80
80
FC
80
80
80
80
80
FE
ENDCHAR
STARTCHAR 0046
ENCODING 70
SWIDTH 480 0
DWIDTH 8 0
BBX 6 12 1 0
BITMAP
FC
80
80
80
80
FC
80
80
80
80
80
80
ENDCHAR
STARTCHAR 0047
ENCODING 71
SWIDTH 900 0
DWIDTH 15 0
BBX 13 12 1 0
BITMAP
0F80
30C0
6020
4010
8000
8000
8000
8FF8
C010
4030
3060
0F80
ENDCHAR
STARTCHAR 0048
ENCODING 72
SWIDTH 660 0
DWIDTH 11 0
BBX 9 12 1 0
BITMAP
8080
8080
8080
8080
8080
FF80
8080
8080
8080
8080
8080
8080
ENDCHAR
STARTCHAR 0049
ENCODING 73
SWIDTH 240 0
DWIDTH 4 0
BBX 1 12 1 0
BITMAP
80
80
80
80
80
80
80
80
80
80
80
80
ENDCHAR
STARTCHAR 004A
ENCODING 74
SWIDTH 480 0
DWIDTH 8 0
BBX 6 12 0 0
BITMAP
04
04
04
04
04
04
04
04
04
84
CC
78
ENDCHAR
STARTCHAR 004B
ENCODING 75
SWIDTH 600 0
DWIDTH 10 0
BBX 8 12 1 0
BITMAP
83
82
84
88
98
B0
F0
D8
8C
84
82
83
ENDCHAR
STARTCHAR 004C
ENCODING 76
SWIDTH 480 0
DWIDTH 8 0
BBX 6 12 1 0
BITMAP
80
80
80
80
80
80
80
80
80
80
80
FC
ENDCHAR
STARTCHAR 004D
ENCODING 77
SWIDTH 900 0
DWIDTH 15 0
BBX 13 12 1 0
BITMAP
C018
E038
A028
A028
9048
9048
98C8
8888
8D88
8508
8708
8208
ENDCHAR
STARTCHAR 004E
ENCODING 78
SWIDTH 720 0
DWIDTH 12 0
BBX 10 12 1 0
BITMAP
C040
E040
A040
9040
9840
8C40
8440
8240
8340
8140
80C0
80C0
ENDCHAR
STARTCHAR 004F
ENCODING 79
SWIDTH 840 0
DWIDTH 14 0
BBX 12 12 1 0
BITMAP
0F00
30C0
6060
C030
8010
8010
8010
8010
C030
6060
30C0
0F00
ENDCHAR
STARTCHAR 0050
ENCODING 80
SWIDTH 600 0
DWIDTH 10 0
BBX 8 12 1 0
BITMAP
FC
82
81
81
81
82
FC
80
80
80
80
80
ENDCHAR
STARTCHAR 0051
ENCODING 81
SWIDTH 900 0
DWIDTH 15 0
BBX 13 12 1 0
BITMAP
0F80
3060
6030
C010
8008
8008
8008
FE08
C390
60F0
3060
0F98
ENDCHAR
STARTCHAR 0052
ENCODING 82
SWIDTH 600 0
DWIDTH 10 0
BBX 8 12 1 0
BITMAP
FC
82
81
81
81
83
9E
98
8C
84
86
83
ENDCHAR
STARTCHAR 0053
ENCODING 83
SWIDTH 480 0
DWIDTH 8 0
BBX 6 12 1 0
BITMAP
78
CC
84
80
C0
70
0C
04
84
84
CC
78
ENDCHAR
STARTCHAR 0054
ENCODING 84
SWIDTH 420 0
DWIDTH 7 0
BBX 7 12 0 0
BITMAP
FE
10
10
10
10
10
10
10
10
10
10
10
ENDCHAR
STARTCHAR 0055
ENCODING 85
SWIDTH 660 0
DWIDTH 11 0
BBX 8 12 1 0
BITMAP
81
81
81
81
81
81
81
81
81
C1
62
3C
ENDCHAR
STARTCHAR 0056
ENCODING 86
SWIDTH 720 0
DWIDTH 12 0
BBX 11 12 0 0
BITMAP
8060
C040
4040
60C0
2080
2180
1100
1100
1A00
0A00
0E00
0400
ENDCHAR
STARTCHAR 0057
ENCODING 87
SWIDTH 960 0
DWIDTH 16 0
BBX 15 12 0 0
BITMAP
8102
8306
C384
4284
4284
4488
2448
2448
2C58
3870
1830
1830
ENDCHAR
STARTCHAR 0058
ENCODING 88
SWIDTH 600 0
DWIDTH 10 0
BBX 10 12 0 0
BITMAP
4080
6180
2100
1200
1E00
0C00
0C00
1E00
3300
2100
6180
C0C0
ENDCHAR
STARTCHAR 0059
ENCODING 89
SWIDTH 600 0
DWIDTH 10 0
BBX 9 12 0 0
BITMAP
8080
4180
4100
2300
2200
1400
1400
0800
0800
0800
0800
0800
ENDCHAR
STARTCHAR 005A
ENCODING 90
SWIDTH 480 0
DWIDTH 8 0
BBX 7 12 0 0
BITMAP
FE
06
04
0C
08
10
10
20
60
40
C0
FE
ENDCHAR
STARTCHAR 005B
ENCODING 91
SWIDTH 360 0
DWIDTH 6 0
BBX 3 15 2 -4
BITMAP
20
60
C0
80
80
80
80
80
80
80
80
80
80
40
20
ENDCHAR
STARTCHAR 005C
ENCODING 92
SWIDTH 600 0
DWIDTH 10 0
BBX 6 14 2 -2
BITMAP
80
40
40
40
20
20
20
10
10
10
08
08
08
04
ENDCHAR
STARTCHAR 005D
ENCODING 93
SWIDTH 360 0
DWIDTH 6 0
BBX 3 15 0 -4
BITMAP
80
C0
60
20
20
20
20
20
20
20
20
20
20
40
C0
ENDCHAR
STARTCHAR 005E
ENCODING 94
SWIDTH 600 0
DWIDTH 10 0
BBX 8 7 1 4
BITMAP
18
18
24
24
42
42
81
ENDCHAR
STARTCHAR 005F
ENCODING 95
SWIDTH 480 0
DWIDTH 8 0
BBX 8 1 0 -2
BITMAP
FF
ENDCHAR
STARTCHAR 0060
ENCODING 96
SWIDTH 360 0
DWIDTH 6 0
BBX 3 2 1 10
BITMAP
80
60
ENDCHAR
STARTCHAR 0061
ENCODING 97
SWIDTH 660 0
DWIDTH 11 0
BBX 9 9 1 0
BITMAP
3E80
6380
C180
8080
8080
8080
C180
6380
3E80
ENDCHAR
STARTCHAR 0062
ENCODING 98
SWIDTH 660 0
DWIDTH 11 0
BBX 9 12 1 0
BITMAP
8000
8000
8000
9E00
E300
C180
8080
8080
8080
C180
E300
9E00
ENDCHAR
STARTCHAR 0063
ENCODING 99
SWIDTH 660 0
DWIDTH 11 0
BBX 9 9 1 0
BITMAP
3E00
6100
C080
8000
8000
8000
C080
6100
3E00
ENDCHAR
STARTCHAR 0064
ENCODING 100
SWIDTH 660 0
DWIDTH 11 0
BBX 9 12 1 0
BITMAP
0080
0080
0080
3E80
6380
C180
8080
8080
8080
C180
6380
3E80
ENDCHAR
STARTCHAR 0065
ENCODING 101
SWIDTH 660 0
DWIDTH 11 0
BBX 9 9 1 0
BITMAP
3E00
6300
C180
8080
FF80
8000
8180
6300
3E00
ENDCHAR
STARTCHAR 0066
ENCODING 102
SWIDTH 300 0
DWIDTH 5 0
BBX 5 12 0 0
BITMAP
18
30
20
F8
20
20
20
20
20
20
20
20
ENDCHAR
STARTCHAR 0067
ENCODING 103
SWIDTH 660 0
DWIDTH 11 0
BBX 9 12 1 -3
BITMAP
3C80
6380
C180
8080
8080
8080
C180
6380
3C80
C180
6100
3E00
ENDCHAR
STARTCHAR 0068
ENCODING 104
SWIDTH 600 0
DWIDTH 10 0
BBX 8 12 1 0
BITMAP
80
80
80
BC
C2
81
81
81
81
81
81
81
ENDCHAR
STARTCHAR 0069
ENCODING 105
SWIDTH 180 0
DWIDTH 3 0
BBX 1 12 1 0
BITMAP
80
80
00
80
80
80
80
80
80
80
80
80
ENDCHAR
STARTCHAR 006A
ENCODING 106
SWIDTH 180 0
DWIDTH 3 0
BBX 3 15 -1 -3
BITMAP
20
20
00
20
20
20
20
20
20
20
20
20
20
60
C0
ENDCHAR
STARTCHAR 006B
ENCODING 107
SWIDTH 480 0
DWIDTH 8 0
BBX 7 12 1 0
BITMAP
80
80
80
84
8C
98
90
A0
F0
D8
8C
86
ENDCHAR
STARTCHAR 006C
ENCODING 108
SWIDTH 180 0
DWIDTH 3 0
BBX 1 12 1 0
BITMAP
80
80
80
80
80
80
80
80
80
80
80
80
ENDCHAR
STARTCHAR 006D
ENCODING 109
SWIDTH 960 0
DWIDTH 16 0
BBX 13 9 1 0
BITMAP
B8E0
C518
8208
8208
8208
8208
8208
8208
8208
ENDCHAR
STARTCHAR 006E
ENCODING 110
SWIDTH 600 0
DWIDTH 10 0
BBX 8 9 1 0
BITMAP
BC
C2
81
81
81
81
81
81
81
ENDCHAR
STARTCHAR 006F
ENCODING 111
SWIDTH 660 0
DWIDTH 11 0
BBX 9 9 1 0
BITMAP
3C00
6300
C180
8080
8080
8080
C180
6300
3C00
ENDCHAR
STARTCHAR 0070
ENCODING 112
SWIDTH 660 0
DWIDTH 11 0
BBX 9 12 1 -3
BITMAP
9E00
E300
C180
8080
8080
8080
C180
E300
9E00
8000
8000
8000
ENDCHAR
STARTCHAR 0071
ENCODING 113
SWIDTH 660 0
DWIDTH 11 0
BBX 9 12 1 -3
BITMAP
3C80
6380
C180
8080
8080
8080
C180
6380
3C80
0080
0080
0080
ENDCHAR
STARTCHAR 0072
ENCODING 114
SWIDTH 300 0
DWIDTH 5 0
BBX 4 9 1 0
BITMAP
B0
C0
80
80
80
80
80
80
80
ENDCHAR
STARTCHAR 0073
ENCODING 115
SWIDTH 360 0
DWIDTH 6 0
BBX 6 9 0 0
BITMAP
78
CC
80
C0
38
04
84
C4
78
ENDCHAR
STARTCHAR 0074
ENCODING 116
SWIDTH 360 0
DWIDTH 6 0
BBX 5 12 0 0
BITMAP
20
20
20
F8
20
20
20
20
20
20
20
20
ENDCHAR
STARTCHAR 0075
ENCODING 117
SWIDTH 600 0
DWIDTH 10 0
BBX 8 9 1 0
BITMAP
81
81
81
81
81
81
81
43
3D
ENDCHAR
STARTCHAR 0076
ENCODING 118
SWIDTH 540 0
DWIDTH 9 0
BBX 9 9 0 0
BITMAP
C080
4100
4100
2300
2200
3600
1400
1C00
0800
ENDCHAR
STARTCHAR 0077
ENCODING 119
SWIDTH 840 0
DWIDTH 14 0
BBX 13 9 0 0
BITMAP
8008
C210
4610
4510
2520
2D20
28E0
18C0
18C0
ENDCHAR
STARTCHAR 0078
ENCODING 120
SWIDTH 480 0
DWIDTH 8 0
BBX 7 9 0 0
BITMAP
C6
44
28
38
10
28
28
44
C6
ENDCHAR
STARTCHAR 0079
ENCODING 121
SWIDTH 540 0
DWIDTH 9 0
BBX 8 12 0 -3
BITMAP
81
42
42
66
24
24
18
18
10
10
10
20
ENDCHAR
STARTCHAR 007A
ENCODING 122
SWIDTH 420 0
DWIDTH 7 0
BBX 7 9 0 0
BITMAP
FE
06
0C
08
10
20
60
C0
FE
ENDCHAR
STARTCHAR 007B
ENCODING 123
SWIDTH 360 0
DWIDTH 6 0
BBX 5 15 1 -3
BITMAP
38
20
20
20
20
20
60
80
60
20
20
20
20
20
38
ENDCHAR
STARTCHAR 007C
ENCODING 124
SWIDTH 660 0
DWIDTH 11 0
BBX 1 16 5 -4
BITMAP
80
80
80
80
80
80
80
80
80
80
80
80
80
80
80
80
ENDCHAR
STARTCHAR 007D
ENCODING 125
SWIDTH 360 0
DWIDTH 6 0
BBX 4 15 0 -3
BITMAP
C0
20
20
20
20
20
20
10
20
20
20
20
20
20
C0
ENDCHAR
STARTCHAR 007E
ENCODING 126
SWIDTH 600 0
DWIDTH 10 0
BBX 7 2 1 3
BITMAP
70
8E
ENDCHAR
STARTCHAR 00A0
ENCODING 160
SWIDTH 300 0
DWIDTH 5 0
BBX 0 0 0 0
BITMAP
ENDCHAR
STARTCHAR 00A3
ENCODING 163
SWIDTH 540 0
DWIDTH 9 0
BBX 9 12 0 0
BITMAP
1E00
2300
4100
4000
4000
FE00
3000
1880
0880
0880
1900
7E00
ENDCHAR
STARTCHAR 00A4
ENCODING 164
SWIDTH 540 0
DWIDTH 9 0
BBX 9 9 0 1
BITMAP
8080
5D00
2200
4100
4100
4100
2200
5D00
8080
ENDCHAR
STARTCHAR 00A6
ENCODING 166
SWIDTH 660 0
DWIDTH 11 0
BBX 1 14 5 -2
BITMAP
80
80
80
80
80
80
00
00
80
80
80
80
80
80
ENDCHAR
STARTCHAR 00A7
ENCODING 167
SWIDTH 600 0
DWIDTH 10 0
BBX 8 14 1 -3
BITMAP
3C
66
40
40
70
8E
83
C1
33
0C
02
82
46
3C
ENDCHAR
STARTCHAR 00A8
ENCODING 168
SWIDTH 360 0
DWIDTH 6 0
BBX 4 2 1 10
BITMAP
90
90
ENDCHAR
STARTCHAR 00A9
ENCODING 169
SWIDTH 720 0
DWIDTH 12 0
BBX 12 12 0 0
BITMAP
0F80
30C0
4720
48B0
9090
9010
9010
9090
48A0
4720
3040
0F80
ENDCHAR
STARTCHAR 00AB
ENCODING 171
SWIDTH 420 0
DWIDTH 7 0
BBX 6 7 1 1
BITMAP
24
48
48
90
48
48
24
ENDCHAR
STARTCHAR 00AC
ENCODING 172
SWIDTH 600 0
DWIDTH 10 0
BBX 8 4 1 2
BITMAP
FF
01
01
01
ENDCHAR
STARTCHAR 00AD
ENCODING 173
SWIDTH 360 0
DWIDTH 6 0
BBX 4 1 0 5
BITMAP
F0
ENDCHAR
STARTCHAR 00AE
ENCODING 174
SWIDTH 720 0
DWIDTH 12 0
BBX 12 12 0 0
BITMAP
0F00
30C0
5F20
50A0
9090
9090
9F10
9090
D0B0
50A0
20C0
1F00
ENDCHAR
STARTCHAR 00B0
ENCODING 176
SWIDTH 420 0
DWIDTH 7 0
BBX 5 5 1 7
BITMAP
70
88
88
88
70
ENDCHAR
STARTCHAR 00B1
ENCODING 177
SWIDTH 600 0
DWIDTH 10 0
BBX 9 8 0 -1
BITMAP
0800
0800
0800
FF80
0800
0800
0000
FF80
ENDCHAR
STARTCHAR 00B4
ENCODING 180
SWIDTH 360 0
DWIDTH 6 0
BBX 4 3 1 10
BITMAP
10
60
80
ENDCHAR
STARTCHAR 00B5
ENCODING 181
SWIDTH 600 0
DWIDTH 10 0
BBX 8 12 1 -3
BITMAP
81
81
81
81
81
81
C1
C3
BD
80
80
80
ENDCHAR
STARTCHAR 00B6
ENCODING 182
SWIDTH 540 0
DWIDTH 9 0
BBX 9 14 0 -2
BITMAP
3F80
7900
F900
F900
7900
7900
0900
0900
0900
0900
0900
0900
0900
0900
ENDCHAR
STARTCHAR 00B7
ENCODING 183
SWIDTH 300 0
DWIDTH 5 0
BBX 1 2 2 4
BITMAP
80
80
ENDCHAR
STARTCHAR 00B8
ENCODING 184
SWIDTH 300 0
DWIDTH 5 0
BBX 3 3 1 -3
BITMAP
E0
A0
E0
ENDCHAR
STARTCHAR 00BB
ENCODING 187
SWIDTH 420 0
DWIDTH 7 0
BBX 6 7 1 1
BITMAP
90
48
48
24
48
48
90
ENDCHAR
STARTCHAR 00C1
ENCODING 193
SWIDTH 720 0
DWIDTH 12 0
BBX 12 15 0 1
BITMAP
0300
0C00
0000
0600
0600
0F00
0900
1980
1080
30C0
3FC0
2040
4020
4020
C030
ENDCHAR
STARTCHAR 00C2
ENCODING 194
SWIDTH 720 0
DWIDTH 12 0
BBX 12 15 0 1
BITMAP
0600
0900
0000
0600
0600
0F00
0900
1980
1080
30C0
3FC0
2040
4020
4020
C030
ENDCHAR
STARTCHAR 00C4
ENCODING 196
SWIDTH 720 0
DWIDTH 12 0
BBX 12 15 0 1
BITMAP
0900
0900
0000
0600
0F00
0900
0900
1980
1080
30C0
3FC0
6060
4020
4020
8010
ENDCHAR
STARTCHAR 00C7
ENCODING 199
SWIDTH 840 0
DWIDTH 14 0
BBX 12 16 1 -4
BITMAP
0F80
3060
6030
C000
8000
8000
8000
8000
C000
6030
30E0
0F80
0400
0700
0100
0700
ENDCHAR
STARTCHAR 00C9
ENCODING 201
SWIDTH 540 0
DWIDTH 9 0
BBX 7 15 1 1
BITMAP
18
60
00
FE
80
80
80
80
FC
80
80
80
80
80
FE
ENDCHAR
STARTCHAR 00CB
ENCODING 203
SWIDTH 540 0
DWIDTH 9 0
BBX 7 15 1 1
BITMAP
28
28
00
FE
80
80
80
80
FE
80
80
80
80
80
FE
ENDCHAR
STARTCHAR 00CD
ENCODING 205
SWIDTH 240 0
DWIDTH 4 0
BBX 3 15 1 1
BITMAP
60
80
00
80
80
80
80
80
80
80
80
80
80
80
80
ENDCHAR
STARTCHAR 00CE
ENCODING 206
SWIDTH 240 0
DWIDTH 4 0
BBX 5 15 -1 1
BITMAP
70
D8
00
20
20
20
20
20
20
20
20
20
20
20
20
ENDCHAR
STARTCHAR 00D3
ENCODING 211
SWIDTH 840 0
DWIDTH 14 0
BBX 12 15 1 1
BITMAP
0100
0600
0000
0F00
30C0
6060
C030
8010
8010
8010
8010
C030
6060
30C0
0F00
ENDCHAR
STARTCHAR 00D4
ENCODING 212
SWIDTH 840 0
DWIDTH 14 0
BBX 12 15 1 1
BITMAP
0600
0900
0000
0F00
30C0
6060
C030
8010
8010
8010
8010
C030
6060
30C0
0F00
ENDCHAR
STARTCHAR 00D5
ENCODING 213
SWIDTH 840 0
DWIDTH 14 0
BBX 12 15 1 0
BITMAP
0C00
0300
0000
0F00
30C0
6060
C030
8010
8010
8010
8010
C030
6060
30C0
0F00
ENDCHAR
STARTCHAR 00D6
ENCODING 214
SWIDTH 840 0
DWIDTH 14 0
BBX 12 15 1 1
BITMAP
0900
0900
0000
0F00
30C0
6060
C030
8010
8010
8010
8010
C030
6060
30C0
0F00
ENDCHAR
STARTCHAR 00D7
ENCODING 215
SWIDTH 600 0
DWIDTH 10 0
BBX 8 8 1 0
BITMAP
81
42
24
18
18
24
42
81
ENDCHAR
STARTCHAR 00DA
ENCODING 218
SWIDTH 660 0
DWIDTH 11 0
BBX 8 15 1 1
BITMAP
0C
18
00
81
81
81
81
81
81
81
81
81
C1
62
3C
ENDCHAR
STARTCHAR 00DC
ENCODING 220
SWIDTH 660 0
DWIDTH 11 0
BBX 8 15 1 1
BITMAP
14
14
00
81
81
81
81
81
81
81
81
81
C1
62
3C
ENDCHAR
STARTCHAR 00DD
ENCODING 221
SWIDTH 600 0
DWIDTH 10 0
BBX 9 15 0 1
BITMAP
0600
1800
0000
8080
4180
4100
2300
2200
1400
1400
0800
0800
0800
0800
0800
ENDCHAR
STARTCHAR 00DF
ENCODING 223
SWIDTH 540 0
DWIDTH 9 0
BBX 8 12 1 0
BITMAP
3C
C6
82
82
86
9C
82
81
81
C1
E2
BC
ENDCHAR
STARTCHAR 00E1
ENCODING 225
SWIDTH 660 0
DWIDTH 11 0
BBX 9 12 1 1
BITMAP
0C00
1000
0000
3E80
6380
C180
8080
8080
8080
C180
6380
3E80
ENDCHAR
STARTCHAR 00E2
ENCODING 226
SWIDTH 660 0
DWIDTH 11 0
BBX 9 13 1 0
BITMAP
0C00
3600
0000
0000
3E80
6380
C180
8080
8080
8080
C180
6380
3E80
ENDCHAR
STARTCHAR 00E4
ENCODING 228
SWIDTH 660 0
DWIDTH 11 0
BBX 9 13 1 0
BITMAP
1400
1400
0000
0000
3E80
6380
C180
8080
8080
8080
C180
6380
3E80
ENDCHAR
STARTCHAR 00E7
ENCODING 231
SWIDTH 660 0
DWIDTH 11 0
BBX 9 13 1 -4
BITMAP
3E00
6300
C180
8000
8000
8000
C080
6300
3E00
1000
1C00
1400
1C00
ENDCHAR
STARTCHAR 00E9
ENCODING 233
SWIDTH 660 0
DWIDTH 11 0
BBX 9 12 1 1
BITMAP
0C00
1000
0000
3E00
6300
C180
8080
FF80
8000
8180
6300
3E00
ENDCHAR
STARTCHAR 00EB
ENCODING 235
SWIDTH 660 0
DWIDTH 11 0
BBX 9 13 1 0
BITMAP
1400
1400
0000
0000
3C00
6300
C100
8080
FF80
8000
C100
6300
3C00
ENDCHAR
STARTCHAR 00ED
ENCODING 237
SWIDTH 180 0
DWIDTH 3 0
BBX 3 13 1 0
BITMAP
20
C0
80
00
80
80
80
80
80
80
80
80
80
ENDCHAR
STARTCHAR 00EE
ENCODING 238
SWIDTH 180 0
DWIDTH 3 0
BBX 5 13 -1 0
BITMAP
70
D8
00
00
20
20
20
20
20
20
20
20
20
ENDCHAR
STARTCHAR 00F3
ENCODING 243
SWIDTH 660 0
DWIDTH 11 0
BBX 9 12 1 1
BITMAP
0C00
1800
0000
3C00
6300
C180
8080
8080
8080
C180
6300
3C00
ENDCHAR
STARTCHAR 00F4
ENCODING 244
SWIDTH 660 0
DWIDTH 11 0
BBX 9 13 1 0
BITMAP
1C00
3600
0000
0000
3C00
6300
C180
8080
8080
8080
C180
6300
3C00
ENDCHAR
STARTCHAR 00F5
ENCODING 245
SWIDTH 660 0
DWIDTH 11 0
BBX 9 12 1 0
BITMAP
3E00
0000
0000
3C00
6300
C180
8080
8080
8080
C180
6300
3C00
ENDCHAR
STARTCHAR 00F6
ENCODING 246
SWIDTH 660 0
DWIDTH 11 0
BBX 9 13 1 0
BITMAP
1400
1400
0000
0000
3E00
6300
C180
8080
8080
8080
C180
6300
3E00
ENDCHAR
STARTCHAR 00F7
ENCODING 247
SWIDTH 600 0
DWIDTH 10 0
BBX 9 9 0 0
BITMAP
0800
0800
0000
0000
FF80
0000
0000
0800
0800
ENDCHAR
STARTCHAR 00FA
ENCODING 250
SWIDTH 600 0
DWIDTH 10 0
BBX 8 13 1 0
BITMAP
04
1C
10
00
81
81
81
81
81
81
81
43
3D
ENDCHAR
STARTCHAR 00FC
ENCODING 252
SWIDTH 600 0
DWIDTH 10 0
BBX 8 13 1 0
BITMAP
24
24
00
00
81
81
81
81
81
81
83
43
3D
ENDCHAR
STARTCHAR 00FD
ENCODING 253
SWIDTH 540 0
DWIDTH 9 0
BBX 8 16 0 -3
BITMAP
04
18
10
00
81
42
42
66
24
24
18
18
10
10
10
20
ENDCHAR
STARTCHAR 0100
ENCODING 256
SWIDTH 720 0
DWIDTH 12 0
BBX 12 15 0 0
BITMAP
1F80
0000
0000
0600
0600
0F00
0900
1980
1080
30C0
3FC0
2040
4020
4020
C030
ENDCHAR
STARTCHAR 0101
ENCODING 257
SWIDTH 660 0
DWIDTH 11 0
BBX 9 12 1 1
BITMAP
3E00
0000
0000
3E80
6380
C180
8080
8080
8080
C180
6380
3E80
ENDCHAR
STARTCHAR 0102
ENCODING 258
SWIDTH 720 0
DWIDTH 12 0
BBX 12 15 0 0
BITMAP
1080
0F00
0000
0600
0600
0F00
0900
1980
1080
30C0
3FC0
2040
4020
4020
C030
ENDCHAR
STARTCHAR 0103
ENCODING 259
SWIDTH 660 0
DWIDTH 11 0
BBX 9 12 1 0
BITMAP
3E00
0000
0000
3E80
6380
C180
8080
8080
8080
C180
6380
3E80
ENDCHAR
STARTCHAR 0104
ENCODING 260
SWIDTH 720 0
DWIDTH 12 0
BBX 12 15 1 -3
BITMAP
0C00
0E00
0A00
1300
1100
3100
2180
7F80
40C0
4040
8060
8020
0040
0040
0070
ENDCHAR
STARTCHAR 0105
ENCODING 261
SWIDTH 660 0
DWIDTH 11 0
BBX 9 12 1 -3
BITMAP
3E80
6380
C180
8080
8080
8080
C180
6380
3E80
0100
0100
0180
ENDCHAR
STARTCHAR 0106
ENCODING 262
SWIDTH 840 0
DWIDTH 14 0
BBX 11 15 1 1
BITMAP
0180
0600
0000
0F80
30C0
6020
C000
8000
8000
8000
8000
C000
6020
30C0
0F80
ENDCHAR
STARTCHAR 0107
ENCODING 263
SWIDTH 660 0
DWIDTH 11 0
BBX 9 12 1 1
BITMAP
0C00
1000
0000
3E00
6100
C080
8000
8000
8000
C080
6100
3E00
ENDCHAR
STARTCHAR 010C
ENCODING 268
SWIDTH 840 0
DWIDTH 14 0
BBX 11 15 1 1
BITMAP
0D80
0600
0000
0F80
30C0
6020
C000
8000
8000
8000
8000
C000
6020
30C0
0F80
ENDCHAR
STARTCHAR 010D
ENCODING 269
SWIDTH 660 0
DWIDTH 11 0
BBX 9 13 1 0
BITMAP
3600
1C00
0000
0000
3E00
6100
C080
8000
8000
8000
C080
6100
3E00
ENDCHAR
STARTCHAR 010E
ENCODING 270
SWIDTH 720 0
DWIDTH 12 0
BBX 10 15 1 1
BITMAP
6400
1800
0000
FC00
8300
8180
80C0
8040
8040
8040
8040
80C0
8080
8300
FC00
ENDCHAR
STARTCHAR 010F
ENCODING 271
SWIDTH 780 0
DWIDTH 13 0
BBX 12 12 1 0
BITMAP
0090
00A0
00A0
3E80
6380
C180
8080
8080
8080
C180
6380
3E80
ENDCHAR
STARTCHAR 0110
ENCODING 272
SWIDTH 780 0
DWIDTH 13 0
BBX 11 12 1 0
BITMAP
7E00
4180
40C0
4060
4020
F820
4020
4020
4040
40C0
4180
7E00
ENDCHAR
STARTCHAR 0111
ENCODING 273
SWIDTH 660 0
DWIDTH 11 0
BBX 10 12 1 0
BITMAP
0080
03C0
0080
3E80
6380
C180
8080
8080
8080
C180
6380
3E80
ENDCHAR
STARTCHAR 0112
ENCODING 274
SWIDTH 540 0
DWIDTH 9 0
BBX 7 15 1 0
BITMAP
FC
00
00
FE
80
80
80
80
FC
80
80
80
80
80
FE
ENDCHAR
STARTCHAR 0113
ENCODING 275
SWIDTH 660 0
DWIDTH 11 0
BBX 9 12 1 1
BITMAP
3E00
0000
0000
3E00
6300
C180
8080
FF80
8000
8180
6300
3E00
ENDCHAR
STARTCHAR 0116
ENCODING 278
SWIDTH 540 0
DWIDTH 9 0
BBX 7 15 1 1
BITMAP
10
10
00
FE
80
80
80
80
FE
80
80
80
80
80
FE
ENDCHAR
STARTCHAR 0117
ENCODING 279
SWIDTH 660 0
DWIDTH 11 0
BBX 9 13 1 0
BITMAP
0800
0800
0000
0000
3C00
6300
C180
8080
FF80
8000
C180
6300
3E00
ENDCHAR
STARTCHAR 0118
ENCODING 280
SWIDTH 540 0
DWIDTH 9 0
BBX 7 15 1 -3
BITMAP
FE
80
80
80
80
FE
80
80
80
80
80
FE
04
08
0E
ENDCHAR
STARTCHAR 0119
ENCODING 281
SWIDTH 660 0
DWIDTH 11 0
BBX 9 12 1 -3
BITMAP
3C00
4200
C100
8180
FF80
8000
8100
4300
3C00
1000
1000
1C00
ENDCHAR
STARTCHAR 011A
ENCODING 282
SWIDTH 540 0
DWIDTH 9 0
BBX 7 15 1 1
BITMAP
48
30
00
FE
80
80
80
80
FC
80
80
80
80
80
FE
ENDCHAR
STARTCHAR 011B
ENCODING 283
SWIDTH 660 0
DWIDTH 11 0
BBX 9 13 1 0
BITMAP
3600
1C00
0000
0000
3E00
6300
C180
8080
FF80
8000
8180
6300
3E00
ENDCHAR
STARTCHAR 0122
ENCODING 290
SWIDTH 900 0
DWIDTH 15 0
BBX 13 16 1 -4
BITMAP
0F80
30C0
6020
4010
8000
8000
8000
8FF8
C010
4030
3060
0F80
0000
0200
0400
0400
ENDCHAR
STARTCHAR 0123
ENCODING 291
SWIDTH 660 0
DWIDTH 11 0
BBX 9 16 1 -3
BITMAP
0400
0800
0800
0000
3C80
6380
C180
8080
8080
8080
C180
6380
3C80
C180
6100
3E00
ENDCHAR
STARTCHAR 012A
ENCODING 298
SWIDTH 240 0
DWIDTH 4 0
BBX 5 15 -1 0
BITMAP
F8
00
00
20
20
20
20
20
20
20
20
20
20
20
20
ENDCHAR
STARTCHAR 012B
ENCODING 299
SWIDTH 180 0
DWIDTH 3 0
BBX 5 12 -1 1
BITMAP
F8
00
00
20
20
20
20
20
20
20
20
20
ENDCHAR
STARTCHAR 012E
ENCODING 302
SWIDTH 240 0
DWIDTH 4 0
BBX 2 15 0 -3
BITMAP
40
40
40
40
40
40
40
40
40
40
40
40
80
80
C0
ENDCHAR
STARTCHAR 012F
ENCODING 303
SWIDTH 180 0
DWIDTH 3 0
BBX 3 15 0 -3
BITMAP
40
40
00
40
40
40
40
40
40
40
40
40
80
80
E0
ENDCHAR
STARTCHAR 0136
ENCODING 310
SWIDTH 600 0
DWIDTH 10 0
BBX 8 15 1 -3
BITMAP
83
82
84
88
98
B0
F0
D8
8C
84
82
83
10
30
20
ENDCHAR
STARTCHAR 0137
ENCODING 311
SWIDTH 480 0
DWIDTH 8 0
BBX 7 15 1 -3
BITMAP
80
80
80
84
8C
98
90
A0
F0
D8
8C
86
30
20
20
ENDCHAR
STARTCHAR 0139
ENCODING 313
SWIDTH 480 0
DWIDTH 8 0
BBX 6 15 1 1
BITMAP
30
60
00
80
80
80
80
80
80
80
80
80
80
80
FC
ENDCHAR
STARTCHAR 013A
ENCODING 314
SWIDTH 180 0
DWIDTH 3 0
BBX 4 15 0 1
BITMAP
30
C0
00
40
40
40
40
40
40
40
40
40
40
40
40
ENDCHAR
STARTCHAR 013B
ENCODING 315
SWIDTH 480 0
DWIDTH 8 0
BBX 6 16 1 -4
BITMAP
80
80
80
80
80
80
80
80
80
80
80
FC
00
20
20
40
ENDCHAR
STARTCHAR 013C
ENCODING 316
SWIDTH 180 0
DWIDTH 3 0
BBX 2 16 0 -4
BITMAP
40
40
40
40
40
40
40
40
40
40
40
40
00
40
40
80
ENDCHAR
STARTCHAR 013D
ENCODING 317
SWIDTH 480 0
DWIDTH 8 0
BBX 6 12 1 0
BITMAP
84
88
88
80
80
80
80
80
80
80
80
FC
ENDCHAR
STARTCHAR 013E
ENCODING 318
SWIDTH 240 0
DWIDTH 4 0
BBX 4 12 1 0
BITMAP
90
A0
A0
80
80
80
80
80
80
80
80
80
ENDCHAR
STARTCHAR 0141
ENCODING 321
SWIDTH 540 0
DWIDTH 9 0
BBX 7 12 1 0
BITMAP
40
40
40
48
50
60
C0
40
40
40
40
7E
ENDCHAR
STARTCHAR 0142
ENCODING 322
SWIDTH 300 0
DWIDTH 5 0
BBX 3 12 1 0
BITMAP
40
40
40
40
60
40
C0
40
40
40
40
40
ENDCHAR
STARTCHAR 0143
ENCODING 323
SWIDTH 720 0
DWIDTH 12 0
BBX 10 15 1 1
BITMAP
0600
0C00
0000
C040
E040
A040
9040
9840
8C40
8440
8240
8340
8140
80C0
80C0
ENDCHAR
STARTCHAR 0144
ENCODING 324
SWIDTH 600 0
DWIDTH 10 0
BBX 8 13 1 0
BITMAP
04
0C
10
00
BC
C2
81
81
81
81
81
81
81
ENDCHAR
STARTCHAR 0145
ENCODING 325
SWIDTH 720 0
DWIDTH 12 0
BBX 10 15 1 -3
BITMAP
C040
E040
A040
9040
9840
8C40
8440
8240
8340
8140
80C0
80C0
0C00
0800
1800
ENDCHAR
STARTCHAR 0146
ENCODING 326
SWIDTH 600 0
DWIDTH 10 0
BBX 8 12 1 -3
BITMAP
BC
C2
81
81
81
81
81
81
81
18
10
10
ENDCHAR
STARTCHAR 0147
ENCODING 327
SWIDTH 720 0
DWIDTH 12 0
BBX 10 15 1 1
BITMAP
1200
0C00
0000
C040
E040
A040
9040
9840
8C40
8440
8240
8340
8140
80C0
80C0
ENDCHAR
STARTCHAR 0148
ENCODING 328
SWIDTH 600 0
DWIDTH 10 0
BBX 8 13 1 0
BITMAP
24
18
00
00
BC
C2
81
81
81
81
81
81
81
ENDCHAR
STARTCHAR 014C
ENCODING 332
SWIDTH 840 0
DWIDTH 14 0
BBX 12 15 1 0
BITMAP
1F80
0000
0000
0F00
30C0
6060
C030
8010
8010
8010
8010
C030
6060
30C0
0F00
ENDCHAR
STARTCHAR 014D
ENCODING 333
SWIDTH 660 0
DWIDTH 11 0
BBX 9 12 1 1
BITMAP
3E00
0000
0000
3C00
6300
C180
8080
8080
8080
C180
6300
3C00
ENDCHAR
STARTCHAR 0150
ENCODING 336
SWIDTH 840 0
DWIDTH 14 0
BBX 12 15 1 1
BITMAP
0240
0480
0100
0F00
30C0
6060
C030
8010
8010
8010
8010
C030
6060
30C0
0F00
ENDCHAR
STARTCHAR 0151
ENCODING 337
SWIDTH 660 0
DWIDTH 11 0
BBX 9 12 1 1
BITMAP
0B00
3600
0000
3C00
6300
C180
8080
8080
8080
C180
6300
3C00
ENDCHAR
STARTCHAR 0154
ENCODING 340
SWIDTH 600 0
DWIDTH 10 0
BBX 8 15 1 1
BITMAP
0C
30
00
FC
82
81
81
81
83
9E
98
8C
84
86
83
ENDCHAR
STARTCHAR 0155
ENCODING 341
SWIDTH 300 0
DWIDTH 5 0
BBX 4 13 1 0
BITMAP
10
30
40
00
B0
C0
80
80
80
80
80
80
80
ENDCHAR
STARTCHAR 0156
ENCODING 342
SWIDTH 600 0
DWIDTH 10 0
BBX 8 15 1 -3
BITMAP
FC
82
81
81
81
83
9E
98
8C
84
86
83
10
10
20
ENDCHAR
STARTCHAR 0157
ENCODING 343
SWIDTH 300 0
DWIDTH 5 0
BBX 5 13 0 -4
BITMAP
58
60
40
40
40
40
40
40
40
00
40
40
80
ENDCHAR
STARTCHAR 0158
ENCODING 344
SWIDTH 600 0
DWIDTH 10 0
BBX 8 15 1 1
BITMAP
6C
18
00
FC
82
81
81
81
83
9E
98
8C
84
86
83
ENDCHAR
STARTCHAR 0159
ENCODING 345
SWIDTH 300 0
DWIDTH 5 0
BBX 5 13 0 0
BITMAP
C8
30
00
00
58
60
40
40
40
40
40
40
40
ENDCHAR
STARTCHAR 015A
ENCODING 346
SWIDTH 480 0
DWIDTH 8 0
BBX 6 15 1 1
BITMAP
18
70
00
78
CC
84
80
C0
70
0C
04
84
84
CC
78
ENDCHAR
STARTCHAR 015B
ENCODING 347
SWIDTH 360 0
DWIDTH 6 0
BBX 6 13 0 0
BITMAP
08
38
60
00
78
CC
80
C0
38
04
84
C4
78
ENDCHAR
STARTCHAR 0160
ENCODING 352
SWIDTH 480 0
DWIDTH 8 0
BBX 6 15 1 1
BITMAP
48
30
00
78
CC
84
80
C0
70
0C
04
84
84
CC
78
ENDCHAR
STARTCHAR 0161
ENCODING 353
SWIDTH 360 0
DWIDTH 6 0
BBX 6 13 0 0
BITMAP
CC
30
00
00
78
CC
80
C0
38
04
84
C4
78
ENDCHAR
STARTCHAR 0162
ENCODING 354
SWIDTH 420 0
DWIDTH 7 0
BBX 7 16 0 -4
BITMAP
FE
10
10
10
10
10
10
10
10
10
10
10
00
10
20
20
ENDCHAR
STARTCHAR 0163
ENCODING 355
SWIDTH 360 0
DWIDTH 6 0
BBX 5 16 0 -4
BITMAP
20
20
20
F8
20
20
20
20
20
20
20
20
00
20
20
40
ENDCHAR
STARTCHAR 0164
ENCODING 356
SWIDTH 420 0
DWIDTH 7 0
BBX 7 15 0 1
BITMAP
6C
30
00
FE
10
10
10
10
10
10
10
10
10
10
10
ENDCHAR
STARTCHAR 0165
ENCODING 357
SWIDTH 360 0
DWIDTH 6 0
BBX 6 13 0 0
BITMAP
04
24
28
20
F8
20
20
20
20
20
20
20
20
ENDCHAR
STARTCHAR 016A
ENCODING 362
SWIDTH 660 0
DWIDTH 11 0
BBX 8 15 1 0
BITMAP
7E
00
00
81
81
81
81
81
81
81
81
81
C1
62
3C
ENDCHAR
STARTCHAR 016B
ENCODING 363
SWIDTH 600 0
DWIDTH 10 0
BBX 8 12 1 1
BITMAP
7E
00
00
81
81
81
81
81
81
81
43
3D
ENDCHAR
STARTCHAR 016E
ENCODING 366
SWIDTH 660 0
DWIDTH 11 0
BBX 8 16 1 0
BITMAP
0C
14
14
08
81
81
81
81
81
81
81
81
81
C1
62
3C
ENDCHAR
STARTCHAR 016F
ENCODING 367
SWIDTH 600 0
DWIDTH 10 0
BBX 8 13 1 0
BITMAP
18
24
18
00
81
81
81
81
81
81
81
43
3D
ENDCHAR
STARTCHAR 0170
ENCODING 368
SWIDTH 660 0
DWIDTH 11 0
BBX 8 15 1 0
BITMAP
09
16
24
81
81
81
81
81
81
81
81
81
C1
62
3C
ENDCHAR
STARTCHAR 0171
ENCODING 369
SWIDTH 600 0
DWIDTH 10 0
BBX 8 13 1 0
BITMAP
09
16
24
00
81
81
81
81
81
81
81
43
3D
ENDCHAR
STARTCHAR 0172
ENCODING 370
SWIDTH 660 0
DWIDTH 11 0
BBX 8 15 1 -3
BITMAP
81
81
81
81
81
81
81
81
81
C1
62
3C
10
10
1C
ENDCHAR
STARTCHAR 0173
ENCODING 371
SWIDTH 600 0
DWIDTH 10 0
BBX 8 12 1 -3
BITMAP
81
81
81
81
81
81
83
47
3D
02
04
03
ENDCHAR
STARTCHAR 0179
ENCODING 377
SWIDTH 480 0
DWIDTH 8 0
BBX 7 15 0 1
BITMAP
18
30
00
FE
06
04
0C
08
10
10
20
60
40
C0
FE
ENDCHAR
STARTCHAR 017A
ENCODING 378
SWIDTH 420 0
DWIDTH 7 0
BBX 7 13 0 0
BITMAP
08
38
20
00
FE
06
0C
18
10
20
60
C0
FE
ENDCHAR
STARTCHAR 017B
ENCODING 379
SWIDTH 480 0
DWIDTH 8 0
BBX 7 15 0 1
BITMAP
10
10
00
FE
02
04
0C
08
10
10
20
60
40
80
FE
ENDCHAR
STARTCHAR 017C
ENCODING 380
SWIDTH 420 0
DWIDTH 7 0
BBX 7 13 0 0
BITMAP
10
10
00
00
FC
04
08
18
10
20
60
C0
FE
ENDCHAR
STARTCHAR 017D
ENCODING 381
SWIDTH 480 0
DWIDTH 8 0
BBX 7 15 0 1
BITMAP
6C
30
00
FE
06
04
0C
08
10
30
20
60
40
C0
FE
ENDCHAR
STARTCHAR 017E
ENCODING 382
SWIDTH 420 0
DWIDTH 7 0
BBX 7 13 0 0
BITMAP
6C
38
00
00
FE
06
0C
18
10
20
60
C0
FE
ENDCHAR
STARTCHAR 0218
ENCODING 536
SWIDTH 480 0
DWIDTH 8 0
BBX 6 16 1 -4
BITMAP
78
CC
84
80
C0
70
0C
04
84
84
CC
78
00
20
20
20
ENDCHAR
STARTCHAR 0219
ENCODING 537
SWIDTH 360 0
DWIDTH 6 0
BBX 6 13 0 -4
BITMAP
78
CC
80
C0
38
04
84
C4
78
00
30
20
40
ENDCHAR
STARTCHAR 021A
ENCODING 538
SWIDTH 420 0
DWIDTH 7 0
BBX 7 16 0 -4
BITMAP
FE
10
10
10
10
10
10
10
10
10
10
10
00
10
20
20
ENDCHAR
STARTCHAR 021B
ENCODING 539
SWIDTH 360 0
DWIDTH 6 0
BBX 5 16 0 -4
BITMAP
20
20
20
F8
20
20
20
20
20
20
20
20
00
20
20
40
ENDCHAR
STARTCHAR 02C7
ENCODING 711
SWIDTH 480 0
DWIDTH 8 0
BBX 4 2 2 10
BITMAP
90
60
ENDCHAR
STARTCHAR 02D8
ENCODING 728
SWIDTH 480 0
DWIDTH 8 0
BBX 4 1 2 11
BITMAP
F0
ENDCHAR
STARTCHAR 02D9
ENCODING 729
SWIDTH 240 0
DWIDTH 4 0
BBX 1 2 1 10
BITMAP
80
80
ENDCHAR
STARTCHAR 02DB
ENCODING 731
SWIDTH 300 0
DWIDTH 5 0
BBX 3 3 1 -2
BITMAP
40
80
E0
ENDCHAR
STARTCHAR 02DD
ENCODING 733
SWIDTH 540 0
DWIDTH 9 0
BBX 6 3 2 9
BITMAP
24
48
90
ENDCHAR
STARTCHAR 0394
ENCODING 916
SWIDTH 600 0
DWIDTH 10 0
BBX 10 11 0 1
BITMAP
0400
0C00
0C00
1600
1200
2300
2300
4180
4180
8080
FFC0
ENDCHAR
STARTCHAR 03BC
ENCODING 956
SWIDTH 600 0
DWIDTH 10 0
BBX 8 12 1 -3
BITMAP
81
81
81
81
81
81
C1
C3
BD
80
80
80
ENDCHAR
STARTCHAR 2013
ENCODING 8211
SWIDTH 480 0
DWIDTH 8 0
BBX 7 1 1 5
BITMAP
FE
ENDCHAR
STARTCHAR 2014
ENCODING 8212
SWIDTH 1020 0
DWIDTH 17 0
BBX 15 1 1 5
BITMAP
FFFE
ENDCHAR
STARTCHAR 2018
ENCODING 8216
SWIDTH 360 0
DWIDTH 6 0
BBX 3 3 1 8
BITMAP
C0
40
60
ENDCHAR
STARTCHAR 2019
ENCODING 8217
SWIDTH 360 0
DWIDTH 6 0
BBX 2 3 2 8
BITMAP
40
80
80
ENDCHAR
STARTCHAR 201A
ENCODING 8218
SWIDTH 360 0
DWIDTH 6 0
BBX 2 3 2 -1
BITMAP
40
80
80
ENDCHAR
STARTCHAR 201C
ENCODING 8220
SWIDTH 480 0
DWIDTH 8 0
BBX 5 3 2 8
BITMAP
90
50
58
ENDCHAR
STARTCHAR 201D
ENCODING 8221
SWIDTH 480 0
DWIDTH 8 0
BBX 5 3 2 8
BITMAP
48
50
90
ENDCHAR
STARTCHAR 201E
ENCODING 8222
SWIDTH 480 0
DWIDTH 8 0
BBX 5 3 1 -1
BITMAP
48
50
90
ENDCHAR
STARTCHAR 2020
ENCODING 8224
SWIDTH 540 0
DWIDTH 9 0
BBX 7 14 1 -2
BITMAP
10
10
10
FE
10
10
10
10
10
10
10
10
10
10
ENDCHAR
STARTCHAR 2021
ENCODING 8225
SWIDTH 540 0
DWIDTH 9 0
BBX 7 14 1 -3
BITMAP
10
10
10
FE
10
10
10
10
10
10
FE
10
10
10
ENDCHAR
STARTCHAR 2022
ENCODING 8226
SWIDTH 600 0
DWIDTH 10 0
BBX 5 5 2 4
BITMAP
70
F8
F8
F8
70
ENDCHAR
STARTCHAR 2026
ENCODING 8230
SWIDTH 1020 0
DWIDTH 17 0
BBX 12 2 2 1
BITMAP
8210
8210
ENDCHAR
STARTCHAR 2030
ENCODING 8240
SWIDTH 1200 0
DWIDTH 20 0
BBX 19 12 0 0
BITMAP
784000
CC8000
858000
850000
CE0000
7A0000
05E3C0
073660
0A1420
121420
133660
21E3C0
ENDCHAR
STARTCHAR 2039
ENCODING 8249
SWIDTH 240 0
DWIDTH 4 0
BBX 3 7 1 1
BITMAP
20
40
40
80
40
40
20
ENDCHAR
STARTCHAR 203A
ENCODING 8250
SWIDTH 240 0
DWIDTH 4 0
BBX 3 7 1 1
BITMAP
80
40
40
20
40
C0
80
ENDCHAR
STARTCHAR 20AC
ENCODING 8364
SWIDTH 540 0
DWIDTH 9 0
BBX 8 12 1 0
BITMAP
1E
31
40
40
FE
40
40
FC
40
60
31
1E
ENDCHAR
STARTCHAR 2122
ENCODING 8482
SWIDTH 1020 0
DWIDTH 17 0
BBX 13 7 0 5
BITMAP
F618
2618
2528
2528
2548
24C8
24C8
ENDCHAR
STARTCHAR 2202
ENCODING 8706
SWIDTH 480 0
DWIDTH 8 0
BBX 7 13 0 -1
BITMAP
78
04
04
02
02
02
3A
46
82
82
86
CC
78
ENDCHAR
STARTCHAR 2206
ENCODING 8710
SWIDTH 600 0
DWIDTH 10 0
BBX 10 11 0 1
BITMAP
0400
0C00
0C00
1600
1200
2300
2300
4180
4180
8080
FFC0
ENDCHAR
STARTCHAR 2211
ENCODING 8721
SWIDTH 600 0
DWIDTH 10 0
BBX 9 12 0 0
BITMAP
FF00
6000
2000
1000
1800
0C00
0400
0800
1000
2000
4080
FF80
ENDCHAR
STARTCHAR 2219
ENCODING 8729
SWIDTH 300 0
DWIDTH 5 0
BBX 1 2 2 4
BITMAP
80
80
ENDCHAR
STARTCHAR 221A
ENCODING 8730
SWIDTH 480 0
DWIDTH 8 0
BBX 7 12 0 -2
BITMAP
02
02
02
04
04
44
A4
24
14
14
08
08
ENDCHAR
STARTCHAR 2260
ENCODING 8800
SWIDTH 540 0
DWIDTH 9 0
BBX 9 8 0 0
BITMAP
0200
0600
FF80
0800
1800
FF80
2000
6000
ENDCHAR
STARTCHAR 2264
ENCODING 8804
SWIDTH 540 0
DWIDTH 9 0
BBX 8 11 0 0
BITMAP
01
07
1C
60
C0
70
1C
07
00
00
FF
ENDCHAR
STARTCHAR 2265
ENCODING 8805
SWIDTH 540 0
DWIDTH 9 0
BBX 8 11 0 0
BITMAP
80
E0
38
06
03
0E
38
E0
00
00
FF
ENDCHAR
STARTCHAR 25CA
ENCODING 9674
SWIDTH 480 0
DWIDTH 8 0
BBX 7 12 0 0
BITMAP
10
38
28
6C
44
C6
82
44
44
28
28
10
ENDCHAR
ENDFONT
