STARTFONT 2.1
COMMENT
COMMENT Converted from OpenType font "..\ttf\ITC Avant Garde Gothic CE Book.otf" by "otf2bdf.exe 3.0".
COMMENT
FONT -FreeType-AvantGarde CE-Medium-R-Normal--14-100-100-100-P-67-ISO10646-1
SIZE 10 100 100
FONTBOUNDINGBOX 17 19 -1 -4
STARTPROPERTIES 19
FOUNDRY "FreeType"
FAMILY_NAME "AvantGarde CE"
WEIGHT_NAME "Medium"
SLANT "R"
SETWIDTH_NAME "Normal"
ADD_STYLE_NAME ""
PIXEL_SIZE 14
POINT_SIZE 100
RESOLUTION_X 100
RESOLUTION_Y 100
SPACING "P"
AVERAGE_WIDTH 67
CHARSET_REGISTRY "ISO10646"
CHARSET_ENCODING "1"
FONT_ASCENT 10
FONT_DESCENT 2
COPYRIGHT "Copyright (c) 1985, 1987, 1989, 1990, 1991, 1992, 1997 Adobe Systems Incorporated.  All Rights Reserved.ITC Avant Garde Gothic is a registered trademark of International Typeface Corporation."
_OTF_FONTFILE "..\ttf\ITC Avant Garde Gothic CE Book.otf"
_OTF_PSNAME "AvantGardeCE-Book"
ENDPROPERTIES
CHARS 260
STARTCHAR 0020
ENCODING 32
SWIDTH 288 0
DWIDTH 4 0
BBX 0 0 0 0
BITMAP
ENDCHAR
STARTCHAR 0021
ENCODING 33
SWIDTH 288 0
DWIDTH 4 0
BBX 1 11 2 0
BITMAP
80
80
80
80
80
80
80
80
00
80
80
ENDCHAR
STARTCHAR 0022
ENCODING 34
SWIDTH 288 0
DWIDTH 4 0
BBX 3 4 1 6
BITMAP
A0
A0
A0
A0
ENDCHAR
STARTCHAR 0023
ENCODING 35
SWIDTH 576 0
DWIDTH 8 0
BBX 7 11 0 0
BITMAP
24
24
24
FE
24
28
28
FE
48
48
48
ENDCHAR
STARTCHAR 0024
ENCODING 36
SWIDTH 576 0
DWIDTH 8 0
BBX 6 13 1 -1
BITMAP
20
70
CC
84
80
40
38
0C
04
84
C8
70
20
ENDCHAR
STARTCHAR 0025
ENCODING 37
SWIDTH 792 0
DWIDTH 11 0
BBX 11 11 0 0
BITMAP
7080
8900
8A00
8A00
7400
0400
0980
0E60
1420
2420
23C0
ENDCHAR
STARTCHAR 0026
ENCODING 38
SWIDTH 792 0
DWIDTH 11 0
BBX 9 11 1 0
BITMAP
3800
4400
4400
6C00
3900
7900
8E00
8600
8700
CD80
7880
ENDCHAR
STARTCHAR 0027
ENCODING 39
SWIDTH 216 0
DWIDTH 3 0
BBX 1 4 1 6
BITMAP
80
80
80
80
ENDCHAR
STARTCHAR 0028
ENCODING 40
SWIDTH 360 0
DWIDTH 5 0
BBX 4 14 1 -3
BITMAP
10
30
60
40
80
80
80
80
80
80
40
60
30
10
ENDCHAR
STARTCHAR 0029
ENCODING 41
SWIDTH 360 0
DWIDTH 5 0
BBX 4 14 0 -2
BITMAP
80
C0
60
20
10
10
10
10
10
10
20
60
C0
80
ENDCHAR
STARTCHAR 002A
ENCODING 42
SWIDTH 432 0
DWIDTH 6 0
BBX 3 4 1 6
BITMAP
40
E0
40
A0
ENDCHAR
STARTCHAR 002B
ENCODING 43
SWIDTH 576 0
DWIDTH 8 0
BBX 7 7 1 1
BITMAP
10
10
10
FE
10
10
10
ENDCHAR
STARTCHAR 002C
ENCODING 44
SWIDTH 288 0
DWIDTH 4 0
BBX 2 3 0 -1
BITMAP
40
40
80
ENDCHAR
STARTCHAR 002D
ENCODING 45
SWIDTH 360 0
DWIDTH 5 0
BBX 4 1 0 4
BITMAP
F0
ENDCHAR
STARTCHAR 002E
ENCODING 46
SWIDTH 288 0
DWIDTH 4 0
BBX 1 2 1 0
BITMAP
80
80
ENDCHAR
STARTCHAR 002F
ENCODING 47
SWIDTH 432 0
DWIDTH 6 0
BBX 5 12 1 -2
BITMAP
08
18
10
10
30
20
20
20
40
40
40
80
ENDCHAR
STARTCHAR 0030
ENCODING 48
SWIDTH 576 0
DWIDTH 8 0
BBX 7 11 0 0
BITMAP
38
44
82
82
82
82
82
82
82
44
38
ENDCHAR
STARTCHAR 0031
ENCODING 49
SWIDTH 576 0
DWIDTH 8 0
BBX 3 11 2 0
BITMAP
E0
20
20
20
20
20
20
20
20
20
20
ENDCHAR
STARTCHAR 0032
ENCODING 50
SWIDTH 576 0
DWIDTH 8 0
BBX 6 11 1 0
BITMAP
78
C8
84
84
04
08
10
20
40
80
FC
ENDCHAR
STARTCHAR 0033
ENCODING 51
SWIDTH 576 0
DWIDTH 8 0
BBX 7 11 0 0
BITMAP
38
44
44
04
18
04
02
82
82
44
38
ENDCHAR
STARTCHAR 0034
ENCODING 52
SWIDTH 576 0
DWIDTH 8 0
BBX 7 11 0 0
BITMAP
04
0C
14
14
24
64
44
84
FE
04
04
ENDCHAR
STARTCHAR 0035
ENCODING 53
SWIDTH 576 0
DWIDTH 8 0
BBX 7 11 0 0
BITMAP
7C
40
40
40
78
44
02
02
82
44
38
ENDCHAR
STARTCHAR 0036
ENCODING 54
SWIDTH 576 0
DWIDTH 8 0
BBX 7 11 0 0
BITMAP
18
10
20
20
78
C4
82
82
82
44
38
ENDCHAR
STARTCHAR 0037
ENCODING 55
SWIDTH 576 0
DWIDTH 8 0
BBX 6 11 1 0
BITMAP
FC
04
08
08
18
10
10
20
20
40
40
ENDCHAR
STARTCHAR 0038
ENCODING 56
SWIDTH 576 0
DWIDTH 8 0
BBX 7 11 1 0
BITMAP
38
44
44
44
64
38
44
82
82
C4
38
ENDCHAR
STARTCHAR 0039
ENCODING 57
SWIDTH 576 0
DWIDTH 8 0
BBX 7 11 0 0
BITMAP
38
44
82
82
82
82
44
3C
08
10
30
ENDCHAR
STARTCHAR 003A
ENCODING 58
SWIDTH 288 0
DWIDTH 4 0
BBX 1 8 1 0
BITMAP
80
80
00
00
00
00
80
80
ENDCHAR
STARTCHAR 003B
ENCODING 59
SWIDTH 288 0
DWIDTH 4 0
BBX 2 9 0 -1
BITMAP
40
40
00
00
00
00
40
80
80
ENDCHAR
STARTCHAR 003C
ENCODING 60
SWIDTH 576 0
DWIDTH 8 0
BBX 7 7 1 1
BITMAP
06
18
E0
C0
30
0C
02
ENDCHAR
STARTCHAR 003D
ENCODING 61
SWIDTH 576 0
DWIDTH 8 0
BBX 7 4 1 2
BITMAP
FE
00
00
FE
ENDCHAR
STARTCHAR 003E
ENCODING 62
SWIDTH 576 0
DWIDTH 8 0
BBX 7 7 1 1
BITMAP
C0
30
0E
06
18
60
80
ENDCHAR
STARTCHAR 003F
ENCODING 63
SWIDTH 576 0
DWIDTH 8 0
BBX 6 11 1 0
BITMAP
38
4C
84
84
04
08
10
10
00
10
10
ENDCHAR
STARTCHAR 0040
ENCODING 64
SWIDTH 864 0
DWIDTH 12 0
BBX 10 11 1 0
BITMAP
1E00
6180
4080
9D40
B240
A240
A240
A680
5B80
6000
1F00
ENDCHAR
STARTCHAR 0041
ENCODING 65
SWIDTH 720 0
DWIDTH 10 0
BBX 10 11 0 0
BITMAP
0C00
0C00
1200
1200
1200
2100
3F00
4080
4080
4080
8040
ENDCHAR
STARTCHAR 0042
ENCODING 66
SWIDTH 576 0
DWIDTH 8 0
BBX 7 11 1 0
BITMAP
F8
8C
84
84
8C
F8
84
82
82
86
F8
ENDCHAR
STARTCHAR 0043
ENCODING 67
SWIDTH 792 0
DWIDTH 11 0
BBX 10 11 1 0
BITMAP
1F00
2180
40C0
8000
8000
8000
8000
8000
4040
2180
1F00
ENDCHAR
STARTCHAR 0044
ENCODING 68
SWIDTH 720 0
DWIDTH 10 0
BBX 9 11 1 0
BITMAP
FC00
8200
8100
8080
8080
8080
8080
8080
8100
8200
FC00
ENDCHAR
STARTCHAR 0045
ENCODING 69
SWIDTH 504 0
DWIDTH 7 0
BBX 6 11 1 0
BITMAP
FC
80
80
80
80
F8
80
80
80
80
FC
ENDCHAR
STARTCHAR 0046
ENCODING 70
SWIDTH 504 0
DWIDTH 7 0
BBX 5 11 1 0
BITMAP
F8
80
80
80
80
F8
80
80
80
80
80
ENDCHAR
STARTCHAR 0047
ENCODING 71
SWIDTH 864 0
DWIDTH 12 0
BBX 11 11 1 0
BITMAP
1F00
2180
4040
8000
8000
8000
8FE0
8060
4040
2080
1F00
ENDCHAR
STARTCHAR 0048
ENCODING 72
SWIDTH 648 0
DWIDTH 9 0
BBX 7 11 1 0
BITMAP
82
82
82
82
82
FE
82
82
82
82
82
ENDCHAR
STARTCHAR 0049
ENCODING 73
SWIDTH 216 0
DWIDTH 3 0
BBX 1 11 1 0
BITMAP
80
80
80
80
80
80
80
80
80
80
80
ENDCHAR
STARTCHAR 004A
ENCODING 74
SWIDTH 504 0
DWIDTH 7 0
BBX 5 11 1 0
BITMAP
08
08
08
08
08
08
08
08
88
88
70
ENDCHAR
STARTCHAR 004B
ENCODING 75
SWIDTH 576 0
DWIDTH 8 0
BBX 7 11 1 0
BITMAP
86
84
88
90
B0
A0
D0
98
88
84
86
ENDCHAR
STARTCHAR 004C
ENCODING 76
SWIDTH 432 0
DWIDTH 6 0
BBX 5 11 1 0
BITMAP
80
80
80
80
80
80
80
80
80
80
F8
ENDCHAR
STARTCHAR 004D
ENCODING 77
SWIDTH 936 0
DWIDTH 13 0
BBX 11 11 1 0
BITMAP
C060
C060
A0A0
A0A0
A0A0
9120
9120
8A20
8A20
8E20
8420
ENDCHAR
STARTCHAR 004E
ENCODING 78
SWIDTH 720 0
DWIDTH 10 0
BBX 8 11 1 0
BITMAP
C1
C1
A1
B1
91
89
89
85
87
83
81
ENDCHAR
STARTCHAR 004F
ENCODING 79
SWIDTH 864 0
DWIDTH 12 0
BBX 10 11 1 0
BITMAP
1E00
2100
4080
8040
8040
8040
8040
8040
4080
2100
1E00
ENDCHAR
STARTCHAR 0050
ENCODING 80
SWIDTH 576 0
DWIDTH 8 0
BBX 7 11 1 0
BITMAP
F8
84
82
82
82
84
F8
80
80
80
80
ENDCHAR
STARTCHAR 0051
ENCODING 81
SWIDTH 864 0
DWIDTH 12 0
BBX 11 11 1 0
BITMAP
1F00
3180
4040
C040
8020
8020
8020
FC20
4340
2080
1F60
ENDCHAR
STARTCHAR 0052
ENCODING 82
SWIDTH 576 0
DWIDTH 8 0
BBX 7 11 1 0
BITMAP
F8
84
82
82
82
84
BC
90
88
84
84
ENDCHAR
STARTCHAR 0053
ENCODING 83
SWIDTH 504 0
DWIDTH 7 0
BBX 5 11 1 0
BITMAP
70
88
88
80
C0
30
08
08
88
88
70
ENDCHAR
STARTCHAR 0054
ENCODING 84
SWIDTH 432 0
DWIDTH 6 0
BBX 5 11 0 0
BITMAP
F8
20
20
20
20
20
20
20
20
20
20
ENDCHAR
STARTCHAR 0055
ENCODING 85
SWIDTH 648 0
DWIDTH 9 0
BBX 7 11 1 0
BITMAP
82
82
82
82
82
82
82
82
82
44
38
ENDCHAR
STARTCHAR 0056
ENCODING 86
SWIDTH 720 0
DWIDTH 10 0
BBX 9 11 1 0
BITMAP
8080
8100
C100
4100
4200
2200
2400
2400
1400
1800
0800
ENDCHAR
STARTCHAR 0057
ENCODING 87
SWIDTH 936 0
DWIDTH 13 0
BBX 13 11 0 0
BITMAP
8208
8208
4510
4510
4510
4510
28A0
28A0
28A0
28C0
1040
ENDCHAR
STARTCHAR 0058
ENCODING 88
SWIDTH 576 0
DWIDTH 8 0
BBX 8 11 0 0
BITMAP
C2
42
24
24
18
18
18
24
24
42
81
ENDCHAR
STARTCHAR 0059
ENCODING 89
SWIDTH 576 0
DWIDTH 8 0
BBX 7 11 1 0
BITMAP
82
82
44
44
28
28
10
10
10
10
10
ENDCHAR
STARTCHAR 005A
ENCODING 90
SWIDTH 504 0
DWIDTH 7 0
BBX 6 11 0 0
BITMAP
FC
04
08
08
10
30
20
40
40
80
FC
ENDCHAR
STARTCHAR 005B
ENCODING 91
SWIDTH 360 0
DWIDTH 5 0
BBX 3 14 2 -3
BITMAP
20
40
80
80
80
80
80
80
80
80
80
80
60
20
ENDCHAR
STARTCHAR 005C
ENCODING 92
SWIDTH 576 0
DWIDTH 8 0
BBX 5 12 2 -2
BITMAP
80
C0
40
40
60
20
20
20
10
10
10
08
ENDCHAR
STARTCHAR 005D
ENCODING 93
SWIDTH 360 0
DWIDTH 5 0
BBX 3 14 0 -3
BITMAP
80
40
20
20
20
20
20
20
20
20
20
20
C0
80
ENDCHAR
STARTCHAR 005E
ENCODING 94
SWIDTH 576 0
DWIDTH 8 0
BBX 7 6 1 4
BITMAP
10
28
28
44
44
82
ENDCHAR
STARTCHAR 005F
ENCODING 95
SWIDTH 504 0
DWIDTH 7 0
BBX 7 1 0 -2
BITMAP
FE
ENDCHAR
STARTCHAR 0060
ENCODING 96
SWIDTH 360 0
DWIDTH 5 0
BBX 3 2 1 10
BITMAP
C0
20
ENDCHAR
STARTCHAR 0061
ENCODING 97
SWIDTH 648 0
DWIDTH 9 0
BBX 8 8 1 0
BITMAP
3D
43
81
81
81
81
43
3D
ENDCHAR
STARTCHAR 0062
ENCODING 98
SWIDTH 648 0
DWIDTH 9 0
BBX 8 11 1 0
BITMAP
80
80
80
BC
C2
81
81
81
81
C2
BC
ENDCHAR
STARTCHAR 0063
ENCODING 99
SWIDTH 648 0
DWIDTH 9 0
BBX 8 8 1 0
BITMAP
3C
42
81
80
80
80
42
3C
ENDCHAR
STARTCHAR 0064
ENCODING 100
SWIDTH 720 0
DWIDTH 10 0
BBX 8 11 1 0
BITMAP
01
01
01
3D
43
81
81
81
81
43
3D
ENDCHAR
STARTCHAR 0065
ENCODING 101
SWIDTH 648 0
DWIDTH 9 0
BBX 8 8 1 0
BITMAP
3C
42
81
FF
80
82
42
3C
ENDCHAR
STARTCHAR 0066
ENCODING 102
SWIDTH 288 0
DWIDTH 4 0
BBX 4 11 0 0
BITMAP
30
40
40
F0
40
40
40
40
40
40
40
ENDCHAR
STARTCHAR 0067
ENCODING 103
SWIDTH 648 0
DWIDTH 9 0
BBX 7 11 1 -3
BITMAP
3A
46
82
82
82
82
46
3A
82
44
38
ENDCHAR
STARTCHAR 0068
ENCODING 104
SWIDTH 576 0
DWIDTH 8 0
BBX 7 11 1 0
BITMAP
80
80
80
B8
C4
82
82
82
82
82
82
ENDCHAR
STARTCHAR 0069
ENCODING 105
SWIDTH 216 0
DWIDTH 3 0
BBX 1 11 1 0
BITMAP
80
80
00
80
80
80
80
80
80
80
80
ENDCHAR
STARTCHAR 006A
ENCODING 106
SWIDTH 216 0
DWIDTH 3 0
BBX 3 14 -1 -3
BITMAP
20
20
00
20
20
20
20
20
20
20
20
20
20
C0
ENDCHAR
STARTCHAR 006B
ENCODING 107
SWIDTH 504 0
DWIDTH 7 0
BBX 6 11 1 0
BITMAP
80
80
80
88
98
90
A0
E0
D0
88
8C
ENDCHAR
STARTCHAR 006C
ENCODING 108
SWIDTH 216 0
DWIDTH 3 0
BBX 1 11 1 0
BITMAP
80
80
80
80
80
80
80
80
80
80
80
ENDCHAR
STARTCHAR 006D
ENCODING 109
SWIDTH 936 0
DWIDTH 13 0
BBX 11 8 1 0
BITMAP
BBC0
CA60
8420
8420
8420
8420
8420
8420
ENDCHAR
STARTCHAR 006E
ENCODING 110
SWIDTH 576 0
DWIDTH 8 0
BBX 7 8 1 0
BITMAP
B8
C4
82
82
82
82
82
82
ENDCHAR
STARTCHAR 006F
ENCODING 111
SWIDTH 648 0
DWIDTH 9 0
BBX 8 8 1 0
BITMAP
3C
42
81
81
81
81
42
3C
ENDCHAR
STARTCHAR 0070
ENCODING 112
SWIDTH 648 0
DWIDTH 9 0
BBX 8 11 1 -3
BITMAP
BC
C2
81
81
81
81
C2
BC
80
80
80
ENDCHAR
STARTCHAR 0071
ENCODING 113
SWIDTH 648 0
DWIDTH 9 0
BBX 8 11 1 -3
BITMAP
3D
43
81
81
81
81
43
3D
01
01
01
ENDCHAR
STARTCHAR 0072
ENCODING 114
SWIDTH 288 0
DWIDTH 4 0
BBX 3 8 1 0
BITMAP
A0
C0
80
80
80
80
80
80
ENDCHAR
STARTCHAR 0073
ENCODING 115
SWIDTH 360 0
DWIDTH 5 0
BBX 5 8 0 0
BITMAP
70
88
80
60
18
08
88
70
ENDCHAR
STARTCHAR 0074
ENCODING 116
SWIDTH 360 0
DWIDTH 5 0
BBX 5 11 0 0
BITMAP
20
20
20
F8
20
20
20
20
20
20
20
ENDCHAR
STARTCHAR 0075
ENCODING 117
SWIDTH 576 0
DWIDTH 8 0
BBX 7 8 1 0
BITMAP
82
82
82
82
82
82
C6
7A
ENDCHAR
STARTCHAR 0076
ENCODING 118
SWIDTH 576 0
DWIDTH 8 0
BBX 7 8 0 0
BITMAP
82
84
44
44
48
28
30
10
ENDCHAR
STARTCHAR 0077
ENCODING 119
SWIDTH 864 0
DWIDTH 12 0
BBX 11 8 0 0
BITMAP
8020
8440
4C40
4A40
4A80
2A80
3180
3100
ENDCHAR
STARTCHAR 0078
ENCODING 120
SWIDTH 504 0
DWIDTH 7 0
BBX 6 8 0 0
BITMAP
84
48
30
30
30
30
48
84
ENDCHAR
STARTCHAR 0079
ENCODING 121
SWIDTH 504 0
DWIDTH 7 0
BBX 7 11 0 -3
BITMAP
82
44
44
44
28
28
30
10
10
20
20
ENDCHAR
STARTCHAR 007A
ENCODING 122
SWIDTH 432 0
DWIDTH 6 0
BBX 6 8 0 0
BITMAP
FC
0C
18
10
20
40
C0
FC
ENDCHAR
STARTCHAR 007B
ENCODING 123
SWIDTH 360 0
DWIDTH 5 0
BBX 3 14 1 -3
BITMAP
60
40
40
40
40
40
C0
C0
40
40
40
40
40
60
ENDCHAR
STARTCHAR 007C
ENCODING 124
SWIDTH 648 0
DWIDTH 9 0
BBX 1 15 4 -3
BITMAP
80
80
80
80
80
80
80
80
80
80
80
80
80
80
80
ENDCHAR
STARTCHAR 007D
ENCODING 125
SWIDTH 360 0
DWIDTH 5 0
BBX 3 14 1 -3
BITMAP
C0
40
40
40
40
40
60
60
40
40
40
40
40
C0
ENDCHAR
STARTCHAR 007E
ENCODING 126
SWIDTH 576 0
DWIDTH 8 0
BBX 6 2 1 3
BITMAP
60
9C
ENDCHAR
STARTCHAR 00A0
ENCODING 160
SWIDTH 288 0
DWIDTH 4 0
BBX 0 0 0 0
BITMAP
ENDCHAR
STARTCHAR 00A3
ENCODING 163
SWIDTH 576 0
DWIDTH 8 0
BBX 7 11 1 0
BITMAP
78
C4
84
80
80
F8
40
22
22
26
F8
ENDCHAR
STARTCHAR 00A4
ENCODING 164
SWIDTH 576 0
DWIDTH 8 0
BBX 6 7 1 1
BITMAP
B4
48
84
84
84
48
B4
ENDCHAR
STARTCHAR 00A6
ENCODING 166
SWIDTH 648 0
DWIDTH 9 0
BBX 1 12 4 -2
BITMAP
80
80
80
80
80
00
00
80
80
80
80
80
ENDCHAR
STARTCHAR 00A7
ENCODING 167
SWIDTH 648 0
DWIDTH 9 0
BBX 7 13 1 -2
BITMAP
38
44
40
60
78
84
82
62
1C
04
84
C4
78
ENDCHAR
STARTCHAR 00A8
ENCODING 168
SWIDTH 360 0
DWIDTH 5 0
BBX 3 2 1 9
BITMAP
A0
A0
ENDCHAR
STARTCHAR 00A9
ENCODING 169
SWIDTH 720 0
DWIDTH 10 0
BBX 11 11 0 0
BITMAP
1F00
2080
4E40
9120
A020
A020
A020
9120
5E40
2080
1F00
ENDCHAR
STARTCHAR 00AB
ENCODING 171
SWIDTH 432 0
DWIDTH 6 0
BBX 5 6 1 1
BITMAP
48
50
90
90
50
48
ENDCHAR
STARTCHAR 00AC
ENCODING 172
SWIDTH 576 0
DWIDTH 8 0
BBX 7 4 1 1
BITMAP
FE
02
02
02
ENDCHAR
STARTCHAR 00AD
ENCODING 173
SWIDTH 360 0
DWIDTH 5 0
BBX 4 1 0 4
BITMAP
F0
ENDCHAR
STARTCHAR 00AE
ENCODING 174
SWIDTH 720 0
DWIDTH 10 0
BBX 11 11 0 0
BITMAP
1F00
2080
5E40
9120
9120
9E20
9120
9120
5140
2080
1F00
ENDCHAR
STARTCHAR 00B0
ENCODING 176
SWIDTH 432 0
DWIDTH 6 0
BBX 4 5 1 6
BITMAP
60
90
90
90
60
ENDCHAR
STARTCHAR 00B1
ENCODING 177
SWIDTH 576 0
DWIDTH 8 0
BBX 7 8 1 0
BITMAP
10
10
10
FE
10
10
00
FE
ENDCHAR
STARTCHAR 00B4
ENCODING 180
SWIDTH 360 0
DWIDTH 5 0
BBX 3 2 1 10
BITMAP
60
80
ENDCHAR
STARTCHAR 00B5
ENCODING 181
SWIDTH 576 0
DWIDTH 8 0
BBX 6 11 1 -3
BITMAP
84
84
84
84
84
84
CC
B4
80
80
80
ENDCHAR
STARTCHAR 00B6
ENCODING 182
SWIDTH 576 0
DWIDTH 8 0
BBX 8 12 0 -2
BITMAP
7F
F2
F2
F2
F2
32
12
12
12
12
12
12
ENDCHAR
STARTCHAR 00B7
ENCODING 183
SWIDTH 288 0
DWIDTH 4 0
BBX 1 2 1 3
BITMAP
80
80
ENDCHAR
STARTCHAR 00B8
ENCODING 184
SWIDTH 360 0
DWIDTH 5 0
BBX 3 2 1 -2
BITMAP
E0
E0
ENDCHAR
STARTCHAR 00BB
ENCODING 187
SWIDTH 432 0
DWIDTH 6 0
BBX 5 6 1 1
BITMAP
90
50
48
48
50
90
ENDCHAR
STARTCHAR 00C1
ENCODING 193
SWIDTH 720 0
DWIDTH 10 0
BBX 10 14 0 1
BITMAP
0600
0800
0000
0C00
0C00
1200
1200
1200
2100
3F00
4080
4080
4080
8040
ENDCHAR
STARTCHAR 00C2
ENCODING 194
SWIDTH 720 0
DWIDTH 10 0
BBX 10 14 0 0
BITMAP
0C00
1200
0000
0C00
0C00
1200
1200
1200
2100
3F00
4080
4080
4080
8040
ENDCHAR
STARTCHAR 00C4
ENCODING 196
SWIDTH 720 0
DWIDTH 10 0
BBX 9 14 1 0
BITMAP
1400
1400
0000
0800
1400
1400
1400
2200
2200
7F00
4100
4100
8080
8080
ENDCHAR
STARTCHAR 00C7
ENCODING 199
SWIDTH 792 0
DWIDTH 11 0
BBX 9 14 1 -3
BITMAP
1E00
6100
4080
8000
8000
8000
8000
8000
4080
6100
1E00
1000
0C00
0C00
ENDCHAR
STARTCHAR 00C9
ENCODING 201
SWIDTH 504 0
DWIDTH 7 0
BBX 6 14 1 1
BITMAP
10
60
00
FC
80
80
80
80
F8
80
80
80
80
FC
ENDCHAR
STARTCHAR 00CB
ENCODING 203
SWIDTH 504 0
DWIDTH 7 0
BBX 5 14 1 0
BITMAP
50
50
00
F8
80
80
80
80
F8
80
80
80
80
F8
ENDCHAR
STARTCHAR 00CD
ENCODING 205
SWIDTH 216 0
DWIDTH 3 0
BBX 3 14 1 1
BITMAP
60
C0
00
80
80
80
80
80
80
80
80
80
80
80
ENDCHAR
STARTCHAR 00CE
ENCODING 206
SWIDTH 216 0
DWIDTH 3 0
BBX 3 14 0 0
BITMAP
40
A0
00
40
40
40
40
40
40
40
40
40
40
40
ENDCHAR
STARTCHAR 00D3
ENCODING 211
SWIDTH 864 0
DWIDTH 12 0
BBX 10 14 1 0
BITMAP
0200
0C00
0800
1E00
2100
4080
8040
8040
8040
8040
8040
4080
2100
1E00
ENDCHAR
STARTCHAR 00D4
ENCODING 212
SWIDTH 864 0
DWIDTH 12 0
BBX 10 14 1 0
BITMAP
0C00
1200
0000
1E00
2100
4080
8040
8040
8040
8040
8040
4080
2100
1E00
ENDCHAR
STARTCHAR 00D5
ENCODING 213
SWIDTH 864 0
DWIDTH 12 0
BBX 10 14 1 0
BITMAP
1800
1600
0000
1E00
2100
4080
8040
8040
8040
8040
8040
4080
2100
1E00
ENDCHAR
STARTCHAR 00D6
ENCODING 214
SWIDTH 864 0
DWIDTH 12 0
BBX 10 14 1 0
BITMAP
1200
1200
0000
1E00
2100
4080
8040
8040
8040
8040
8040
4080
2100
1E00
ENDCHAR
STARTCHAR 00D7
ENCODING 215
SWIDTH 576 0
DWIDTH 8 0
BBX 6 7 1 0
BITMAP
84
48
30
30
38
48
84
ENDCHAR
STARTCHAR 00DA
ENCODING 218
SWIDTH 648 0
DWIDTH 9 0
BBX 7 14 1 1
BITMAP
08
30
00
82
82
82
82
82
82
82
82
82
44
38
ENDCHAR
STARTCHAR 00DC
ENCODING 220
SWIDTH 648 0
DWIDTH 9 0
BBX 7 14 1 0
BITMAP
28
28
00
82
82
82
82
82
82
82
82
82
44
38
ENDCHAR
STARTCHAR 00DD
ENCODING 221
SWIDTH 576 0
DWIDTH 8 0
BBX 7 14 1 1
BITMAP
08
30
00
82
82
44
44
28
28
10
10
10
10
10
ENDCHAR
STARTCHAR 00DF
ENCODING 223
SWIDTH 576 0
DWIDTH 8 0
BBX 7 11 1 0
BITMAP
78
CC
84
84
8C
B8
86
82
C2
C6
BC
ENDCHAR
STARTCHAR 00E1
ENCODING 225
SWIDTH 648 0
DWIDTH 9 0
BBX 8 11 1 1
BITMAP
0C
10
00
3D
43
81
81
81
81
43
3D
ENDCHAR
STARTCHAR 00E2
ENCODING 226
SWIDTH 648 0
DWIDTH 9 0
BBX 8 11 1 0
BITMAP
18
24
00
3D
43
81
81
81
81
43
3D
ENDCHAR
STARTCHAR 00E4
ENCODING 228
SWIDTH 648 0
DWIDTH 9 0
BBX 8 11 1 0
BITMAP
28
28
00
3D
43
81
81
81
81
43
3D
ENDCHAR
STARTCHAR 00E7
ENCODING 231
SWIDTH 648 0
DWIDTH 9 0
BBX 8 11 1 -3
BITMAP
3C
46
83
80
80
80
42
3C
20
18
18
ENDCHAR
STARTCHAR 00E9
ENCODING 233
SWIDTH 648 0
DWIDTH 9 0
BBX 8 11 1 1
BITMAP
0C
10
00
3C
42
81
FF
80
82
42
3C
ENDCHAR
STARTCHAR 00EB
ENCODING 235
SWIDTH 648 0
DWIDTH 9 0
BBX 7 11 1 0
BITMAP
28
28
00
38
46
82
FE
80
82
44
38
ENDCHAR
STARTCHAR 00ED
ENCODING 237
SWIDTH 216 0
DWIDTH 3 0
BBX 3 11 1 1
BITMAP
60
80
00
80
80
80
80
80
80
80
80
ENDCHAR
STARTCHAR 00EE
ENCODING 238
SWIDTH 216 0
DWIDTH 3 0
BBX 5 11 -1 0
BITMAP
70
D8
00
20
20
20
20
20
20
20
20
ENDCHAR
STARTCHAR 00F3
ENCODING 243
SWIDTH 648 0
DWIDTH 9 0
BBX 8 11 1 1
BITMAP
0C
10
00
3C
42
81
81
81
81
42
3C
ENDCHAR
STARTCHAR 00F4
ENCODING 244
SWIDTH 648 0
DWIDTH 9 0
BBX 8 11 1 0
BITMAP
18
24
00
3C
42
81
81
81
81
42
3C
ENDCHAR
STARTCHAR 00F5
ENCODING 245
SWIDTH 648 0
DWIDTH 9 0
BBX 8 11 1 0
BITMAP
30
0C
00
3C
42
81
81
81
81
42
3C
ENDCHAR
STARTCHAR 00F6
ENCODING 246
SWIDTH 648 0
DWIDTH 9 0
BBX 8 11 1 0
BITMAP
28
28
00
3C
42
81
81
81
81
42
3C
ENDCHAR
STARTCHAR 00F7
ENCODING 247
SWIDTH 576 0
DWIDTH 8 0
BBX 7 8 1 0
BITMAP
10
10
00
00
FE
00
10
10
ENDCHAR
STARTCHAR 00FA
ENCODING 250
SWIDTH 576 0
DWIDTH 8 0
BBX 7 11 1 1
BITMAP
18
30
00
82
82
82
82
82
82
C6
7A
ENDCHAR
STARTCHAR 00FC
ENCODING 252
SWIDTH 576 0
DWIDTH 8 0
BBX 7 11 1 0
BITMAP
28
28
00
82
82
82
82
82
82
C6
7A
ENDCHAR
STARTCHAR 00FD
ENCODING 253
SWIDTH 504 0
DWIDTH 7 0
BBX 7 14 0 -2
BITMAP
18
20
00
82
44
44
44
28
28
30
10
10
20
20
ENDCHAR
STARTCHAR 0100
ENCODING 256
SWIDTH 720 0
DWIDTH 10 0
BBX 10 13 0 0
BITMAP
1E00
0000
0C00
0C00
1200
1200
1200
2100
3F00
4080
4080
4080
8040
ENDCHAR
STARTCHAR 0101
ENCODING 257
SWIDTH 648 0
DWIDTH 9 0
BBX 8 11 1 0
BITMAP
3C
00
00
3D
43
81
81
81
81
43
3D
ENDCHAR
STARTCHAR 0102
ENCODING 258
SWIDTH 720 0
DWIDTH 10 0
BBX 10 14 0 0
BITMAP
1200
1E00
0000
0C00
0C00
1200
1200
1200
2100
3F00
4080
4080
4080
8040
ENDCHAR
STARTCHAR 0103
ENCODING 259
SWIDTH 648 0
DWIDTH 9 0
BBX 8 11 1 0
BITMAP
24
1C
00
3D
43
81
81
81
81
43
3D
ENDCHAR
STARTCHAR 0104
ENCODING 260
SWIDTH 720 0
DWIDTH 10 0
BBX 10 14 0 -3
BITMAP
0C00
0C00
1600
1200
2200
2100
3F00
4180
4080
C0C0
8040
0080
0080
00C0
ENDCHAR
STARTCHAR 0105
ENCODING 261
SWIDTH 648 0
DWIDTH 9 0
BBX 8 11 1 -3
BITMAP
3D
43
81
81
81
81
43
3D
02
02
03
ENDCHAR
STARTCHAR 0106
ENCODING 262
SWIDTH 792 0
DWIDTH 11 0
BBX 10 14 1 0
BITMAP
0200
0600
0000
1F00
2180
40C0
8000
8000
8000
8000
8000
4040
2180
1F00
ENDCHAR
STARTCHAR 0107
ENCODING 263
SWIDTH 648 0
DWIDTH 9 0
BBX 8 11 1 1
BITMAP
0C
10
00
3C
42
81
80
80
80
42
3C
ENDCHAR
STARTCHAR 010C
ENCODING 268
SWIDTH 792 0
DWIDTH 11 0
BBX 10 14 1 0
BITMAP
1B00
0C00
0000
1F00
2180
40C0
8000
8000
8000
8000
8000
4040
2180
1F00
ENDCHAR
STARTCHAR 010D
ENCODING 269
SWIDTH 648 0
DWIDTH 9 0
BBX 8 11 1 0
BITMAP
24
18
00
3C
42
81
80
80
80
42
3C
ENDCHAR
STARTCHAR 010E
ENCODING 270
SWIDTH 720 0
DWIDTH 10 0
BBX 9 14 1 0
BITMAP
4C00
3000
0000
FC00
8200
8100
8080
8080
8080
8080
8080
8100
8200
FC00
ENDCHAR
STARTCHAR 010F
ENCODING 271
SWIDTH 720 0
DWIDTH 10 0
BBX 10 11 1 0
BITMAP
0140
0140
0180
3D00
4300
8100
8100
8100
8100
4300
3D00
ENDCHAR
STARTCHAR 0110
ENCODING 272
SWIDTH 792 0
DWIDTH 11 0
BBX 9 11 1 0
BITMAP
7C00
4200
4100
4080
4080
F880
4080
4080
4100
4300
7C00
ENDCHAR
STARTCHAR 0111
ENCODING 273
SWIDTH 720 0
DWIDTH 10 0
BBX 9 11 1 0
BITMAP
0100
0780
0100
3D00
4300
8100
8100
8100
8100
4300
3D00
ENDCHAR
STARTCHAR 0112
ENCODING 274
SWIDTH 504 0
DWIDTH 7 0
BBX 6 13 1 0
BITMAP
F8
00
FC
80
80
80
80
F8
80
80
80
80
FC
ENDCHAR
STARTCHAR 0113
ENCODING 275
SWIDTH 648 0
DWIDTH 9 0
BBX 8 11 1 0
BITMAP
3C
00
00
3C
42
81
FF
80
82
42
3C
ENDCHAR
STARTCHAR 0116
ENCODING 278
SWIDTH 504 0
DWIDTH 7 0
BBX 5 14 1 0
BITMAP
20
20
00
F8
80
80
80
80
F8
80
80
80
80
F8
ENDCHAR
STARTCHAR 0117
ENCODING 279
SWIDTH 648 0
DWIDTH 9 0
BBX 7 11 1 0
BITMAP
10
10
00
38
46
82
FE
80
82
44
38
ENDCHAR
STARTCHAR 0118
ENCODING 280
SWIDTH 504 0
DWIDTH 7 0
BBX 5 14 1 -3
BITMAP
F8
80
80
80
80
F8
80
80
80
80
F8
08
10
18
ENDCHAR
STARTCHAR 0119
ENCODING 281
SWIDTH 648 0
DWIDTH 9 0
BBX 8 11 1 -3
BITMAP
3C
42
81
FF
80
81
42
3C
10
10
18
ENDCHAR
STARTCHAR 011A
ENCODING 282
SWIDTH 504 0
DWIDTH 7 0
BBX 6 14 1 0
BITMAP
58
30
00
FC
80
80
80
80
F8
80
80
80
80
FC
ENDCHAR
STARTCHAR 011B
ENCODING 283
SWIDTH 648 0
DWIDTH 9 0
BBX 8 11 1 0
BITMAP
2C
18
00
3C
42
81
FF
80
82
42
3C
ENDCHAR
STARTCHAR 0122
ENCODING 290
SWIDTH 864 0
DWIDTH 12 0
BBX 11 14 1 -4
BITMAP
1F00
2180
4040
8000
8000
8000
8FE0
8060
4040
2080
1F00
0000
0400
0800
ENDCHAR
STARTCHAR 0123
ENCODING 291
SWIDTH 648 0
DWIDTH 9 0
BBX 7 14 1 -2
BITMAP
10
10
00
3A
46
82
82
82
82
46
3A
82
44
38
ENDCHAR
STARTCHAR 012A
ENCODING 298
SWIDTH 216 0
DWIDTH 3 0
BBX 3 13 0 0
BITMAP
E0
00
40
40
40
40
40
40
40
40
40
40
40
ENDCHAR
STARTCHAR 012B
ENCODING 299
SWIDTH 216 0
DWIDTH 3 0
BBX 5 11 -1 0
BITMAP
F8
00
00
20
20
20
20
20
20
20
20
ENDCHAR
STARTCHAR 012E
ENCODING 302
SWIDTH 216 0
DWIDTH 3 0
BBX 2 14 0 -3
BITMAP
40
40
40
40
40
40
40
40
40
40
40
80
80
C0
ENDCHAR
STARTCHAR 012F
ENCODING 303
SWIDTH 216 0
DWIDTH 3 0
BBX 2 14 0 -3
BITMAP
40
40
00
40
40
40
40
40
40
40
40
80
80
C0
ENDCHAR
STARTCHAR 0136
ENCODING 310
SWIDTH 576 0
DWIDTH 8 0
BBX 7 14 1 -3
BITMAP
86
84
88
90
B0
A0
D0
98
88
84
86
00
20
20
ENDCHAR
STARTCHAR 0137
ENCODING 311
SWIDTH 504 0
DWIDTH 7 0
BBX 6 14 1 -3
BITMAP
80
80
80
88
98
90
A0
E0
D0
88
8C
00
20
40
ENDCHAR
STARTCHAR 0139
ENCODING 313
SWIDTH 432 0
DWIDTH 6 0
BBX 5 14 1 1
BITMAP
30
60
00
80
80
80
80
80
80
80
80
80
80
F8
ENDCHAR
STARTCHAR 013A
ENCODING 314
SWIDTH 216 0
DWIDTH 3 0
BBX 3 14 0 1
BITMAP
20
C0
00
40
40
40
40
40
40
40
40
40
40
40
ENDCHAR
STARTCHAR 013B
ENCODING 315
SWIDTH 432 0
DWIDTH 6 0
BBX 5 14 1 -4
BITMAP
80
80
80
80
80
80
80
80
80
80
F8
00
20
40
ENDCHAR
STARTCHAR 013C
ENCODING 316
SWIDTH 216 0
DWIDTH 3 0
BBX 2 14 0 -4
BITMAP
40
40
40
40
40
40
40
40
40
40
40
00
40
80
ENDCHAR
STARTCHAR 013D
ENCODING 317
SWIDTH 432 0
DWIDTH 6 0
BBX 5 11 1 0
BITMAP
88
88
90
80
80
80
80
80
80
80
F8
ENDCHAR
STARTCHAR 013E
ENCODING 318
SWIDTH 288 0
DWIDTH 4 0
BBX 3 11 1 0
BITMAP
A0
A0
C0
80
80
80
80
80
80
80
80
ENDCHAR
STARTCHAR 0141
ENCODING 321
SWIDTH 504 0
DWIDTH 7 0
BBX 6 11 1 0
BITMAP
40
40
40
50
70
40
C0
40
40
40
7C
ENDCHAR
STARTCHAR 0142
ENCODING 322
SWIDTH 288 0
DWIDTH 4 0
BBX 3 11 1 0
BITMAP
40
40
40
40
60
C0
40
40
40
40
40
ENDCHAR
STARTCHAR 0143
ENCODING 323
SWIDTH 720 0
DWIDTH 10 0
BBX 8 14 1 1
BITMAP
04
18
00
C1
C1
A1
B1
91
89
89
85
87
83
81
ENDCHAR
STARTCHAR 0144
ENCODING 324
SWIDTH 576 0
DWIDTH 8 0
BBX 7 11 1 1
BITMAP
0C
30
00
B8
C4
82
82
82
82
82
82
ENDCHAR
STARTCHAR 0145
ENCODING 325
SWIDTH 720 0
DWIDTH 10 0
BBX 8 14 1 -3
BITMAP
C1
C1
A1
B1
91
89
89
85
87
83
81
00
10
10
ENDCHAR
STARTCHAR 0146
ENCODING 326
SWIDTH 576 0
DWIDTH 8 0
BBX 7 11 1 -3
BITMAP
B8
C4
82
82
82
82
82
82
00
10
20
ENDCHAR
STARTCHAR 0147
ENCODING 327
SWIDTH 720 0
DWIDTH 10 0
BBX 8 14 1 0
BITMAP
24
18
00
C1
C1
A1
B1
91
89
89
85
87
83
81
ENDCHAR
STARTCHAR 0148
ENCODING 328
SWIDTH 576 0
DWIDTH 8 0
BBX 7 11 1 0
BITMAP
68
10
00
B8
C4
82
82
82
82
82
82
ENDCHAR
STARTCHAR 014C
ENCODING 332
SWIDTH 864 0
DWIDTH 12 0
BBX 10 13 1 0
BITMAP
1E00
0000
1E00
2100
4080
8040
8040
8040
8040
8040
4080
2100
1E00
ENDCHAR
STARTCHAR 014D
ENCODING 333
SWIDTH 648 0
DWIDTH 9 0
BBX 8 11 1 0
BITMAP
3C
00
00
3C
42
81
81
81
81
42
3C
ENDCHAR
STARTCHAR 0150
ENCODING 336
SWIDTH 864 0
DWIDTH 12 0
BBX 10 14 1 0
BITMAP
0400
0900
0200
1E00
2100
4080
8040
8040
8040
8040
8040
4080
2100
1E00
ENDCHAR
STARTCHAR 0151
ENCODING 337
SWIDTH 648 0
DWIDTH 9 0
BBX 8 11 1 1
BITMAP
0A
34
00
3C
42
81
81
81
81
42
3C
ENDCHAR
STARTCHAR 0154
ENCODING 340
SWIDTH 576 0
DWIDTH 8 0
BBX 7 14 1 1
BITMAP
08
30
00
F8
84
82
82
82
84
BC
90
88
84
84
ENDCHAR
STARTCHAR 0155
ENCODING 341
SWIDTH 288 0
DWIDTH 4 0
BBX 4 11 1 1
BITMAP
30
40
00
A0
C0
80
80
80
80
80
80
ENDCHAR
STARTCHAR 0156
ENCODING 342
SWIDTH 576 0
DWIDTH 8 0
BBX 7 14 1 -3
BITMAP
F8
84
82
82
82
84
BC
90
88
84
84
00
20
20
ENDCHAR
STARTCHAR 0157
ENCODING 343
SWIDTH 288 0
DWIDTH 4 0
BBX 3 10 1 -4
BITMAP
A0
C0
80
80
80
80
80
80
00
80
ENDCHAR
STARTCHAR 0158
ENCODING 344
SWIDTH 576 0
DWIDTH 8 0
BBX 7 14 1 0
BITMAP
48
30
00
F8
84
82
82
82
84
BC
90
88
84
84
ENDCHAR
STARTCHAR 0159
ENCODING 345
SWIDTH 288 0
DWIDTH 4 0
BBX 3 11 1 0
BITMAP
A0
40
00
A0
C0
80
80
80
80
80
80
ENDCHAR
STARTCHAR 015A
ENCODING 346
SWIDTH 504 0
DWIDTH 7 0
BBX 5 14 1 0
BITMAP
10
20
00
70
88
88
80
C0
30
08
08
88
88
70
ENDCHAR
STARTCHAR 015B
ENCODING 347
SWIDTH 360 0
DWIDTH 5 0
BBX 5 11 0 1
BITMAP
38
60
00
70
88
80
60
18
08
88
70
ENDCHAR
STARTCHAR 0160
ENCODING 352
SWIDTH 504 0
DWIDTH 7 0
BBX 5 14 1 0
BITMAP
50
20
00
70
88
88
80
C0
30
08
08
88
88
70
ENDCHAR
STARTCHAR 0161
ENCODING 353
SWIDTH 360 0
DWIDTH 5 0
BBX 5 11 0 0
BITMAP
D8
60
00
70
88
80
60
18
08
88
70
ENDCHAR
STARTCHAR 0162
ENCODING 354
SWIDTH 432 0
DWIDTH 6 0
BBX 5 14 0 -4
BITMAP
F8
20
20
20
20
20
20
20
20
20
20
00
20
40
ENDCHAR
STARTCHAR 0163
ENCODING 355
SWIDTH 360 0
DWIDTH 5 0
BBX 5 14 0 -4
BITMAP
20
20
20
F8
20
20
20
20
20
20
20
00
20
40
ENDCHAR
STARTCHAR 0164
ENCODING 356
SWIDTH 432 0
DWIDTH 6 0
BBX 5 14 0 0
BITMAP
D8
60
00
F8
20
20
20
20
20
20
20
20
20
20
ENDCHAR
STARTCHAR 0165
ENCODING 357
SWIDTH 360 0
DWIDTH 5 0
BBX 6 12 0 0
BITMAP
04
28
28
20
F8
20
20
20
20
20
20
20
ENDCHAR
STARTCHAR 016A
ENCODING 362
SWIDTH 648 0
DWIDTH 9 0
BBX 7 13 1 0
BITMAP
7C
00
82
82
82
82
82
82
82
82
82
44
38
ENDCHAR
STARTCHAR 016B
ENCODING 363
SWIDTH 576 0
DWIDTH 8 0
BBX 7 11 1 0
BITMAP
7C
00
00
82
82
82
82
82
82
C6
7A
ENDCHAR
STARTCHAR 016E
ENCODING 366
SWIDTH 648 0
DWIDTH 9 0
BBX 7 14 1 0
BITMAP
38
28
38
82
82
82
82
82
82
82
82
82
44
38
ENDCHAR
STARTCHAR 016F
ENCODING 367
SWIDTH 576 0
DWIDTH 8 0
BBX 7 12 1 0
BITMAP
38
28
38
00
82
82
82
82
82
82
C6
7A
ENDCHAR
STARTCHAR 0170
ENCODING 368
SWIDTH 648 0
DWIDTH 9 0
BBX 7 13 1 1
BITMAP
34
28
82
82
82
82
82
82
82
82
82
44
38
ENDCHAR
STARTCHAR 0171
ENCODING 369
SWIDTH 576 0
DWIDTH 8 0
BBX 7 11 1 1
BITMAP
16
68
00
82
82
82
82
82
82
C6
7A
ENDCHAR
STARTCHAR 0172
ENCODING 370
SWIDTH 648 0
DWIDTH 9 0
BBX 7 14 1 -3
BITMAP
82
82
82
82
82
82
82
82
82
44
3C
10
10
18
ENDCHAR
STARTCHAR 0173
ENCODING 371
SWIDTH 576 0
DWIDTH 8 0
BBX 7 11 1 -3
BITMAP
82
82
82
82
82
82
C6
7A
04
08
06
ENDCHAR
STARTCHAR 0179
ENCODING 377
SWIDTH 504 0
DWIDTH 7 0
BBX 6 14 0 1
BITMAP
10
20
00
FC
04
08
18
10
30
20
40
40
80
FC
ENDCHAR
STARTCHAR 017A
ENCODING 378
SWIDTH 432 0
DWIDTH 6 0
BBX 6 11 0 1
BITMAP
38
20
00
FC
0C
18
10
20
40
C0
FC
ENDCHAR
STARTCHAR 017B
ENCODING 379
SWIDTH 504 0
DWIDTH 7 0
BBX 7 14 0 0
BITMAP
10
10
00
FE
04
04
08
18
10
20
20
40
40
FE
ENDCHAR
STARTCHAR 017C
ENCODING 380
SWIDTH 432 0
DWIDTH 6 0
BBX 5 11 0 0
BITMAP
20
20
00
F8
18
10
20
60
40
80
F8
ENDCHAR
STARTCHAR 017D
ENCODING 381
SWIDTH 504 0
DWIDTH 7 0
BBX 6 14 0 0
BITMAP
48
30
00
FC
0C
08
18
10
30
20
40
40
80
FC
ENDCHAR
STARTCHAR 017E
ENCODING 382
SWIDTH 432 0
DWIDTH 6 0
BBX 6 11 0 0
BITMAP
48
30
00
FC
0C
18
10
20
40
C0
FC
ENDCHAR
STARTCHAR 0218
ENCODING 536
SWIDTH 504 0
DWIDTH 7 0
BBX 5 13 1 -4
BITMAP
70
88
88
80
C0
30
08
08
88
88
70
00
20
ENDCHAR
STARTCHAR 0219
ENCODING 537
SWIDTH 360 0
DWIDTH 5 0
BBX 5 11 0 -4
BITMAP
70
88
80
60
18
08
88
70
00
20
40
ENDCHAR
STARTCHAR 021A
ENCODING 538
SWIDTH 432 0
DWIDTH 6 0
BBX 5 14 0 -4
BITMAP
F8
20
20
20
20
20
20
20
20
20
20
00
20
40
ENDCHAR
STARTCHAR 021B
ENCODING 539
SWIDTH 360 0
DWIDTH 5 0
BBX 5 14 0 -4
BITMAP
20
20
20
F8
20
20
20
20
20
20
20
00
20
40
ENDCHAR
STARTCHAR 02C7
ENCODING 711
SWIDTH 504 0
DWIDTH 7 0
BBX 3 2 2 9
BITMAP
A0
40
ENDCHAR
STARTCHAR 02D8
ENCODING 728
SWIDTH 432 0
DWIDTH 6 0
BBX 5 2 1 9
BITMAP
88
70
ENDCHAR
STARTCHAR 02D9
ENCODING 729
SWIDTH 216 0
DWIDTH 3 0
BBX 1 2 1 9
BITMAP
80
80
ENDCHAR
STARTCHAR 02DB
ENCODING 731
SWIDTH 288 0
DWIDTH 4 0
BBX 2 3 1 -2
BITMAP
40
80
C0
ENDCHAR
STARTCHAR 02DD
ENCODING 733
SWIDTH 576 0
DWIDTH 8 0
BBX 5 2 2 9
BITMAP
58
B0
ENDCHAR
STARTCHAR 0394
ENCODING 916
SWIDTH 648 0
DWIDTH 9 0
BBX 8 9 0 2
BITMAP
08
18
2C
24
44
46
42
83
FF
ENDCHAR
STARTCHAR 03BC
ENCODING 956
SWIDTH 576 0
DWIDTH 8 0
BBX 6 11 1 -3
BITMAP
84
84
84
84
84
84
CC
B4
80
80
80
ENDCHAR
STARTCHAR 2013
ENCODING 8211
SWIDTH 504 0
DWIDTH 7 0
BBX 6 1 0 4
BITMAP
FC
ENDCHAR
STARTCHAR 2014
ENCODING 8212
SWIDTH 1008 0
DWIDTH 14 0
BBX 13 1 0 4
BITMAP
FFF8
ENDCHAR
STARTCHAR 2018
ENCODING 8216
SWIDTH 360 0
DWIDTH 5 0
BBX 2 3 1 8
BITMAP
80
40
40
ENDCHAR
STARTCHAR 2019
ENCODING 8217
SWIDTH 360 0
DWIDTH 5 0
BBX 2 3 1 8
BITMAP
40
C0
80
ENDCHAR
STARTCHAR 201A
ENCODING 8218
SWIDTH 360 0
DWIDTH 5 0
BBX 2 3 1 -1
BITMAP
40
40
80
ENDCHAR
STARTCHAR 201C
ENCODING 8220
SWIDTH 504 0
DWIDTH 7 0
BBX 4 3 1 8
BITMAP
A0
60
50
ENDCHAR
STARTCHAR 201D
ENCODING 8221
SWIDTH 504 0
DWIDTH 7 0
BBX 4 3 1 8
BITMAP
50
A0
A0
ENDCHAR
STARTCHAR 201E
ENCODING 8222
SWIDTH 504 0
DWIDTH 7 0
BBX 4 3 1 -1
BITMAP
50
60
A0
ENDCHAR
STARTCHAR 2020
ENCODING 8224
SWIDTH 576 0
DWIDTH 8 0
BBX 6 13 1 -2
BITMAP
20
20
20
FC
20
20
20
20
20
20
20
20
20
ENDCHAR
STARTCHAR 2021
ENCODING 8225
SWIDTH 576 0
DWIDTH 8 0
BBX 6 13 1 -2
BITMAP
20
20
20
FC
20
20
20
20
20
FC
20
20
20
ENDCHAR
STARTCHAR 2022
ENCODING 8226
SWIDTH 576 0
DWIDTH 8 0
BBX 4 5 2 3
BITMAP
60
F0
F0
F0
60
ENDCHAR
STARTCHAR 2026
ENCODING 8230
SWIDTH 1008 0
DWIDTH 14 0
BBX 10 2 2 0
BITMAP
8840
8840
ENDCHAR
STARTCHAR 2030
ENCODING 8240
SWIDTH 1152 0
DWIDTH 16 0
BBX 16 11 0 0
BITMAP
7080
8900
8A00
8A00
7400
0400
098E
0E71
1431
2431
23CE
ENDCHAR
STARTCHAR 2039
ENCODING 8249
SWIDTH 216 0
DWIDTH 3 0
BBX 2 6 1 1
BITMAP
40
40
80
80
40
40
ENDCHAR
STARTCHAR 203A
ENCODING 8250
SWIDTH 216 0
DWIDTH 3 0
BBX 2 6 1 1
BITMAP
80
80
40
40
80
80
ENDCHAR
STARTCHAR 20AC
ENCODING 8364
SWIDTH 576 0
DWIDTH 8 0
BBX 7 11 0 0
BITMAP
1C
22
40
40
FC
40
F8
40
40
22
1C
ENDCHAR
STARTCHAR 2122
ENCODING 8482
SWIDTH 1008 0
DWIDTH 14 0
BBX 11 7 0 4
BITMAP
EC60
4C60
4CA0
4AA0
4AA0
4B20
4920
ENDCHAR
STARTCHAR 2202
ENCODING 8706
SWIDTH 504 0
DWIDTH 7 0
BBX 6 11 0 -1
BITMAP
70
08
04
04
74
4C
84
84
88
88
70
ENDCHAR
STARTCHAR 2206
ENCODING 8710
SWIDTH 648 0
DWIDTH 9 0
BBX 8 9 0 2
BITMAP
08
18
2C
24
44
46
42
83
FF
ENDCHAR
STARTCHAR 2211
ENCODING 8721
SWIDTH 576 0
DWIDTH 8 0
BBX 7 10 1 0
BITMAP
FC
C0
40
20
10
10
20
40
82
FE
ENDCHAR
STARTCHAR 2219
ENCODING 8729
SWIDTH 288 0
DWIDTH 4 0
BBX 1 2 1 3
BITMAP
80
80
ENDCHAR
STARTCHAR 221A
ENCODING 8730
SWIDTH 432 0
DWIDTH 6 0
BBX 6 11 0 -1
BITMAP
04
04
04
08
08
C8
28
28
18
18
10
ENDCHAR
STARTCHAR 2260
ENCODING 8800
SWIDTH 576 0
DWIDTH 8 0
BBX 7 8 0 0
BITMAP
04
08
FE
10
10
FE
20
40
ENDCHAR
STARTCHAR 2264
ENCODING 8804
SWIDTH 576 0
DWIDTH 8 0
BBX 7 9 0 1
BITMAP
06
38
E0
C0
30
0C
02
00
FE
ENDCHAR
STARTCHAR 2265
ENCODING 8805
SWIDTH 576 0
DWIDTH 8 0
BBX 7 9 0 1
BITMAP
C0
38
0E
06
18
60
80
00
FE
ENDCHAR
STARTCHAR 25CA
ENCODING 9674
SWIDTH 504 0
DWIDTH 7 0
BBX 6 10 0 1
BITMAP
30
30
48
48
84
84
48
48
30
30
ENDCHAR
ENDFONT
