STARTFONT 2.1
COMMENT Exported by Fony v1.4.7
FONT Ttyp0_mod
SIZE 16 75 75
FONTBOUNDINGBOX 8 15 0 -4
STARTPROPERTIES 6
COPYRIGHT "Copyright (C) 2012-2015 Uwe Waldmann"
RESOLUTION_X 75
RESOLUTION_Y 75
FONT_ASCENT 12
FONT_DESCENT 4
DEFAULT_CHAR 0
ENDPROPERTIES
CHARS 327
STARTCHAR 000
ENCODING 0
SWIDTH 576 0
DWIDTH 8 0
BBX 6 10 1 0
BITMAP
B4
84
84
00
84
84
00
84
84
B4
ENDCHAR
STARTCHAR 001
ENCODING 1
SWIDTH 72 0
DWIDTH 1 0
BBX 0 0 0 0
BITMAP
ENDCHAR
STARTCHAR 002
ENCODING 2
SWIDTH 72 0
DWIDTH 1 0
BBX 0 0 0 0
BITMAP
ENDCHAR
STARTCHAR 003
ENCODING 3
SWIDTH 72 0
DWIDTH 1 0
BBX 0 0 0 0
BITMAP
ENDCHAR
STARTCHAR 004
ENCODING 4
SWIDTH 72 0
DWIDTH 1 0
BBX 0 0 0 0
BITMAP
ENDCHAR
STARTCHAR 005
ENCODING 5
SWIDTH 72 0
DWIDTH 1 0
BBX 0 0 0 0
BITMAP
ENDCHAR
STARTCHAR 006
ENCODING 6
SWIDTH 72 0
DWIDTH 1 0
BBX 0 0 0 0
BITMAP
ENDCHAR
STARTCHAR 007
ENCODING 7
SWIDTH 72 0
DWIDTH 1 0
BBX 0 0 0 0
BITMAP
ENDCHAR
STARTCHAR 008
ENCODING 8
SWIDTH 72 0
DWIDTH 1 0
BBX 0 0 0 0
BITMAP
ENDCHAR
STARTCHAR 009
ENCODING 9
SWIDTH 72 0
DWIDTH 1 0
BBX 0 0 0 0
BITMAP
ENDCHAR
STARTCHAR 010
ENCODING 10
SWIDTH 72 0
DWIDTH 1 0
BBX 0 0 0 0
BITMAP
ENDCHAR
STARTCHAR 011
ENCODING 11
SWIDTH 72 0
DWIDTH 1 0
BBX 0 0 0 0
BITMAP
ENDCHAR
STARTCHAR 012
ENCODING 12
SWIDTH 72 0
DWIDTH 1 0
BBX 0 0 0 0
BITMAP
ENDCHAR
STARTCHAR 013
ENCODING 13
SWIDTH 72 0
DWIDTH 1 0
BBX 0 0 0 0
BITMAP
ENDCHAR
STARTCHAR 014
ENCODING 14
SWIDTH 72 0
DWIDTH 1 0
BBX 0 0 0 0
BITMAP
ENDCHAR
STARTCHAR 015
ENCODING 15
SWIDTH 72 0
DWIDTH 1 0
BBX 0 0 0 0
BITMAP
ENDCHAR
STARTCHAR 016
ENCODING 16
SWIDTH 72 0
DWIDTH 1 0
BBX 0 0 0 0
BITMAP
ENDCHAR
STARTCHAR 017
ENCODING 17
SWIDTH 72 0
DWIDTH 1 0
BBX 0 0 0 0
BITMAP
ENDCHAR
STARTCHAR 018
ENCODING 18
SWIDTH 72 0
DWIDTH 1 0
BBX 0 0 0 0
BITMAP
ENDCHAR
STARTCHAR 019
ENCODING 19
SWIDTH 72 0
DWIDTH 1 0
BBX 0 0 0 0
BITMAP
ENDCHAR
STARTCHAR 020
ENCODING 20
SWIDTH 72 0
DWIDTH 1 0
BBX 0 0 0 0
BITMAP
ENDCHAR
STARTCHAR 021
ENCODING 21
SWIDTH 72 0
DWIDTH 1 0
BBX 0 0 0 0
BITMAP
ENDCHAR
STARTCHAR 022
ENCODING 22
SWIDTH 72 0
DWIDTH 1 0
BBX 0 0 0 0
BITMAP
ENDCHAR
STARTCHAR 023
ENCODING 23
SWIDTH 72 0
DWIDTH 1 0
BBX 0 0 0 0
BITMAP
ENDCHAR
STARTCHAR 024
ENCODING 24
SWIDTH 72 0
DWIDTH 1 0
BBX 0 0 0 0
BITMAP
ENDCHAR
STARTCHAR 025
ENCODING 25
SWIDTH 72 0
DWIDTH 1 0
BBX 0 0 0 0
BITMAP
ENDCHAR
STARTCHAR 026
ENCODING 26
SWIDTH 72 0
DWIDTH 1 0
BBX 0 0 0 0
BITMAP
ENDCHAR
STARTCHAR 027
ENCODING 27
SWIDTH 72 0
DWIDTH 1 0
BBX 0 0 0 0
BITMAP
ENDCHAR
STARTCHAR 028
ENCODING 28
SWIDTH 72 0
DWIDTH 1 0
BBX 0 0 0 0
BITMAP
ENDCHAR
STARTCHAR 029
ENCODING 29
SWIDTH 72 0
DWIDTH 1 0
BBX 0 0 0 0
BITMAP
ENDCHAR
STARTCHAR 030
ENCODING 30
SWIDTH 72 0
DWIDTH 1 0
BBX 0 0 0 0
BITMAP
ENDCHAR
STARTCHAR 031
ENCODING 31
SWIDTH 72 0
DWIDTH 1 0
BBX 0 0 0 0
BITMAP
ENDCHAR
STARTCHAR 032
ENCODING 32
SWIDTH 576 0
DWIDTH 8 0
BBX 0 0 0 0
BITMAP
ENDCHAR
STARTCHAR 033
ENCODING 33
SWIDTH 576 0
DWIDTH 8 0
BBX 1 10 4 0
BITMAP
80
80
80
80
80
80
80
00
80
80
ENDCHAR
STARTCHAR 034
ENCODING 34
SWIDTH 576 0
DWIDTH 8 0
BBX 4 3 2 7
BITMAP
90
90
90
ENDCHAR
STARTCHAR 035
ENCODING 35
SWIDTH 576 0
DWIDTH 8 0
BBX 6 8 1 1
BITMAP
48
48
FC
48
48
FC
48
48
ENDCHAR
STARTCHAR 036
ENCODING 36
SWIDTH 576 0
DWIDTH 8 0
BBX 5 11 2 -1
BITMAP
20
70
A8
A0
A0
70
28
28
A8
70
20
ENDCHAR
STARTCHAR 037
ENCODING 37
SWIDTH 576 0
DWIDTH 8 0
BBX 6 10 1 0
BITMAP
44
A4
A8
50
10
20
28
54
94
88
ENDCHAR
STARTCHAR 038
ENCODING 38
SWIDTH 576 0
DWIDTH 8 0
BBX 7 10 1 0
BITMAP
30
48
48
50
20
52
94
88
88
76
ENDCHAR
STARTCHAR 039
ENCODING 39
SWIDTH 576 0
DWIDTH 8 0
BBX 3 4 3 7
BITMAP
60
60
40
80
ENDCHAR
STARTCHAR 040
ENCODING 40
SWIDTH 576 0
DWIDTH 8 0
BBX 3 12 3 -1
BITMAP
20
40
40
80
80
80
80
80
80
40
40
20
ENDCHAR
STARTCHAR 041
ENCODING 41
SWIDTH 576 0
DWIDTH 8 0
BBX 3 12 2 -1
BITMAP
80
40
40
20
20
20
20
20
20
40
40
80
ENDCHAR
STARTCHAR 042
ENCODING 42
SWIDTH 576 0
DWIDTH 8 0
BBX 6 5 1 2
BITMAP
48
30
FC
30
48
ENDCHAR
STARTCHAR 043
ENCODING 43
SWIDTH 576 0
DWIDTH 8 0
BBX 7 7 1 1
BITMAP
10
10
10
FE
10
10
10
ENDCHAR
STARTCHAR 044
ENCODING 44
SWIDTH 576 0
DWIDTH 8 0
BBX 3 4 2 -2
BITMAP
60
60
40
80
ENDCHAR
STARTCHAR 045
ENCODING 45
SWIDTH 576 0
DWIDTH 8 0
BBX 6 1 1 4
BITMAP
FC
ENDCHAR
STARTCHAR 046
ENCODING 46
SWIDTH 576 0
DWIDTH 8 0
BBX 2 2 3 0
BITMAP
C0
C0
ENDCHAR
STARTCHAR 047
ENCODING 47
SWIDTH 576 0
DWIDTH 8 0
BBX 6 12 1 -1
BITMAP
04
04
08
08
10
10
20
20
40
40
80
80
ENDCHAR
STARTCHAR 048
ENCODING 48
SWIDTH 576 0
DWIDTH 8 0
BBX 6 10 1 0
BITMAP
30
48
84
84
84
84
84
84
48
30
ENDCHAR
STARTCHAR 049
ENCODING 49
SWIDTH 576 0
DWIDTH 8 0
BBX 3 10 2 0
BITMAP
20
60
A0
20
20
20
20
20
20
20
ENDCHAR
STARTCHAR 050
ENCODING 50
SWIDTH 576 0
DWIDTH 8 0
BBX 6 10 1 0
BITMAP
78
84
84
04
08
10
20
40
80
FC
ENDCHAR
STARTCHAR 051
ENCODING 51
SWIDTH 576 0
DWIDTH 8 0
BBX 6 10 1 0
BITMAP
78
84
04
08
38
04
04
04
84
78
ENDCHAR
STARTCHAR 052
ENCODING 52
SWIDTH 576 0
DWIDTH 8 0
BBX 6 10 1 0
BITMAP
08
18
28
28
48
88
FC
08
08
08
ENDCHAR
STARTCHAR 053
ENCODING 53
SWIDTH 576 0
DWIDTH 8 0
BBX 6 10 1 0
BITMAP
F8
80
80
F0
88
04
04
04
88
70
ENDCHAR
STARTCHAR 054
ENCODING 54
SWIDTH 576 0
DWIDTH 8 0
BBX 6 10 1 0
BITMAP
38
40
80
80
B8
C4
84
84
84
78
ENDCHAR
STARTCHAR 055
ENCODING 55
SWIDTH 576 0
DWIDTH 8 0
BBX 6 10 1 0
BITMAP
FC
04
04
08
08
10
10
20
20
20
ENDCHAR
STARTCHAR 056
ENCODING 56
SWIDTH 576 0
DWIDTH 8 0
BBX 6 10 1 0
BITMAP
78
84
84
84
78
84
84
84
84
78
ENDCHAR
STARTCHAR 057
ENCODING 57
SWIDTH 576 0
DWIDTH 8 0
BBX 6 10 1 0
BITMAP
78
84
84
84
8C
74
04
04
08
70
ENDCHAR
STARTCHAR 058
ENCODING 58
SWIDTH 500 0
DWIDTH 8 0
BBX 8 16 0 -2
BITMAP 
00
00
00
00
00
00
18
18
00
00
00
18
18
00
00
00
ENDCHAR
STARTCHAR 059
ENCODING 59
SWIDTH 576 0
DWIDTH 8 0
BBX 3 8 2 -2
BITMAP
60
60
00
00
60
60
40
80
ENDCHAR
STARTCHAR 060
ENCODING 60
SWIDTH 576 0
DWIDTH 8 0
BBX 5 10 2 0
BITMAP
08
10
20
40
80
80
40
20
10
08
ENDCHAR
STARTCHAR 061
ENCODING 61
SWIDTH 576 0
DWIDTH 8 0
BBX 6 4 1 2
BITMAP
FC
00
00
FC
ENDCHAR
STARTCHAR 062
ENCODING 62
SWIDTH 576 0
DWIDTH 8 0
BBX 5 10 2 0
BITMAP
80
40
20
10
08
08
10
20
40
80
ENDCHAR
STARTCHAR 063
ENCODING 63
SWIDTH 576 0
DWIDTH 8 0
BBX 6 10 1 0
BITMAP
78
84
84
04
08
10
20
00
20
20
ENDCHAR
STARTCHAR 064
ENCODING 64
SWIDTH 576 0
DWIDTH 8 0
BBX 6 10 1 0
BITMAP
38
44
94
AC
A4
A4
A4
9C
40
3C
ENDCHAR
STARTCHAR 065
ENCODING 65
SWIDTH 576 0
DWIDTH 8 0
BBX 6 10 1 0
BITMAP
30
30
48
48
84
84
FC
84
84
84
ENDCHAR
STARTCHAR 066
ENCODING 66
SWIDTH 576 0
DWIDTH 8 0
BBX 6 10 1 0
BITMAP
F8
84
84
84
F8
84
84
84
84
F8
ENDCHAR
STARTCHAR 067
ENCODING 67
SWIDTH 576 0
DWIDTH 8 0
BBX 6 10 1 0
BITMAP
38
44
80
80
80
80
80
80
44
38
ENDCHAR
STARTCHAR 068
ENCODING 68
SWIDTH 576 0
DWIDTH 8 0
BBX 6 10 1 0
BITMAP
F0
88
84
84
84
84
84
84
88
F0
ENDCHAR
STARTCHAR 069
ENCODING 69
SWIDTH 576 0
DWIDTH 8 0
BBX 6 10 1 0
BITMAP
FC
80
80
80
F0
80
80
80
80
FC
ENDCHAR
STARTCHAR 070
ENCODING 70
SWIDTH 576 0
DWIDTH 8 0
BBX 6 10 2 0
BITMAP
FC
80
80
80
F0
80
80
80
80
80
ENDCHAR
STARTCHAR 071
ENCODING 71
SWIDTH 576 0
DWIDTH 8 0
BBX 6 10 1 0
BITMAP
38
44
80
80
80
8C
84
84
44
3C
ENDCHAR
STARTCHAR 072
ENCODING 72
SWIDTH 576 0
DWIDTH 8 0
BBX 6 10 1 0
BITMAP
84
84
84
84
FC
84
84
84
84
84
ENDCHAR
STARTCHAR 073
ENCODING 73
SWIDTH 576 0
DWIDTH 8 0
BBX 5 10 2 0
BITMAP
F8
20
20
20
20
20
20
20
20
F8
ENDCHAR
STARTCHAR 074
ENCODING 74
SWIDTH 576 0
DWIDTH 8 0
BBX 6 10 1 0
BITMAP
1C
08
08
08
08
08
08
88
88
70
ENDCHAR
STARTCHAR 075
ENCODING 75
SWIDTH 576 0
DWIDTH 8 0
BBX 6 10 1 0
BITMAP
84
84
88
90
A0
E0
90
88
84
84
ENDCHAR
STARTCHAR 076
ENCODING 76
SWIDTH 576 0
DWIDTH 8 0
BBX 6 10 1 0
BITMAP
80
80
80
80
80
80
80
80
80
FC
ENDCHAR
STARTCHAR 077
ENCODING 77
SWIDTH 576 0
DWIDTH 8 0
BBX 7 10 1 0
BITMAP
82
82
C6
AA
AA
92
92
82
82
82
ENDCHAR
STARTCHAR 078
ENCODING 78
SWIDTH 576 0
DWIDTH 8 0
BBX 6 10 1 0
BITMAP
84
84
C4
A4
A4
94
94
8C
84
84
ENDCHAR
STARTCHAR 079
ENCODING 79
SWIDTH 576 0
DWIDTH 8 0
BBX 6 10 1 0
BITMAP
78
84
84
84
84
84
84
84
84
78
ENDCHAR
STARTCHAR 080
ENCODING 80
SWIDTH 576 0
DWIDTH 8 0
BBX 6 10 1 0
BITMAP
F8
84
84
84
84
F8
80
80
80
80
ENDCHAR
STARTCHAR 081
ENCODING 81
SWIDTH 576 0
DWIDTH 8 0
BBX 7 11 1 -1
BITMAP
78
84
84
84
84
84
84
94
8C
78
06
ENDCHAR
STARTCHAR 082
ENCODING 82
SWIDTH 576 0
DWIDTH 8 0
BBX 6 10 1 0
BITMAP
F8
84
84
84
F8
90
88
88
84
84
ENDCHAR
STARTCHAR 083
ENCODING 83
SWIDTH 576 0
DWIDTH 8 0
BBX 6 10 1 0
BITMAP
78
84
80
80
60
18
04
04
84
78
ENDCHAR
STARTCHAR 084
ENCODING 84
SWIDTH 576 0
DWIDTH 8 0
BBX 7 10 1 0
BITMAP
FE
10
10
10
10
10
10
10
10
10
ENDCHAR
STARTCHAR 085
ENCODING 85
SWIDTH 576 0
DWIDTH 8 0
BBX 6 10 1 0
BITMAP
84
84
84
84
84
84
84
84
84
78
ENDCHAR
STARTCHAR 086
ENCODING 86
SWIDTH 576 0
DWIDTH 8 0
BBX 7 10 1 0
BITMAP
82
82
84
44
44
48
28
28
30
10
ENDCHAR
STARTCHAR 087
ENCODING 87
SWIDTH 576 0
DWIDTH 8 0
BBX 7 10 1 0
BITMAP
82
82
92
92
92
AA
AA
44
44
44
ENDCHAR
STARTCHAR 088
ENCODING 88
SWIDTH 576 0
DWIDTH 8 0
BBX 6 10 1 0
BITMAP
84
84
48
48
30
30
48
48
84
84
ENDCHAR
STARTCHAR 089
ENCODING 89
SWIDTH 576 0
DWIDTH 8 0
BBX 7 10 1 0
BITMAP
82
44
44
28
28
10
10
10
10
10
ENDCHAR
STARTCHAR 090
ENCODING 90
SWIDTH 576 0
DWIDTH 8 0
BBX 6 10 1 0
BITMAP
FC
04
08
10
10
20
40
40
80
FC
ENDCHAR
STARTCHAR 091
ENCODING 91
SWIDTH 576 0
DWIDTH 8 0
BBX 4 12 2 -1
BITMAP
F0
80
80
80
80
80
80
80
80
80
80
F0
ENDCHAR
STARTCHAR 092
ENCODING 92
SWIDTH 576 0
DWIDTH 8 0
BBX 6 12 1 -1
BITMAP
80
80
40
40
20
20
10
10
08
08
04
04
ENDCHAR
STARTCHAR 093
ENCODING 93
SWIDTH 576 0
DWIDTH 8 0
BBX 4 12 2 -1
BITMAP
F0
10
10
10
10
10
10
10
10
10
10
F0
ENDCHAR
STARTCHAR 094
ENCODING 94
SWIDTH 576 0
DWIDTH 8 0
BBX 7 4 1 6
BITMAP
10
28
44
82
ENDCHAR
STARTCHAR 095
ENCODING 95
SWIDTH 576 0
DWIDTH 8 0
BBX 6 1 1 0
BITMAP
FC
ENDCHAR
STARTCHAR 096
ENCODING 96
SWIDTH 576 0
DWIDTH 8 0
BBX 3 4 3 7
BITMAP
C0
C0
40
20
ENDCHAR
STARTCHAR 097
ENCODING 97
SWIDTH 576 0
DWIDTH 8 0
BBX 6 7 1 0
BITMAP
78
04
04
7C
84
8C
74
ENDCHAR
STARTCHAR 098
ENCODING 98
SWIDTH 576 0
DWIDTH 8 0
BBX 6 10 1 0
BITMAP
80
80
80
B8
C4
84
84
84
C4
B8
ENDCHAR
STARTCHAR 099
ENCODING 99
SWIDTH 576 0
DWIDTH 8 0
BBX 6 7 1 0
BITMAP
78
84
80
80
80
84
78
ENDCHAR
STARTCHAR 100
ENCODING 100
SWIDTH 576 0
DWIDTH 8 0
BBX 6 10 1 0
BITMAP
04
04
04
74
8C
84
84
84
8C
74
ENDCHAR
STARTCHAR 101
ENCODING 101
SWIDTH 576 0
DWIDTH 8 0
BBX 6 7 1 0
BITMAP
78
84
84
FC
80
80
78
ENDCHAR
STARTCHAR 102
ENCODING 102
SWIDTH 576 0
DWIDTH 8 0
BBX 6 10 1 0
BITMAP
1C
24
20
20
F8
20
20
20
20
20
ENDCHAR
STARTCHAR 103
ENCODING 103
SWIDTH 576 0
DWIDTH 8 0
BBX 6 10 1 -3
BITMAP
74
88
88
88
70
80
78
84
84
78
ENDCHAR
STARTCHAR 104
ENCODING 104
SWIDTH 576 0
DWIDTH 8 0
BBX 6 10 1 0
BITMAP
80
80
80
B8
C4
84
84
84
84
84
ENDCHAR
STARTCHAR 105
ENCODING 105
SWIDTH 576 0
DWIDTH 8 0
BBX 5 10 2 0
BITMAP
20
20
00
60
20
20
20
20
20
F8
ENDCHAR
STARTCHAR 106
ENCODING 106
SWIDTH 576 0
DWIDTH 8 0
BBX 5 13 1 -3
BITMAP
08
08
00
38
08
08
08
08
08
08
88
88
70
ENDCHAR
STARTCHAR 107
ENCODING 107
SWIDTH 576 0
DWIDTH 8 0
BBX 6 10 1 0
BITMAP
80
80
80
84
88
90
E0
90
88
84
ENDCHAR
STARTCHAR 108
ENCODING 108
SWIDTH 576 0
DWIDTH 8 0
BBX 5 10 2 0
BITMAP
60
20
20
20
20
20
20
20
20
F8
ENDCHAR
STARTCHAR 109
ENCODING 109
SWIDTH 576 0
DWIDTH 8 0
BBX 7 7 1 0
BITMAP
EC
92
92
92
92
92
92
ENDCHAR
STARTCHAR 110
ENCODING 110
SWIDTH 576 0
DWIDTH 8 0
BBX 6 7 1 0
BITMAP
B8
C4
84
84
84
84
84
ENDCHAR
STARTCHAR 111
ENCODING 111
SWIDTH 576 0
DWIDTH 8 0
BBX 6 7 1 0
BITMAP
78
84
84
84
84
84
78
ENDCHAR
STARTCHAR 112
ENCODING 112
SWIDTH 576 0
DWIDTH 8 0
BBX 6 10 1 -3
BITMAP
B8
C4
84
84
84
C4
B8
80
80
80
ENDCHAR
STARTCHAR 113
ENCODING 113
SWIDTH 576 0
DWIDTH 8 0
BBX 6 10 1 -3
BITMAP
74
8C
84
84
84
8C
74
04
04
04
ENDCHAR
STARTCHAR 114
ENCODING 114
SWIDTH 576 0
DWIDTH 8 0
BBX 6 7 1 0
BITMAP
DC
64
40
40
40
40
40
ENDCHAR
STARTCHAR 115
ENCODING 115
SWIDTH 576 0
DWIDTH 8 0
BBX 6 7 1 0
BITMAP
78
84
80
78
04
84
78
ENDCHAR
STARTCHAR 116
ENCODING 116
SWIDTH 576 0
DWIDTH 8 0
BBX 6 9 1 0
BITMAP
20
20
F8
20
20
20
20
24
18
ENDCHAR
STARTCHAR 117
ENCODING 117
SWIDTH 576 0
DWIDTH 8 0
BBX 6 7 1 0
BITMAP
84
84
84
84
84
8C
74
ENDCHAR
STARTCHAR 118
ENCODING 118
SWIDTH 576 0
DWIDTH 8 0
BBX 6 7 1 0
BITMAP
84
84
84
48
48
30
30
ENDCHAR
STARTCHAR 119
ENCODING 119
SWIDTH 576 0
DWIDTH 8 0
BBX 7 7 1 0
BITMAP
82
92
92
92
6C
44
44
ENDCHAR
STARTCHAR 120
ENCODING 120
SWIDTH 576 0
DWIDTH 8 0
BBX 6 7 1 0
BITMAP
84
84
48
30
48
84
84
ENDCHAR
STARTCHAR 121
ENCODING 121
SWIDTH 576 0
DWIDTH 8 0
BBX 6 10 1 -3
BITMAP
84
84
44
48
28
28
10
10
A0
40
ENDCHAR
STARTCHAR 122
ENCODING 122
SWIDTH 576 0
DWIDTH 8 0
BBX 6 7 1 0
BITMAP
FC
08
10
20
40
80
FC
ENDCHAR
STARTCHAR 123
ENCODING 123
SWIDTH 576 0
DWIDTH 8 0
BBX 5 12 2 -1
BITMAP
18
20
20
20
20
C0
C0
20
20
20
20
18
ENDCHAR
STARTCHAR 124
ENCODING 124
SWIDTH 576 0
DWIDTH 8 0
BBX 1 12 4 -1
BITMAP
80
80
80
80
80
80
80
80
80
80
80
80
ENDCHAR
STARTCHAR 125
ENCODING 125
SWIDTH 576 0
DWIDTH 8 0
BBX 5 12 1 -1
BITMAP
C0
20
20
20
20
18
18
20
20
20
20
C0
ENDCHAR
STARTCHAR 126
ENCODING 126
SWIDTH 576 0
DWIDTH 8 0
BBX 6 3 1 7
BITMAP
64
B4
98
ENDCHAR
STARTCHAR 127
ENCODING 127
SWIDTH 72 0
DWIDTH 1 0
BBX 0 0 0 0
BITMAP
ENDCHAR
STARTCHAR 128
ENCODING 128
SWIDTH 72 0
DWIDTH 1 0
BBX 0 0 0 0
BITMAP
ENDCHAR
STARTCHAR 129
ENCODING 129
SWIDTH 72 0
DWIDTH 1 0
BBX 0 0 0 0
BITMAP
ENDCHAR
STARTCHAR 130
ENCODING 130
SWIDTH 72 0
DWIDTH 1 0
BBX 0 0 0 0
BITMAP
ENDCHAR
STARTCHAR 131
ENCODING 131
SWIDTH 72 0
DWIDTH 1 0
BBX 0 0 0 0
BITMAP
ENDCHAR
STARTCHAR 132
ENCODING 132
SWIDTH 72 0
DWIDTH 1 0
BBX 0 0 0 0
BITMAP
ENDCHAR
STARTCHAR 133
ENCODING 133
SWIDTH 72 0
DWIDTH 1 0
BBX 0 0 0 0
BITMAP
ENDCHAR
STARTCHAR 134
ENCODING 134
SWIDTH 72 0
DWIDTH 1 0
BBX 0 0 0 0
BITMAP
ENDCHAR
STARTCHAR 135
ENCODING 135
SWIDTH 72 0
DWIDTH 1 0
BBX 0 0 0 0
BITMAP
ENDCHAR
STARTCHAR 136
ENCODING 136
SWIDTH 72 0
DWIDTH 1 0
BBX 0 0 0 0
BITMAP
ENDCHAR
STARTCHAR 137
ENCODING 137
SWIDTH 72 0
DWIDTH 1 0
BBX 0 0 0 0
BITMAP
ENDCHAR
STARTCHAR 138
ENCODING 138
SWIDTH 72 0
DWIDTH 1 0
BBX 0 0 0 0
BITMAP
ENDCHAR
STARTCHAR 139
ENCODING 139
SWIDTH 72 0
DWIDTH 1 0
BBX 0 0 0 0
BITMAP
ENDCHAR
STARTCHAR 140
ENCODING 140
SWIDTH 72 0
DWIDTH 1 0
BBX 0 0 0 0
BITMAP
ENDCHAR
STARTCHAR 141
ENCODING 141
SWIDTH 72 0
DWIDTH 1 0
BBX 0 0 0 0
BITMAP
ENDCHAR
STARTCHAR 142
ENCODING 142
SWIDTH 72 0
DWIDTH 1 0
BBX 0 0 0 0
BITMAP
ENDCHAR
STARTCHAR 143
ENCODING 143
SWIDTH 72 0
DWIDTH 1 0
BBX 0 0 0 0
BITMAP
ENDCHAR
STARTCHAR 144
ENCODING 144
SWIDTH 72 0
DWIDTH 1 0
BBX 0 0 0 0
BITMAP
ENDCHAR
STARTCHAR 145
ENCODING 145
SWIDTH 72 0
DWIDTH 1 0
BBX 0 0 0 0
BITMAP
ENDCHAR
STARTCHAR 146
ENCODING 146
SWIDTH 72 0
DWIDTH 1 0
BBX 0 0 0 0
BITMAP
ENDCHAR
STARTCHAR 147
ENCODING 147
SWIDTH 72 0
DWIDTH 1 0
BBX 0 0 0 0
BITMAP
ENDCHAR
STARTCHAR 148
ENCODING 148
SWIDTH 72 0
DWIDTH 1 0
BBX 0 0 0 0
BITMAP
ENDCHAR
STARTCHAR 149
ENCODING 149
SWIDTH 72 0
DWIDTH 1 0
BBX 0 0 0 0
BITMAP
ENDCHAR
STARTCHAR 150
ENCODING 150
SWIDTH 72 0
DWIDTH 1 0
BBX 0 0 0 0
BITMAP
ENDCHAR
STARTCHAR 151
ENCODING 151
SWIDTH 72 0
DWIDTH 1 0
BBX 0 0 0 0
BITMAP
ENDCHAR
STARTCHAR 152
ENCODING 152
SWIDTH 72 0
DWIDTH 1 0
BBX 0 0 0 0
BITMAP
ENDCHAR
STARTCHAR 153
ENCODING 153
SWIDTH 72 0
DWIDTH 1 0
BBX 0 0 0 0
BITMAP
ENDCHAR
STARTCHAR 154
ENCODING 154
SWIDTH 72 0
DWIDTH 1 0
BBX 0 0 0 0
BITMAP
ENDCHAR
STARTCHAR 155
ENCODING 155
SWIDTH 72 0
DWIDTH 1 0
BBX 0 0 0 0
BITMAP
ENDCHAR
STARTCHAR 156
ENCODING 156
SWIDTH 72 0
DWIDTH 1 0
BBX 0 0 0 0
BITMAP
ENDCHAR
STARTCHAR 157
ENCODING 157
SWIDTH 72 0
DWIDTH 1 0
BBX 0 0 0 0
BITMAP
ENDCHAR
STARTCHAR 158
ENCODING 158
SWIDTH 72 0
DWIDTH 1 0
BBX 0 0 0 0
BITMAP
ENDCHAR
STARTCHAR 159
ENCODING 159
SWIDTH 72 0
DWIDTH 1 0
BBX 0 0 0 0
BITMAP
ENDCHAR
STARTCHAR 160
ENCODING 160
SWIDTH 576 0
DWIDTH 8 0
BBX 6 3 1 0
BITMAP
84
84
FC
ENDCHAR
STARTCHAR 161
ENCODING 161
SWIDTH 576 0
DWIDTH 8 0
BBX 1 10 4 -3
BITMAP
80
80
00
80
80
80
80
80
80
80
ENDCHAR
STARTCHAR 162
ENCODING 162
SWIDTH 576 0
DWIDTH 8 0
BBX 6 9 1 -1
BITMAP
04
78
8C
90
90
A0
A4
78
40
ENDCHAR
STARTCHAR 163
ENCODING 163
SWIDTH 576 0
DWIDTH 8 0
BBX 6 10 1 0
BITMAP
38
44
44
40
40
F0
40
40
84
FC
ENDCHAR
STARTCHAR 164
ENCODING 164
SWIDTH 576 0
DWIDTH 8 0
BBX 6 6 1 2
BITMAP
84
78
48
48
78
84
ENDCHAR
STARTCHAR 165
ENCODING 165
SWIDTH 576 0
DWIDTH 8 0
BBX 7 10 1 0
BITMAP
82
44
44
28
7C
10
7C
10
10
10
ENDCHAR
STARTCHAR 166
ENCODING 166
SWIDTH 576 0
DWIDTH 8 0
BBX 1 12 4 -1
BITMAP
80
80
80
80
80
00
00
80
80
80
80
80
ENDCHAR
STARTCHAR 167
ENCODING 167
SWIDTH 576 0
DWIDTH 8 0
BBX 4 13 2 -3
BITMAP
60
90
80
40
60
90
90
90
60
20
10
90
60
ENDCHAR
STARTCHAR 168
ENCODING 168
SWIDTH 576 0
DWIDTH 8 0
BBX 4 2 2 9
BITMAP
90
90
ENDCHAR
STARTCHAR 169
ENCODING 169
SWIDTH 576 0
DWIDTH 8 0
BBX 8 10 0 0
BITMAP
3C
42
99
A5
A1
A1
A5
99
42
3C
ENDCHAR
STARTCHAR 170
ENCODING 170
SWIDTH 576 0
DWIDTH 8 0
BBX 5 7 2 3
BITMAP
70
08
78
88
78
00
F8
ENDCHAR
STARTCHAR 171
ENCODING 171
SWIDTH 576 0
DWIDTH 8 0
BBX 6 5 1 2
BITMAP
24
48
90
48
24
ENDCHAR
STARTCHAR 172
ENCODING 172
SWIDTH 576 0
DWIDTH 8 0
BBX 6 4 1 2
BITMAP
FC
04
04
04
ENDCHAR
STARTCHAR 173
ENCODING 173
SWIDTH 576 0
DWIDTH 8 0
BBX 4 1 2 4
BITMAP
F0
ENDCHAR
STARTCHAR 174
ENCODING 174
SWIDTH 576 0
DWIDTH 8 0
BBX 8 10 0 0
BITMAP
3C
42
B9
A5
A5
B9
A9
A5
42
3C
ENDCHAR
STARTCHAR 175
ENCODING 175
SWIDTH 576 0
DWIDTH 8 0
BBX 6 1 1 9
BITMAP
FC
ENDCHAR
STARTCHAR 176
ENCODING 176
SWIDTH 576 0
DWIDTH 8 0
BBX 4 4 2 6
BITMAP
60
90
90
60
ENDCHAR
STARTCHAR MPlusMinus
ENCODING 177
SWIDTH 960 0
DWIDTH 8 0
BBX 8 16 0 -4
BITMAP
00
00
00
08
08
08
7f
08
08
08
00
7f
00
00
00
00
ENDCHAR
STARTCHAR 178
ENCODING 178
SWIDTH 576 0
DWIDTH 8 0
BBX 5 7 2 4
BITMAP
70
88
08
10
20
40
F8
ENDCHAR
STARTCHAR 179
ENCODING 179
SWIDTH 576 0
DWIDTH 8 0
BBX 5 7 2 4
BITMAP
70
88
08
30
08
88
70
ENDCHAR
STARTCHAR 180
ENCODING 180
SWIDTH 576 0
DWIDTH 8 0
BBX 3 4 3 7
BITMAP
20
20
40
80
ENDCHAR
STARTCHAR 181
ENCODING 181
SWIDTH 576 0
DWIDTH 8 0
BBX 6 10 1 -3
BITMAP
84
84
84
84
84
CC
B4
80
80
80
ENDCHAR
STARTCHAR 182
ENCODING 182
SWIDTH 576 0
DWIDTH 8 0
BBX 6 10 1 0
BITMAP
7C
94
94
94
74
14
14
14
14
14
ENDCHAR
STARTCHAR 183
ENCODING 183
SWIDTH 576 0
DWIDTH 8 0
BBX 2 2 3 4
BITMAP
C0
C0
ENDCHAR
STARTCHAR 184
ENCODING 184
SWIDTH 576 0
DWIDTH 8 0
BBX 3 4 2 -3
BITMAP
40
60
20
C0
ENDCHAR
STARTCHAR 185
ENCODING 185
SWIDTH 576 0
DWIDTH 8 0
BBX 3 7 2 4
BITMAP
20
60
A0
20
20
20
20
ENDCHAR
STARTCHAR 186
ENCODING 186
SWIDTH 576 0
DWIDTH 8 0
BBX 5 7 2 3
BITMAP
70
88
88
88
70
00
F8
ENDCHAR
STARTCHAR 187
ENCODING 187
SWIDTH 576 0
DWIDTH 8 0
BBX 6 5 1 2
BITMAP
90
48
24
48
90
ENDCHAR
STARTCHAR 188
ENCODING 188
SWIDTH 576 0
DWIDTH 8 0
BBX 7 12 1 -1
BITMAP
40
C2
44
44
48
50
14
2C
54
54
9E
04
ENDCHAR
STARTCHAR 189
ENCODING 189
SWIDTH 576 0
DWIDTH 8 0
BBX 7 12 1 -1
BITMAP
40
C2
44
44
48
50
1C
32
42
4C
90
1E
ENDCHAR
STARTCHAR 190
ENCODING 190
SWIDTH 576 0
DWIDTH 8 0
BBX 7 12 1 -1
BITMAP
60
92
24
14
98
68
14
2C
54
54
9E
04
ENDCHAR
STARTCHAR 191
ENCODING 191
SWIDTH 576 0
DWIDTH 8 0
BBX 6 10 1 -3
BITMAP
10
10
00
10
20
40
80
84
84
78
ENDCHAR
STARTCHAR 192
ENCODING 192
SWIDTH 576 0
DWIDTH 8 0
BBX 6 12 1 0
BITMAP
40
30
00
30
30
48
48
84
FC
84
84
84
ENDCHAR
STARTCHAR 193
ENCODING 193
SWIDTH 576 0
DWIDTH 8 0
BBX 6 12 1 0
BITMAP
08
30
00
30
30
48
48
84
FC
84
84
84
ENDCHAR
STARTCHAR 194
ENCODING 194
SWIDTH 576 0
DWIDTH 8 0
BBX 6 12 1 0
BITMAP
30
48
00
30
30
48
48
84
FC
84
84
84
ENDCHAR
STARTCHAR 195
ENCODING 195
SWIDTH 576 0
DWIDTH 8 0
BBX 6 12 1 0
BITMAP
24
58
00
30
30
48
48
84
FC
84
84
84
ENDCHAR
STARTCHAR 196
ENCODING 196
SWIDTH 576 0
DWIDTH 8 0
BBX 6 12 1 0
BITMAP
48
48
00
30
30
48
48
84
FC
84
84
84
ENDCHAR
STARTCHAR 197
ENCODING 197
SWIDTH 576 0
DWIDTH 8 0
BBX 6 12 1 0
BITMAP
30
48
48
30
30
48
48
84
FC
84
84
84
ENDCHAR
STARTCHAR 198
ENCODING 198
SWIDTH 576 0
DWIDTH 8 0
BBX 8 10 0 0
BITMAP
1F
18
28
28
2E
48
78
48
88
8F
ENDCHAR
STARTCHAR 199
ENCODING 199
SWIDTH 576 0
DWIDTH 8 0
BBX 6 13 1 -3
BITMAP
38
44
80
80
80
80
80
80
44
38
10
08
30
ENDCHAR
STARTCHAR 200
ENCODING 200
SWIDTH 576 0
DWIDTH 8 0
BBX 6 12 1 0
BITMAP
40
30
00
FC
80
80
80
F0
80
80
80
FC
ENDCHAR
STARTCHAR 201
ENCODING 201
SWIDTH 576 0
DWIDTH 8 0
BBX 6 12 1 0
BITMAP
08
30
00
FC
80
80
80
F0
80
80
80
FC
ENDCHAR
STARTCHAR 202
ENCODING 202
SWIDTH 576 0
DWIDTH 8 0
BBX 6 12 1 0
BITMAP
30
48
00
FC
80
80
80
F0
80
80
80
FC
ENDCHAR
STARTCHAR 203
ENCODING 203
SWIDTH 576 0
DWIDTH 8 0
BBX 6 12 1 0
BITMAP
48
48
00
FC
80
80
80
F0
80
80
80
FC
ENDCHAR
STARTCHAR 204
ENCODING 204
SWIDTH 576 0
DWIDTH 8 0
BBX 5 12 2 0
BITMAP
40
30
00
F8
20
20
20
20
20
20
20
F8
ENDCHAR
STARTCHAR 205
ENCODING 205
SWIDTH 576 0
DWIDTH 8 0
BBX 5 12 2 0
BITMAP
10
60
00
F8
20
20
20
20
20
20
20
F8
ENDCHAR
STARTCHAR 206
ENCODING 206
SWIDTH 576 0
DWIDTH 8 0
BBX 5 12 2 0
BITMAP
30
48
00
F8
20
20
20
20
20
20
20
F8
ENDCHAR
STARTCHAR 207
ENCODING 207
SWIDTH 576 0
DWIDTH 8 0
BBX 5 12 2 0
BITMAP
48
48
00
F8
20
20
20
20
20
20
20
F8
ENDCHAR
STARTCHAR 208
ENCODING 208
SWIDTH 576 0
DWIDTH 8 0
BBX 7 10 0 0
BITMAP
78
44
42
42
F2
42
42
42
44
78
ENDCHAR
STARTCHAR 209
ENCODING 209
SWIDTH 576 0
DWIDTH 8 0
BBX 6 12 1 0
BITMAP
64
98
00
84
C4
A4
A4
94
94
8C
84
84
ENDCHAR
STARTCHAR 210
ENCODING 210
SWIDTH 576 0
DWIDTH 8 0
BBX 6 12 1 0
BITMAP
40
30
00
78
84
84
84
84
84
84
84
78
ENDCHAR
STARTCHAR 211
ENCODING 211
SWIDTH 576 0
DWIDTH 8 0
BBX 6 12 1 0
BITMAP
08
30
00
78
84
84
84
84
84
84
84
78
ENDCHAR
STARTCHAR 212
ENCODING 212
SWIDTH 576 0
DWIDTH 8 0
BBX 6 12 1 0
BITMAP
30
48
00
78
84
84
84
84
84
84
84
78
ENDCHAR
STARTCHAR 213
ENCODING 213
SWIDTH 576 0
DWIDTH 8 0
BBX 6 12 1 0
BITMAP
24
58
00
78
84
84
84
84
84
84
84
78
ENDCHAR
STARTCHAR 214
ENCODING 214
SWIDTH 576 0
DWIDTH 8 0
BBX 6 12 1 0
BITMAP
48
48
00
78
84
84
84
84
84
84
84
78
ENDCHAR
STARTCHAR 215
ENCODING 215
SWIDTH 576 0
DWIDTH 8 0
BBX 6 6 1 1
BITMAP
84
48
30
30
48
84
ENDCHAR
STARTCHAR 216
ENCODING 216
SWIDTH 576 0
DWIDTH 8 0
BBX 6 12 1 -1
BITMAP
04
74
48
8C
94
94
A4
A4
C4
48
B8
80
ENDCHAR
STARTCHAR 217
ENCODING 217
SWIDTH 576 0
DWIDTH 8 0
BBX 6 12 1 0
BITMAP
40
30
00
84
84
84
84
84
84
84
84
78
ENDCHAR
STARTCHAR 218
ENCODING 218
SWIDTH 576 0
DWIDTH 8 0
BBX 6 12 1 0
BITMAP
08
30
00
84
84
84
84
84
84
84
84
78
ENDCHAR
STARTCHAR 219
ENCODING 219
SWIDTH 576 0
DWIDTH 8 0
BBX 6 12 1 0
BITMAP
30
48
00
84
84
84
84
84
84
84
84
78
ENDCHAR
STARTCHAR 220
ENCODING 220
SWIDTH 576 0
DWIDTH 8 0
BBX 6 12 1 0
BITMAP
48
48
00
84
84
84
84
84
84
84
84
78
ENDCHAR
STARTCHAR 221
ENCODING 221
SWIDTH 576 0
DWIDTH 8 0
BBX 7 12 1 0
BITMAP
04
18
00
82
44
44
28
28
10
10
10
10
ENDCHAR
STARTCHAR 222
ENCODING 222
SWIDTH 576 0
DWIDTH 8 0
BBX 6 10 1 0
BITMAP
80
80
F8
84
84
84
84
F8
80
80
ENDCHAR
STARTCHAR 223
ENCODING 223
SWIDTH 576 0
DWIDTH 8 0
BBX 6 10 1 0
BITMAP
70
88
88
90
98
84
84
84
A4
98
ENDCHAR
STARTCHAR 224
ENCODING 224
SWIDTH 576 0
DWIDTH 8 0
BBX 6 11 1 0
BITMAP
20
20
10
00
78
04
04
7C
84
8C
74
ENDCHAR
STARTCHAR 225
ENCODING 225
SWIDTH 576 0
DWIDTH 8 0
BBX 6 11 1 0
BITMAP
10
10
20
00
78
04
04
7C
84
8C
74
ENDCHAR
STARTCHAR 226
ENCODING 226
SWIDTH 576 0
DWIDTH 8 0
BBX 6 10 1 0
BITMAP
30
48
00
78
04
04
7C
84
8C
74
ENDCHAR
STARTCHAR 227
ENCODING 227
SWIDTH 576 0
DWIDTH 8 0
BBX 6 10 1 0
BITMAP
24
58
00
78
04
04
7C
84
8C
74
ENDCHAR
STARTCHAR 228
ENCODING 228
SWIDTH 576 0
DWIDTH 8 0
BBX 6 10 1 0
BITMAP
48
48
00
78
04
04
7C
84
8C
74
ENDCHAR
STARTCHAR 229
ENCODING 229
SWIDTH 576 0
DWIDTH 8 0
BBX 6 11 1 0
BITMAP
30
48
30
00
78
04
04
7C
84
8C
74
ENDCHAR
STARTCHAR 230
ENCODING 230
SWIDTH 576 0
DWIDTH 8 0
BBX 7 7 1 0
BITMAP
EC
12
12
7E
90
90
6E
ENDCHAR
STARTCHAR 231
ENCODING 231
SWIDTH 576 0
DWIDTH 8 0
BBX 6 10 1 -3
BITMAP
78
84
80
80
80
84
78
20
10
60
ENDCHAR
STARTCHAR 232
ENCODING 232
SWIDTH 576 0
DWIDTH 8 0
BBX 6 11 1 0
BITMAP
20
20
10
00
78
84
84
FC
80
80
78
ENDCHAR
STARTCHAR 233
ENCODING 233
SWIDTH 576 0
DWIDTH 8 0
BBX 6 11 1 0
BITMAP
10
10
20
00
78
84
84
FC
80
80
78
ENDCHAR
STARTCHAR 234
ENCODING 234
SWIDTH 576 0
DWIDTH 8 0
BBX 6 10 1 0
BITMAP
30
48
00
78
84
84
FC
80
80
78
ENDCHAR
STARTCHAR 235
ENCODING 235
SWIDTH 576 0
DWIDTH 8 0
BBX 6 10 1 0
BITMAP
48
48
00
78
84
84
FC
80
80
78
ENDCHAR
STARTCHAR 236
ENCODING 236
SWIDTH 576 0
DWIDTH 8 0
BBX 5 11 2 0
BITMAP
40
40
20
00
60
20
20
20
20
20
F8
ENDCHAR
STARTCHAR 237
ENCODING 237
SWIDTH 576 0
DWIDTH 8 0
BBX 5 11 2 0
BITMAP
20
20
40
00
60
20
20
20
20
20
F8
ENDCHAR
STARTCHAR 238
ENCODING 238
SWIDTH 576 0
DWIDTH 8 0
BBX 5 10 2 0
BITMAP
60
90
00
60
20
20
20
20
20
F8
ENDCHAR
STARTCHAR 239
ENCODING 239
SWIDTH 576 0
DWIDTH 8 0
BBX 5 10 2 0
BITMAP
90
90
00
60
20
20
20
20
20
F8
ENDCHAR
STARTCHAR 240
ENCODING 240
SWIDTH 576 0
DWIDTH 8 0
BBX 6 10 1 0
BITMAP
90
60
90
38
44
84
84
84
84
78
ENDCHAR
STARTCHAR 241
ENCODING 241
SWIDTH 576 0
DWIDTH 8 0
BBX 6 10 1 0
BITMAP
64
98
00
B8
C4
84
84
84
84
84
ENDCHAR
STARTCHAR 242
ENCODING 242
SWIDTH 576 0
DWIDTH 8 0
BBX 6 11 1 0
BITMAP
20
20
10
00
78
84
84
84
84
84
78
ENDCHAR
STARTCHAR 243
ENCODING 243
SWIDTH 576 0
DWIDTH 8 0
BBX 6 11 1 0
BITMAP
10
10
20
00
78
84
84
84
84
84
78
ENDCHAR
STARTCHAR 244
ENCODING 244
SWIDTH 576 0
DWIDTH 8 0
BBX 6 10 1 0
BITMAP
30
48
00
78
84
84
84
84
84
78
ENDCHAR
STARTCHAR 245
ENCODING 245
SWIDTH 576 0
DWIDTH 8 0
BBX 6 10 1 0
BITMAP
24
58
00
78
84
84
84
84
84
78
ENDCHAR
STARTCHAR 246
ENCODING 246
SWIDTH 576 0
DWIDTH 8 0
BBX 6 10 1 0
BITMAP
48
48
00
78
84
84
84
84
84
78
ENDCHAR
STARTCHAR 247
ENCODING 247
SWIDTH 576 0
DWIDTH 8 0
BBX 7 9 1 0
BITMAP
10
38
10
00
FE
00
10
38
10
ENDCHAR
STARTCHAR 248
ENCODING 248
SWIDTH 576 0
DWIDTH 8 0
BBX 6 9 1 -1
BITMAP
04
78
8C
94
A4
A4
C4
78
80
ENDCHAR
STARTCHAR 249
ENCODING 249
SWIDTH 576 0
DWIDTH 8 0
BBX 6 11 1 0
BITMAP
20
20
10
00
84
84
84
84
84
8C
74
ENDCHAR
STARTCHAR 250
ENCODING 250
SWIDTH 576 0
DWIDTH 8 0
BBX 6 11 1 0
BITMAP
10
10
20
00
84
84
84
84
84
8C
74
ENDCHAR
STARTCHAR 251
ENCODING 251
SWIDTH 576 0
DWIDTH 8 0
BBX 6 10 1 0
BITMAP
30
48
00
84
84
84
84
84
8C
74
ENDCHAR
STARTCHAR 252
ENCODING 252
SWIDTH 576 0
DWIDTH 8 0
BBX 6 10 1 0
BITMAP
48
48
00
84
84
84
84
84
8C
74
ENDCHAR
STARTCHAR 253
ENCODING 253
SWIDTH 576 0
DWIDTH 8 0
BBX 6 14 1 -3
BITMAP
10
10
20
00
84
84
44
48
28
28
10
10
A0
40
ENDCHAR
STARTCHAR 254
ENCODING 254
SWIDTH 576 0
DWIDTH 8 0
BBX 6 13 1 -3
BITMAP
80
80
80
B8
C4
84
84
84
C4
B8
80
80
80
ENDCHAR
STARTCHAR 255
ENCODING 255
SWIDTH 576 0
DWIDTH 8 0
BBX 6 13 1 -3
BITMAP
48
48
00
84
84
44
48
28
28
10
10
A0
40
ENDCHAR

STARTCHAR U+011E
ENCODING 286
SWIDTH 500 0
DWIDTH 8 0
BBX 8 16 0 -2
BITMAP 
42
42
3C
00
3C
42
42
40
40
4E
42
42
46
3A
00
00
ENDCHAR
STARTCHAR U+011F
ENCODING 287
SWIDTH 500 0
DWIDTH 8 0
BBX 8 16 0 -2
BITMAP 
00
42
42
3C
00
02
3A
44
44
44
38
20
3C
42
42
3C
ENDCHAR
STARTCHAR U+0130
ENCODING 304
SWIDTH 500 0
DWIDTH 8 0
BBX 8 16 0 -2
BITMAP 
08
08
00
00
3E
08
08
08
08
08
08
08
08
3E
00
00
ENDCHAR
STARTCHAR U+0131
ENCODING 305
SWIDTH 500 0
DWIDTH 8 0
BBX 8 16 0 -2
BITMAP 
00
00
00
00
00
00
18
08
08
08
08
08
08
3E
00
00
ENDCHAR

STARTCHAR U+015E
ENCODING 350
SWIDTH 500 0
DWIDTH 8 0
BBX 8 16 0 -2
BITMAP 
00
00
00
00
3C
42
42
40
30
0C
02
42
42
3C
08
30
ENDCHAR
STARTCHAR U+015F
ENCODING 351
SWIDTH 500 0
DWIDTH 8 0
BBX 8 16 0 -2
BITMAP 
00
00
00
00
00
00
3C
42
40
30
0C
02
42
3C
08
30
ENDCHAR

STARTCHAR 937
ENCODING 937
SWIDTH 576 0
DWIDTH 8 0
BBX 8 10 0 0
BITMAP
3C
42
81
81
81
81
42
42
24
E7
ENDCHAR
STARTCHAR U+0410
ENCODING 1040
SWIDTH 500 0
DWIDTH 8 0
BBX 8 16 0 -2
BITMAP 
00
00
00
00
18
24
24
42
42
7E
42
42
42
42
00
00
ENDCHAR
STARTCHAR U+0411
ENCODING 1041
SWIDTH 500 0
DWIDTH 8 0
BBX 8 16 0 -2
BITMAP 
00
00
00
00
7C
40
40
40
7C
42
42
42
42
7C
00
00
ENDCHAR
STARTCHAR U+0412
ENCODING 1042
SWIDTH 500 0
DWIDTH 8 0
BBX 8 16 0 -2
BITMAP 
00
00
00
00
7C
42
42
42
7C
42
42
42
42
7C
00
00
ENDCHAR
STARTCHAR U+0413
ENCODING 1043
SWIDTH 500 0
DWIDTH 8 0
BBX 8 16 0 -2
BITMAP 
00
00
00
00
7E
40
40
40
40
40
40
40
40
40
00
00
ENDCHAR
STARTCHAR U+0414
ENCODING 1044
SWIDTH 500 0
DWIDTH 8 0
BBX 8 16 0 -2
BITMAP 
00
00
00
00
0E
12
12
12
22
22
22
42
42
FF
81
81
ENDCHAR
STARTCHAR U+0415
ENCODING 1045
SWIDTH 500 0
DWIDTH 8 0
BBX 8 16 0 -2
BITMAP 
00
00
00
00
7E
40
40
40
7C
40
40
40
40
7E
00
00
ENDCHAR
STARTCHAR U+0416
ENCODING 1046
SWIDTH 500 0
DWIDTH 8 0
BBX 8 16 0 -2
BITMAP 
00
00
00
00
49
49
2A
2A
1C
1C
2A
2A
49
49
00
00
ENDCHAR
STARTCHAR U+0417
ENCODING 1047
SWIDTH 500 0
DWIDTH 8 0
BBX 8 16 0 -2
BITMAP 
00
00
00
00
3C
42
02
02
3C
04
02
02
42
3C
00
00
ENDCHAR
STARTCHAR U+0418
ENCODING 1048
SWIDTH 500 0
DWIDTH 8 0
BBX 8 16 0 -2
BITMAP 
00
00
00
00
42
46
46
4A
4A
52
52
62
62
42
00
00
ENDCHAR
STARTCHAR U+0419
ENCODING 1049
SWIDTH 500 0
DWIDTH 8 0
BBX 8 16 0 -2
BITMAP 
00
24
18
00
42
46
46
4A
4A
52
52
62
62
42
00
00
ENDCHAR
STARTCHAR U+041A
ENCODING 1050
SWIDTH 500 0
DWIDTH 8 0
BBX 8 16 0 -2
BITMAP 
00
00
00
00
46
48
48
50
50
60
50
48
44
42
00
00
ENDCHAR
STARTCHAR U+041B
ENCODING 1051
SWIDTH 500 0
DWIDTH 8 0
BBX 8 16 0 -2
BITMAP 
00
00
00
00
1E
12
12
12
12
12
12
22
22
42
00
00
ENDCHAR
STARTCHAR U+041C
ENCODING 1052
SWIDTH 500 0
DWIDTH 8 0
BBX 8 16 0 -2
BITMAP 
00
00
00
00
42
42
66
66
5A
5A
42
42
42
42
00
00
ENDCHAR
STARTCHAR U+041D
ENCODING 1053
SWIDTH 500 0
DWIDTH 8 0
BBX 8 16 0 -2
BITMAP 
00
00
00
00
42
42
42
42
7E
42
42
42
42
42
00
00
ENDCHAR
STARTCHAR U+041E
ENCODING 1054
SWIDTH 500 0
DWIDTH 8 0
BBX 8 16 0 -2
BITMAP 
00
00
00
00
3C
42
42
42
42
42
42
42
42
3C
00
00
ENDCHAR
STARTCHAR U+041F
ENCODING 1055
SWIDTH 500 0
DWIDTH 8 0
BBX 8 16 0 -2
BITMAP 
00
00
00
00
7E
42
42
42
42
42
42
42
42
42
00
00
ENDCHAR
STARTCHAR U+0420
ENCODING 1056
SWIDTH 500 0
DWIDTH 8 0
BBX 8 16 0 -2
BITMAP 
00
00
00
00
7C
42
42
42
7C
40
40
40
40
40
00
00
ENDCHAR
STARTCHAR U+0421
ENCODING 1057
SWIDTH 500 0
DWIDTH 8 0
BBX 8 16 0 -2
BITMAP 
00
00
00
00
3C
42
42
40
40
40
40
42
42
3C
00
00
ENDCHAR
STARTCHAR U+0422
ENCODING 1058
SWIDTH 500 0
DWIDTH 8 0
BBX 8 16 0 -2
BITMAP 
00
00
00
00
7F
08
08
08
08
08
08
08
08
08
00
00
ENDCHAR
STARTCHAR U+0423
ENCODING 1059
SWIDTH 500 0
DWIDTH 8 0
BBX 8 16 0 -2
BITMAP 
00
00
00
00
41
41
22
22
14
14
08
08
10
30
00
00
ENDCHAR
STARTCHAR U+0424
ENCODING 1060
SWIDTH 500 0
DWIDTH 8 0
BBX 8 16 0 -2
BITMAP 
00
00
00
08
3E
49
49
49
49
49
3E
08
08
08
00
00
ENDCHAR
STARTCHAR U+0425
ENCODING 1061
SWIDTH 500 0
DWIDTH 8 0
BBX 8 16 0 -2
BITMAP 
00
00
00
00
42
42
24
24
18
18
24
24
42
42
00
00
ENDCHAR
STARTCHAR U+0426
ENCODING 1062
SWIDTH 500 0
DWIDTH 8 0
BBX 8 16 0 -2
BITMAP 
00
00
00
00
42
42
42
42
42
42
42
42
42
7F
01
01
ENDCHAR
STARTCHAR U+0427
ENCODING 1063
SWIDTH 500 0
DWIDTH 8 0
BBX 8 16 0 -2
BITMAP 
00
00
00
00
42
42
42
42
42
46
3A
02
02
02
00
00
ENDCHAR
STARTCHAR U+0428
ENCODING 1064
SWIDTH 500 0
DWIDTH 8 0
BBX 8 16 0 -2
BITMAP 
00
00
00
00
49
49
49
49
49
49
49
49
49
7F
00
00
ENDCHAR
STARTCHAR U+0429
ENCODING 1065
SWIDTH 500 0
DWIDTH 8 0
BBX 8 16 0 -2
BITMAP 
00
00
00
00
92
92
92
92
92
92
92
92
92
FF
01
01
ENDCHAR
STARTCHAR U+042A
ENCODING 1066
SWIDTH 500 0
DWIDTH 8 0
BBX 8 16 0 -2
BITMAP 
00
00
00
00
70
10
10
10
1E
11
11
11
11
1E
00
00
ENDCHAR
STARTCHAR U+042B
ENCODING 1067
SWIDTH 500 0
DWIDTH 8 0
BBX 8 16 0 -2
BITMAP 
00
00
00
00
42
42
42
42
72
4A
4A
4A
4A
72
00
00
ENDCHAR
STARTCHAR U+042C
ENCODING 1068
SWIDTH 500 0
DWIDTH 8 0
BBX 8 16 0 -2
BITMAP 
00
00
00
00
40
40
40
40
7C
42
42
42
42
7C
00
00
ENDCHAR
STARTCHAR U+042D
ENCODING 1069
SWIDTH 500 0
DWIDTH 8 0
BBX 8 16 0 -2
BITMAP 
00
00
00
00
38
44
02
02
3E
02
02
02
44
38
00
00
ENDCHAR
STARTCHAR U+042E
ENCODING 1070
SWIDTH 500 0
DWIDTH 8 0
BBX 8 16 0 -2
BITMAP 
00
00
00
00
4C
52
52
52
72
52
52
52
52
4C
00
00
ENDCHAR
STARTCHAR U+042F
ENCODING 1071
SWIDTH 500 0
DWIDTH 8 0
BBX 8 16 0 -2
BITMAP 
00
00
00
00
3E
42
42
42
3E
12
22
22
42
42
00
00
ENDCHAR
STARTCHAR U+0430
ENCODING 1072
SWIDTH 500 0
DWIDTH 8 0
BBX 8 16 0 -2
BITMAP 
00
00
00
00
00
00
3C
42
02
3E
42
42
46
3A
00
00
ENDCHAR
STARTCHAR U+0431
ENCODING 1073
SWIDTH 500 0
DWIDTH 8 0
BBX 8 16 0 -2
BITMAP 
00
00
02
1C
20
40
7C
42
42
42
42
42
42
3C
00
00
ENDCHAR
STARTCHAR U+0432
ENCODING 1074
SWIDTH 500 0
DWIDTH 8 0
BBX 8 16 0 -2
BITMAP 
00
00
00
00
00
00
7C
42
42
7C
42
42
42
7C
00
00
ENDCHAR
STARTCHAR U+0433
ENCODING 1075
SWIDTH 500 0
DWIDTH 8 0
BBX 8 16 0 -2
BITMAP 
00
00
00
00
00
00
7E
40
40
40
40
40
40
40
00
00
ENDCHAR
STARTCHAR U+0434
ENCODING 1076
SWIDTH 500 0
DWIDTH 8 0
BBX 8 16 0 -2
BITMAP 
00
00
00
00
00
00
1E
12
22
22
42
42
42
7F
41
00
ENDCHAR
STARTCHAR U+0435
ENCODING 1077
SWIDTH 500 0
DWIDTH 8 0
BBX 8 16 0 -2
BITMAP 
00
00
00
00
00
00
3C
42
42
7E
40
40
42
3C
00
00
ENDCHAR
STARTCHAR U+0436
ENCODING 1078
SWIDTH 500 0
DWIDTH 8 0
BBX 8 16 0 -2
BITMAP 
00
00
00
00
00
00
49
49
2A
1C
1C
2A
49
49
00
00
ENDCHAR
STARTCHAR U+0437
ENCODING 1079
SWIDTH 500 0
DWIDTH 8 0
BBX 8 16 0 -2
BITMAP 
00
00
00
00
00
00
3C
42
02
3C
04
02
42
3C
00
00
ENDCHAR
STARTCHAR U+0438
ENCODING 1080
SWIDTH 500 0
DWIDTH 8 0
BBX 8 16 0 -2
BITMAP 
00
00
00
00
00
00
46
46
4A
4A
52
52
62
62
00
00
ENDCHAR
STARTCHAR U+0439
ENCODING 1081
SWIDTH 500 0
DWIDTH 8 0
BBX 8 16 0 -2
BITMAP 
00
00
24
18
00
00
46
46
4A
4A
52
52
62
62
00
00
ENDCHAR
STARTCHAR U+043A
ENCODING 1082
SWIDTH 500 0
DWIDTH 8 0
BBX 8 16 0 -2
BITMAP 
00
00
00
00
00
00
46
48
50
60
50
48
44
42
00
00
ENDCHAR
STARTCHAR U+043B
ENCODING 1083
SWIDTH 500 0
DWIDTH 8 0
BBX 8 16 0 -2
BITMAP 
00
00
00
00
00
00
1E
12
12
12
12
22
22
42
00
00
ENDCHAR
STARTCHAR U+043C
ENCODING 1084
SWIDTH 500 0
DWIDTH 8 0
BBX 8 16 0 -2
BITMAP 
00
00
00
00
00
00
42
66
66
5A
5A
42
42
42
00
00
ENDCHAR
STARTCHAR U+043D
ENCODING 1085
SWIDTH 500 0
DWIDTH 8 0
BBX 8 16 0 -2
BITMAP 
00
00
00
00
00
00
42
42
42
7E
42
42
42
42
00
00
ENDCHAR
STARTCHAR U+043E
ENCODING 1086
SWIDTH 500 0
DWIDTH 8 0
BBX 8 16 0 -2
BITMAP 
00
00
00
00
00
00
3C
42
42
42
42
42
42
3C
00
00
ENDCHAR
STARTCHAR U+043F
ENCODING 1087
SWIDTH 500 0
DWIDTH 8 0
BBX 8 16 0 -2
BITMAP 
00
00
00
00
00
00
7E
42
42
42
42
42
42
42
00
00
ENDCHAR
STARTCHAR U+0440
ENCODING 1088
SWIDTH 500 0
DWIDTH 8 0
BBX 8 16 0 -2
BITMAP 
00
00
00
00
00
00
5C
62
42
42
42
42
62
5C
40
40
ENDCHAR
STARTCHAR U+0441
ENCODING 1089
SWIDTH 500 0
DWIDTH 8 0
BBX 8 16 0 -2
BITMAP 
00
00
00
00
00
00
3C
42
40
40
40
40
42
3C
00
00
ENDCHAR
STARTCHAR U+0442
ENCODING 1090
SWIDTH 500 0
DWIDTH 8 0
BBX 8 16 0 -2
BITMAP 
00
00
00
00
00
00
7F
08
08
08
08
08
08
08
00
00
ENDCHAR
STARTCHAR U+0443
ENCODING 1091
SWIDTH 500 0
DWIDTH 8 0
BBX 8 16 0 -2
BITMAP 
00
00
00
00
00
00
42
42
24
24
18
18
10
10
20
60
ENDCHAR
STARTCHAR U+0444
ENCODING 1092
SWIDTH 500 0
DWIDTH 8 0
BBX 8 16 0 -2
BITMAP 
00
00
00
08
08
08
3E
49
49
49
49
49
49
3E
08
08
ENDCHAR
STARTCHAR U+0445
ENCODING 1093
SWIDTH 500 0
DWIDTH 8 0
BBX 8 16 0 -2
BITMAP 
00
00
00
00
00
00
42
42
24
18
18
24
42
42
00
00
ENDCHAR
STARTCHAR U+0446
ENCODING 1094
SWIDTH 500 0
DWIDTH 8 0
BBX 8 16 0 -2
BITMAP 
00
00
00
00
00
00
42
42
42
42
42
42
42
7F
01
01
ENDCHAR
STARTCHAR U+0447
ENCODING 1095
SWIDTH 500 0
DWIDTH 8 0
BBX 8 16 0 -2
BITMAP 
00
00
00
00
00
00
42
42
42
42
46
3A
02
02
00
00
ENDCHAR
STARTCHAR U+0448
ENCODING 1096
SWIDTH 500 0
DWIDTH 8 0
BBX 8 16 0 -2
BITMAP 
00
00
00
00
00
00
49
49
49
49
49
49
49
7F
00
00
ENDCHAR
STARTCHAR U+0449
ENCODING 1097
SWIDTH 500 0
DWIDTH 8 0
BBX 8 16 0 -2
BITMAP 
00
00
00
00
00
00
92
92
92
92
92
92
92
FF
01
01
ENDCHAR
STARTCHAR U+044A
ENCODING 1098
SWIDTH 500 0
DWIDTH 8 0
BBX 8 16 0 -2
BITMAP 
00
00
00
00
00
00
70
10
10
1E
11
11
11
1E
00
00
ENDCHAR
STARTCHAR U+044B
ENCODING 1099
SWIDTH 500 0
DWIDTH 8 0
BBX 8 16 0 -2
BITMAP 
00
00
00
00
00
00
42
42
42
72
4A
4A
4A
72
00
00
ENDCHAR
STARTCHAR U+044C
ENCODING 1100
SWIDTH 500 0
DWIDTH 8 0
BBX 8 16 0 -2
BITMAP 
00
00
00
00
00
00
40
40
40
7C
42
42
42
7C
00
00
ENDCHAR
STARTCHAR U+044D
ENCODING 1101
SWIDTH 500 0
DWIDTH 8 0
BBX 8 16 0 -2
BITMAP 
00
00
00
00
00
00
38
44
02
3E
02
02
44
38
00
00
ENDCHAR
STARTCHAR U+044E
ENCODING 1102
SWIDTH 500 0
DWIDTH 8 0
BBX 8 16 0 -2
BITMAP 
00
00
00
00
00
00
4C
52
52
72
52
52
52
4C
00
00
ENDCHAR
STARTCHAR U+044F
ENCODING 1103
SWIDTH 500 0
DWIDTH 8 0
BBX 8 16 0 -2
BITMAP 
00
00
00
00
00
00
3E
42
42
42
3E
12
22
42
00
00
ENDCHAR

ENDFONT
