STARTFONT 2.1
COMMENT
COMMENT Converted from OpenType font "..\ttf\Wizzard.ttf" by "otf2bdf.exe 3.0".
COMMENT
FONT -FreeType-Wizzard-Medium-R-Normal--18-130-100-100-P-56-ISO10646-1
SIZE 13 100 100
FONTBOUNDINGBOX 10 15 0 -4
STARTPROPERTIES 19
FOUNDRY "FreeType"
FAMILY_NAME "Wizzard"
WEIGHT_NAME "Medium"
SLANT "R"
SETWIDTH_NAME "Normal"
ADD_STYLE_NAME ""
PIXEL_SIZE 18
POINT_SIZE 130
RESOLUTION_X 100
RESOLUTION_Y 100
SPACING "P"
AVERAGE_WIDTH 56
CHARSET_REGISTRY "ISO10646"
CHARSET_ENCODING "1"
FONT_ASCENT 11
FONT_DESCENT 3
COPYRIGHT "pentacom"
_OTF_FONTFILE "..\ttf\Wizzard.ttf"
_OTF_PSNAME "Wizzard"
ENDPROPERTIES
CHARS 96
STARTCHAR 0020
ENCODING 32
SWIDTH 332 0
DWIDTH 6 0
BBX 0 0 0 0
BITMAP
ENDCHAR
STARTCHAR 0021
ENCODING 33
SWIDTH 166 0
DWIDTH 3 0
BBX 1 10 1 0
BITMAP
80
80
80
80
80
80
80
00
00
80
ENDCHAR
STARTCHAR 0022
ENCODING 34
SWIDTH 221 0
DWIDTH 4 0
BBX 3 4 0 6
BITMAP
A0
A0
A0
A0
ENDCHAR
STARTCHAR 0023
ENCODING 35
SWIDTH 443 0
DWIDTH 8 0
BBX 7 10 0 0
BITMAP
24
24
24
FE
48
48
FE
48
48
48
ENDCHAR
STARTCHAR 0024
ENCODING 36
SWIDTH 387 0
DWIDTH 7 0
BBX 6 11 0 0
BITMAP
20
70
A8
A4
A0
70
2C
A4
20
70
20
ENDCHAR
STARTCHAR 0025
ENCODING 37
SWIDTH 609 0
DWIDTH 11 0
BBX 9 10 1 0
BITMAP
4200
0200
A000
A400
4400
1100
1000
0280
2280
2100
ENDCHAR
STARTCHAR 0026
ENCODING 38
SWIDTH 498 0
DWIDTH 9 0
BBX 8 10 0 0
BITMAP
30
00
44
44
30
51
00
86
86
71
ENDCHAR
STARTCHAR 0027
ENCODING 39
SWIDTH 110 0
DWIDTH 2 0
BBX 1 4 0 6
BITMAP
80
80
80
80
ENDCHAR
STARTCHAR 0028
ENCODING 40
SWIDTH 221 0
DWIDTH 4 0
BBX 3 12 0 -2
BITMAP
20
40
40
00
80
80
80
80
80
40
40
20
ENDCHAR
STARTCHAR 0029
ENCODING 41
SWIDTH 221 0
DWIDTH 4 0
BBX 3 12 0 -2
BITMAP
80
40
40
00
20
20
20
20
20
40
40
80
ENDCHAR
STARTCHAR 002A
ENCODING 42
SWIDTH 387 0
DWIDTH 7 0
BBX 6 3 0 4
BITMAP
A4
70
A4
ENDCHAR
STARTCHAR 002B
ENCODING 43
SWIDTH 387 0
DWIDTH 7 0
BBX 6 6 0 1
BITMAP
20
20
FC
20
20
20
ENDCHAR
STARTCHAR 002C
ENCODING 44
SWIDTH 166 0
DWIDTH 3 0
BBX 2 3 0 -1
BITMAP
40
40
80
ENDCHAR
STARTCHAR 002D
ENCODING 45
SWIDTH 221 0
DWIDTH 4 0
BBX 3 1 0 3
BITMAP
E0
ENDCHAR
STARTCHAR 002E
ENCODING 46
SWIDTH 166 0
DWIDTH 3 0
BBX 1 1 1 1
BITMAP
80
ENDCHAR
STARTCHAR 002F
ENCODING 47
SWIDTH 221 0
DWIDTH 4 0
BBX 3 12 0 -2
BITMAP
20
20
20
20
40
40
40
40
80
80
80
80
ENDCHAR
STARTCHAR 0030
ENCODING 48
SWIDTH 387 0
DWIDTH 7 0
BBX 6 10 0 0
BITMAP
70
00
84
84
84
84
84
84
84
70
ENDCHAR
STARTCHAR 0031
ENCODING 49
SWIDTH 276 0
DWIDTH 5 0
BBX 3 10 1 0
BITMAP
20
20
60
A0
20
20
20
20
20
20
ENDCHAR
STARTCHAR 0032
ENCODING 50
SWIDTH 387 0
DWIDTH 7 0
BBX 6 10 0 0
BITMAP
70
00
84
04
10
20
40
00
80
FC
ENDCHAR
STARTCHAR 0033
ENCODING 51
SWIDTH 387 0
DWIDTH 7 0
BBX 6 10 0 0
BITMAP
70
00
84
04
30
04
04
04
84
70
ENDCHAR
STARTCHAR 0034
ENCODING 52
SWIDTH 443 0
DWIDTH 8 0
BBX 7 10 0 0
BITMAP
04
04
1C
24
44
84
FE
04
04
04
ENDCHAR
STARTCHAR 0035
ENCODING 53
SWIDTH 387 0
DWIDTH 7 0
BBX 6 10 0 0
BITMAP
FC
80
80
80
F0
04
04
04
84
70
ENDCHAR
STARTCHAR 0036
ENCODING 54
SWIDTH 387 0
DWIDTH 7 0
BBX 6 10 0 0
BITMAP
70
00
84
80
F0
84
84
84
84
70
ENDCHAR
STARTCHAR 0037
ENCODING 55
SWIDTH 332 0
DWIDTH 6 0
BBX 5 10 0 0
BITMAP
F8
08
00
10
10
20
20
00
40
40
ENDCHAR
STARTCHAR 0038
ENCODING 56
SWIDTH 387 0
DWIDTH 7 0
BBX 6 10 0 0
BITMAP
70
00
84
84
70
84
84
84
84
70
ENDCHAR
STARTCHAR 0039
ENCODING 57
SWIDTH 387 0
DWIDTH 7 0
BBX 6 10 0 0
BITMAP
70
00
84
84
84
7C
04
04
04
70
ENDCHAR
STARTCHAR 003A
ENCODING 58
SWIDTH 166 0
DWIDTH 3 0
BBX 1 6 1 0
BITMAP
80
00
00
00
00
80
ENDCHAR
STARTCHAR 003B
ENCODING 59
SWIDTH 166 0
DWIDTH 3 0
BBX 2 8 0 -2
BITMAP
40
00
00
00
00
40
40
80
ENDCHAR
STARTCHAR 003C
ENCODING 60
SWIDTH 443 0
DWIDTH 8 0
BBX 6 6 0 0
BITMAP
0C
30
C0
30
00
0C
ENDCHAR
STARTCHAR 003D
ENCODING 61
SWIDTH 387 0
DWIDTH 7 0
BBX 6 3 0 2
BITMAP
FC
00
FC
ENDCHAR
STARTCHAR 003E
ENCODING 62
SWIDTH 443 0
DWIDTH 8 0
BBX 6 6 0 0
BITMAP
C0
30
0C
30
00
C0
ENDCHAR
STARTCHAR 003F
ENCODING 63
SWIDTH 387 0
DWIDTH 7 0
BBX 6 10 0 0
BITMAP
70
00
84
84
10
20
20
00
00
20
ENDCHAR
STARTCHAR 0040
ENCODING 64
SWIDTH 609 0
DWIDTH 11 0
BBX 9 9 1 -2
BITMAP
3E00
4100
9E80
A280
A280
A200
9F00
4080
3F00
ENDCHAR
STARTCHAR 0041
ENCODING 65
SWIDTH 498 0
DWIDTH 9 0
BBX 8 10 0 0
BITMAP
10
10
00
24
24
42
7E
00
81
81
ENDCHAR
STARTCHAR 0042
ENCODING 66
SWIDTH 443 0
DWIDTH 8 0
BBX 6 10 1 0
BITMAP
F8
88
84
84
F8
84
84
84
84
F8
ENDCHAR
STARTCHAR 0043
ENCODING 67
SWIDTH 498 0
DWIDTH 9 0
BBX 8 10 0 0
BITMAP
3E
00
41
80
80
80
80
80
41
3E
ENDCHAR
STARTCHAR 0044
ENCODING 68
SWIDTH 498 0
DWIDTH 9 0
BBX 7 10 1 0
BITMAP
F8
88
84
82
82
82
82
82
84
F8
ENDCHAR
STARTCHAR 0045
ENCODING 69
SWIDTH 443 0
DWIDTH 8 0
BBX 5 10 1 0
BITMAP
F8
80
80
80
F0
80
80
80
80
F8
ENDCHAR
STARTCHAR 0046
ENCODING 70
SWIDTH 443 0
DWIDTH 8 0
BBX 5 10 1 0
BITMAP
F8
80
80
80
F0
80
80
80
80
80
ENDCHAR
STARTCHAR 0047
ENCODING 71
SWIDTH 498 0
DWIDTH 9 0
BBX 8 10 0 0
BITMAP
3E
00
41
80
80
8F
81
81
41
3E
ENDCHAR
STARTCHAR 0048
ENCODING 72
SWIDTH 498 0
DWIDTH 9 0
BBX 7 10 1 0
BITMAP
82
82
82
82
FE
82
82
82
82
82
ENDCHAR
STARTCHAR 0049
ENCODING 73
SWIDTH 166 0
DWIDTH 3 0
BBX 1 10 1 0
BITMAP
80
80
80
80
80
80
80
80
80
80
ENDCHAR
STARTCHAR 004A
ENCODING 74
SWIDTH 276 0
DWIDTH 5 0
BBX 4 10 0 0
BITMAP
10
10
10
10
10
10
10
90
00
60
ENDCHAR
STARTCHAR 004B
ENCODING 75
SWIDTH 498 0
DWIDTH 9 0
BBX 7 10 1 0
BITMAP
84
80
90
A0
C0
A0
90
88
84
82
ENDCHAR
STARTCHAR 004C
ENCODING 76
SWIDTH 443 0
DWIDTH 8 0
BBX 5 10 1 0
BITMAP
80
80
80
80
80
80
80
80
80
F8
ENDCHAR
STARTCHAR 004D
ENCODING 77
SWIDTH 498 0
DWIDTH 9 0
BBX 7 10 1 0
BITMAP
80
82
C6
C6
AA
AA
8A
92
92
80
ENDCHAR
STARTCHAR 004E
ENCODING 78
SWIDTH 443 0
DWIDTH 8 0
BBX 6 10 1 0
BITMAP
84
84
C4
C4
A4
A4
84
8C
8C
84
ENDCHAR
STARTCHAR 004F
ENCODING 79
SWIDTH 498 0
DWIDTH 9 0
BBX 8 10 0 0
BITMAP
38
00
42
81
81
81
81
81
42
38
ENDCHAR
STARTCHAR 0050
ENCODING 80
SWIDTH 443 0
DWIDTH 8 0
BBX 6 10 1 0
BITMAP
F8
84
84
84
84
F8
80
80
80
80
ENDCHAR
STARTCHAR 0051
ENCODING 81
SWIDTH 498 0
DWIDTH 9 0
BBX 8 10 0 0
BITMAP
38
00
44
81
81
81
81
81
4C
3F
ENDCHAR
STARTCHAR 0052
ENCODING 82
SWIDTH 498 0
DWIDTH 9 0
BBX 7 10 1 0
BITMAP
FC
82
82
82
82
FC
90
88
84
82
ENDCHAR
STARTCHAR 0053
ENCODING 83
SWIDTH 443 0
DWIDTH 8 0
BBX 6 10 1 0
BITMAP
70
00
84
80
60
10
00
04
84
70
ENDCHAR
STARTCHAR 0054
ENCODING 84
SWIDTH 387 0
DWIDTH 7 0
BBX 6 10 0 0
BITMAP
FC
20
20
20
20
20
20
20
20
20
ENDCHAR
STARTCHAR 0055
ENCODING 85
SWIDTH 498 0
DWIDTH 9 0
BBX 7 10 1 0
BITMAP
82
82
82
82
82
82
82
82
00
7C
ENDCHAR
STARTCHAR 0056
ENCODING 86
SWIDTH 498 0
DWIDTH 9 0
BBX 8 10 0 0
BITMAP
81
81
00
42
42
24
24
00
10
10
ENDCHAR
STARTCHAR 0057
ENCODING 87
SWIDTH 609 0
DWIDTH 11 0
BBX 10 10 0 0
BITMAP
8440
8440
8440
8440
5280
5280
5280
5280
2100
2100
ENDCHAR
STARTCHAR 0058
ENCODING 88
SWIDTH 443 0
DWIDTH 8 0
BBX 6 10 1 0
BITMAP
84
00
50
50
20
20
00
50
50
84
ENDCHAR
STARTCHAR 0059
ENCODING 89
SWIDTH 387 0
DWIDTH 7 0
BBX 6 10 0 0
BITMAP
84
84
00
50
50
20
20
20
20
20
ENDCHAR
STARTCHAR 005A
ENCODING 90
SWIDTH 387 0
DWIDTH 7 0
BBX 6 10 0 0
BITMAP
FC
00
00
18
10
20
40
00
80
FC
ENDCHAR
STARTCHAR 005B
ENCODING 91
SWIDTH 221 0
DWIDTH 4 0
BBX 2 12 1 -2
BITMAP
C0
80
80
80
80
80
80
80
80
80
80
C0
ENDCHAR
STARTCHAR 005C
ENCODING 92
SWIDTH 221 0
DWIDTH 4 0
BBX 3 12 0 -2
BITMAP
80
80
80
80
40
40
40
40
20
20
20
20
ENDCHAR
STARTCHAR 005D
ENCODING 93
SWIDTH 166 0
DWIDTH 3 0
BBX 2 12 0 -2
BITMAP
C0
40
40
40
40
40
40
40
40
40
40
C0
ENDCHAR
STARTCHAR 005E
ENCODING 94
SWIDTH 387 0
DWIDTH 7 0
BBX 6 6 0 3
BITMAP
20
00
50
50
84
84
ENDCHAR
STARTCHAR 005F
ENCODING 95
SWIDTH 443 0
DWIDTH 8 0
BBX 7 1 0 -1
BITMAP
FE
ENDCHAR
STARTCHAR 0060
ENCODING 96
SWIDTH 166 0
DWIDTH 3 0
BBX 2 2 0 7
BITMAP
80
40
ENDCHAR
STARTCHAR 0061
ENCODING 97
SWIDTH 387 0
DWIDTH 7 0
BBX 6 6 0 0
BITMAP
70
84
7C
8C
8C
7C
ENDCHAR
STARTCHAR 0062
ENCODING 98
SWIDTH 443 0
DWIDTH 8 0
BBX 6 10 1 0
BITMAP
80
80
80
80
F8
84
84
84
84
F8
ENDCHAR
STARTCHAR 0063
ENCODING 99
SWIDTH 387 0
DWIDTH 7 0
BBX 6 6 0 0
BITMAP
70
84
80
80
84
70
ENDCHAR
STARTCHAR 0064
ENCODING 100
SWIDTH 387 0
DWIDTH 7 0
BBX 6 10 0 0
BITMAP
04
04
04
04
7C
84
84
84
84
7C
ENDCHAR
STARTCHAR 0065
ENCODING 101
SWIDTH 387 0
DWIDTH 7 0
BBX 6 6 0 0
BITMAP
70
84
FC
80
80
7C
ENDCHAR
STARTCHAR 0066
ENCODING 102
SWIDTH 221 0
DWIDTH 4 0
BBX 3 10 0 0
BITMAP
20
00
40
40
E0
40
40
40
40
40
ENDCHAR
STARTCHAR 0067
ENCODING 103
SWIDTH 387 0
DWIDTH 7 0
BBX 6 8 0 -2
BITMAP
7C
84
84
84
84
7C
0C
70
ENDCHAR
STARTCHAR 0068
ENCODING 104
SWIDTH 443 0
DWIDTH 8 0
BBX 6 10 1 0
BITMAP
80
80
80
80
F8
84
84
84
84
84
ENDCHAR
STARTCHAR 0069
ENCODING 105
SWIDTH 166 0
DWIDTH 3 0
BBX 1 8 1 0
BITMAP
80
00
80
80
80
80
80
80
ENDCHAR
STARTCHAR 006A
ENCODING 106
SWIDTH 166 0
DWIDTH 3 0
BBX 2 11 0 -2
BITMAP
40
00
00
40
40
40
40
40
40
40
80
ENDCHAR
STARTCHAR 006B
ENCODING 107
SWIDTH 332 0
DWIDTH 6 0
BBX 4 10 1 0
BITMAP
80
80
80
80
90
A0
C0
C0
A0
90
ENDCHAR
STARTCHAR 006C
ENCODING 108
SWIDTH 166 0
DWIDTH 3 0
BBX 1 10 1 0
BITMAP
80
80
80
80
80
80
80
80
80
80
ENDCHAR
STARTCHAR 006D
ENCODING 109
SWIDTH 553 0
DWIDTH 10 0
BBX 8 6 1 0
BITMAP
EC
91
91
91
91
91
ENDCHAR
STARTCHAR 006E
ENCODING 110
SWIDTH 443 0
DWIDTH 8 0
BBX 6 6 1 0
BITMAP
F8
84
84
84
84
84
ENDCHAR
STARTCHAR 006F
ENCODING 111
SWIDTH 387 0
DWIDTH 7 0
BBX 6 6 0 0
BITMAP
70
84
84
84
84
70
ENDCHAR
STARTCHAR 0070
ENCODING 112
SWIDTH 443 0
DWIDTH 8 0
BBX 6 8 1 -2
BITMAP
F8
84
84
84
84
F8
80
80
ENDCHAR
STARTCHAR 0071
ENCODING 113
SWIDTH 387 0
DWIDTH 7 0
BBX 6 8 0 -2
BITMAP
7C
84
84
84
84
7C
04
04
ENDCHAR
STARTCHAR 0072
ENCODING 114
SWIDTH 332 0
DWIDTH 6 0
BBX 4 6 1 0
BITMAP
B0
C0
80
80
80
80
ENDCHAR
STARTCHAR 0073
ENCODING 115
SWIDTH 276 0
DWIDTH 5 0
BBX 4 6 0 0
BITMAP
70
80
60
00
10
E0
ENDCHAR
STARTCHAR 0074
ENCODING 116
SWIDTH 221 0
DWIDTH 4 0
BBX 3 8 0 0
BITMAP
40
40
E0
40
40
40
40
20
ENDCHAR
STARTCHAR 0075
ENCODING 117
SWIDTH 443 0
DWIDTH 8 0
BBX 6 6 1 0
BITMAP
84
84
84
84
84
7C
ENDCHAR
STARTCHAR 0076
ENCODING 118
SWIDTH 387 0
DWIDTH 7 0
BBX 6 6 0 0
BITMAP
84
84
00
50
50
20
ENDCHAR
STARTCHAR 0077
ENCODING 119
SWIDTH 498 0
DWIDTH 9 0
BBX 8 6 0 0
BITMAP
91
91
A5
00
42
42
ENDCHAR
STARTCHAR 0078
ENCODING 120
SWIDTH 387 0
DWIDTH 7 0
BBX 6 6 0 0
BITMAP
84
50
20
00
50
84
ENDCHAR
STARTCHAR 0079
ENCODING 121
SWIDTH 387 0
DWIDTH 7 0
BBX 6 8 0 -2
BITMAP
84
84
50
50
00
20
20
C0
ENDCHAR
STARTCHAR 007A
ENCODING 122
SWIDTH 387 0
DWIDTH 7 0
BBX 6 6 0 0
BITMAP
FC
08
20
00
40
FC
ENDCHAR
STARTCHAR 007B
ENCODING 123
SWIDTH 221 0
DWIDTH 4 0
BBX 3 13 0 -4
BITMAP
20
40
40
40
40
40
80
40
40
40
40
40
20
ENDCHAR
STARTCHAR 007C
ENCODING 124
SWIDTH 166 0
DWIDTH 3 0
BBX 1 12 1 -2
BITMAP
80
80
80
80
80
80
80
80
80
80
80
80
ENDCHAR
STARTCHAR 007D
ENCODING 125
SWIDTH 221 0
DWIDTH 4 0
BBX 3 13 0 -4
BITMAP
80
40
40
40
40
40
20
40
40
40
40
40
80
ENDCHAR
STARTCHAR 007E
ENCODING 126
SWIDTH 332 0
DWIDTH 6 0
BBX 4 2 1 3
BITMAP
50
A0
ENDCHAR
STARTCHAR 00A0
ENCODING 160
SWIDTH 332 0
DWIDTH 6 0
BBX 0 0 0 0
BITMAP
ENDCHAR
ENDFONT
