STARTFONT 2.1
COMMENT
COMMENT Converted from OpenType font "..\..\ttf\Wizzard.ttf" by "otf2bdf.exe 3.0".
COMMENT
FONT -FreeType-Wizzard-Medium-R-Normal--14-100-100-100-P-44-ISO10646-1
SIZE 10 100 100
FONTBOUNDINGBOX 8 10 0 -3
STARTPROPERTIES 19
FOUNDRY "FreeType"
FAMILY_NAME "Wizzard"
WEIGHT_NAME "Medium"
SLANT "R"
SETWIDTH_NAME "Normal"
ADD_STYLE_NAME ""
PIXEL_SIZE 14
POINT_SIZE 100
RESOLUTION_X 100
RESOLUTION_Y 100
SPACING "P"
AVERAGE_WIDTH 44
CHARSET_REGISTRY "ISO10646"
CHARSET_ENCODING "1"
FONT_ASCENT 9
FONT_DESCENT 2
COPYRIGHT "pentacom"
_OTF_FONTFILE "..\..\ttf\Wizzard.ttf"
_OTF_PSNAME "Wizzard"
ENDPROPERTIES
CHARS 96
STARTCHAR 0020
ENCODING 32
SWIDTH 288 0
DWIDTH 4 0
BBX 0 0 0 0
BITMAP
ENDCHAR
STARTCHAR 0021
ENCODING 33
SWIDTH 216 0
DWIDTH 3 0
BBX 1 6 1 0
BITMAP
80
80
80
80
80
80
ENDCHAR
STARTCHAR 0022
ENCODING 34
SWIDTH 288 0
DWIDTH 4 0
BBX 3 2 0 3
BITMAP
A0
A0
ENDCHAR
STARTCHAR 0023
ENCODING 35
SWIDTH 504 0
DWIDTH 7 0
BBX 6 6 0 0
BITMAP
28
FC
50
50
FC
50
ENDCHAR
STARTCHAR 0024
ENCODING 36
SWIDTH 432 0
DWIDTH 6 0
BBX 5 7 0 0
BITMAP
20
F8
A0
78
28
70
20
ENDCHAR
STARTCHAR 0025
ENCODING 37
SWIDTH 648 0
DWIDTH 9 0
BBX 7 6 1 0
BITMAP
E8
A8
40
1A
2A
24
ENDCHAR
STARTCHAR 0026
ENCODING 38
SWIDTH 504 0
DWIDTH 7 0
BBX 6 6 0 0
BITMAP
70
50
20
98
98
64
ENDCHAR
STARTCHAR 0027
ENCODING 39
SWIDTH 144 0
DWIDTH 2 0
BBX 1 2 0 3
BITMAP
80
80
ENDCHAR
STARTCHAR 0028
ENCODING 40
SWIDTH 288 0
DWIDTH 4 0
BBX 3 8 0 -2
BITMAP
20
40
80
80
80
40
40
20
ENDCHAR
STARTCHAR 0029
ENCODING 41
SWIDTH 288 0
DWIDTH 4 0
BBX 3 8 0 -2
BITMAP
80
40
20
20
20
40
40
80
ENDCHAR
STARTCHAR 002A
ENCODING 42
SWIDTH 360 0
DWIDTH 5 0
BBX 4 3 0 3
BITMAP
B0
60
B0
ENDCHAR
STARTCHAR 002B
ENCODING 43
SWIDTH 432 0
DWIDTH 6 0
BBX 5 4 0 1
BITMAP
20
F8
20
20
ENDCHAR
STARTCHAR 002C
ENCODING 44
SWIDTH 216 0
DWIDTH 3 0
BBX 2 3 0 -2
BITMAP
40
40
80
ENDCHAR
STARTCHAR 002D
ENCODING 45
SWIDTH 216 0
DWIDTH 3 0
BBX 3 1 0 1
BITMAP
E0
ENDCHAR
STARTCHAR 002E
ENCODING 46
SWIDTH 216 0
DWIDTH 3 0
BBX 1 1 1 0
BITMAP
80
ENDCHAR
STARTCHAR 002F
ENCODING 47
SWIDTH 288 0
DWIDTH 4 0
BBX 3 6 0 -1
BITMAP
20
20
40
40
80
80
ENDCHAR
STARTCHAR 0030
ENCODING 48
SWIDTH 360 0
DWIDTH 5 0
BBX 4 6 0 0
BITMAP
F0
90
90
90
90
60
ENDCHAR
STARTCHAR 0031
ENCODING 49
SWIDTH 360 0
DWIDTH 5 0
BBX 3 6 1 0
BITMAP
60
A0
20
20
20
20
ENDCHAR
STARTCHAR 0032
ENCODING 50
SWIDTH 432 0
DWIDTH 6 0
BBX 4 6 1 0
BITMAP
F0
10
20
40
00
F0
ENDCHAR
STARTCHAR 0033
ENCODING 51
SWIDTH 360 0
DWIDTH 5 0
BBX 4 6 0 0
BITMAP
F0
10
60
10
10
E0
ENDCHAR
STARTCHAR 0034
ENCODING 52
SWIDTH 504 0
DWIDTH 7 0
BBX 6 6 0 0
BITMAP
18
28
48
88
7C
08
ENDCHAR
STARTCHAR 0035
ENCODING 53
SWIDTH 360 0
DWIDTH 5 0
BBX 4 6 0 0
BITMAP
F0
80
E0
10
90
60
ENDCHAR
STARTCHAR 0036
ENCODING 54
SWIDTH 360 0
DWIDTH 5 0
BBX 4 6 0 0
BITMAP
F0
80
E0
90
90
60
ENDCHAR
STARTCHAR 0037
ENCODING 55
SWIDTH 360 0
DWIDTH 5 0
BBX 5 6 0 0
BITMAP
F8
10
10
20
40
40
ENDCHAR
STARTCHAR 0038
ENCODING 56
SWIDTH 360 0
DWIDTH 5 0
BBX 4 6 0 0
BITMAP
F0
90
60
90
90
60
ENDCHAR
STARTCHAR 0039
ENCODING 57
SWIDTH 360 0
DWIDTH 5 0
BBX 4 6 0 0
BITMAP
F0
90
10
70
10
60
ENDCHAR
STARTCHAR 003A
ENCODING 58
SWIDTH 216 0
DWIDTH 3 0
BBX 1 4 1 0
BITMAP
80
00
00
80
ENDCHAR
STARTCHAR 003B
ENCODING 59
SWIDTH 216 0
DWIDTH 3 0
BBX 2 6 0 -2
BITMAP
40
00
00
40
40
80
ENDCHAR
STARTCHAR 003C
ENCODING 60
SWIDTH 432 0
DWIDTH 6 0
BBX 5 4 0 1
BITMAP
18
20
C0
18
ENDCHAR
STARTCHAR 003D
ENCODING 61
SWIDTH 360 0
DWIDTH 5 0
BBX 4 3 0 1
BITMAP
F0
00
F0
ENDCHAR
STARTCHAR 003E
ENCODING 62
SWIDTH 432 0
DWIDTH 6 0
BBX 5 4 0 1
BITMAP
C0
20
18
C0
ENDCHAR
STARTCHAR 003F
ENCODING 63
SWIDTH 432 0
DWIDTH 6 0
BBX 5 6 0 0
BITMAP
F8
88
10
20
20
20
ENDCHAR
STARTCHAR 0040
ENCODING 64
SWIDTH 648 0
DWIDTH 9 0
BBX 7 7 1 -1
BITMAP
38
44
9A
AA
9C
42
3C
ENDCHAR
STARTCHAR 0041
ENCODING 65
SWIDTH 504 0
DWIDTH 7 0
BBX 6 6 0 0
BITMAP
10
30
20
48
B4
84
ENDCHAR
STARTCHAR 0042
ENCODING 66
SWIDTH 432 0
DWIDTH 6 0
BBX 4 6 1 0
BITMAP
F0
90
E0
90
90
E0
ENDCHAR
STARTCHAR 0043
ENCODING 67
SWIDTH 504 0
DWIDTH 7 0
BBX 6 6 0 0
BITMAP
7C
80
80
80
44
38
ENDCHAR
STARTCHAR 0044
ENCODING 68
SWIDTH 504 0
DWIDTH 7 0
BBX 5 6 1 0
BITMAP
F0
88
88
88
90
E0
ENDCHAR
STARTCHAR 0045
ENCODING 69
SWIDTH 432 0
DWIDTH 6 0
BBX 4 6 1 0
BITMAP
F0
80
F0
80
80
F0
ENDCHAR
STARTCHAR 0046
ENCODING 70
SWIDTH 432 0
DWIDTH 6 0
BBX 4 6 1 0
BITMAP
F0
80
F0
80
80
80
ENDCHAR
STARTCHAR 0047
ENCODING 71
SWIDTH 504 0
DWIDTH 7 0
BBX 6 6 0 0
BITMAP
7C
80
80
9C
44
38
ENDCHAR
STARTCHAR 0048
ENCODING 72
SWIDTH 504 0
DWIDTH 7 0
BBX 5 6 1 0
BITMAP
88
88
F8
88
88
88
ENDCHAR
STARTCHAR 0049
ENCODING 73
SWIDTH 216 0
DWIDTH 3 0
BBX 1 6 1 0
BITMAP
80
80
80
80
80
80
ENDCHAR
STARTCHAR 004A
ENCODING 74
SWIDTH 360 0
DWIDTH 5 0
BBX 4 6 0 0
BITMAP
10
10
10
10
10
F0
ENDCHAR
STARTCHAR 004B
ENCODING 75
SWIDTH 504 0
DWIDTH 7 0
BBX 5 6 1 0
BITMAP
90
A0
C0
A0
80
88
ENDCHAR
STARTCHAR 004C
ENCODING 76
SWIDTH 432 0
DWIDTH 6 0
BBX 4 6 1 0
BITMAP
80
80
80
80
80
F0
ENDCHAR
STARTCHAR 004D
ENCODING 77
SWIDTH 648 0
DWIDTH 9 0
BBX 7 6 1 0
BITMAP
C6
C6
AE
BE
96
86
ENDCHAR
STARTCHAR 004E
ENCODING 78
SWIDTH 432 0
DWIDTH 6 0
BBX 4 6 1 0
BITMAP
D0
D0
B0
B0
90
90
ENDCHAR
STARTCHAR 004F
ENCODING 79
SWIDTH 504 0
DWIDTH 7 0
BBX 6 6 0 0
BITMAP
78
84
84
84
48
30
ENDCHAR
STARTCHAR 0050
ENCODING 80
SWIDTH 432 0
DWIDTH 6 0
BBX 4 6 1 0
BITMAP
E0
90
90
E0
80
80
ENDCHAR
STARTCHAR 0051
ENCODING 81
SWIDTH 504 0
DWIDTH 7 0
BBX 6 6 0 0
BITMAP
78
84
84
84
58
3C
ENDCHAR
STARTCHAR 0052
ENCODING 82
SWIDTH 504 0
DWIDTH 7 0
BBX 5 6 1 0
BITMAP
F0
88
88
F0
90
88
ENDCHAR
STARTCHAR 0053
ENCODING 83
SWIDTH 432 0
DWIDTH 6 0
BBX 4 6 1 0
BITMAP
F0
80
40
10
90
60
ENDCHAR
STARTCHAR 0054
ENCODING 84
SWIDTH 432 0
DWIDTH 6 0
BBX 5 6 0 0
BITMAP
F8
20
20
20
20
20
ENDCHAR
STARTCHAR 0055
ENCODING 85
SWIDTH 504 0
DWIDTH 7 0
BBX 5 6 1 0
BITMAP
88
88
88
88
88
F8
ENDCHAR
STARTCHAR 0056
ENCODING 86
SWIDTH 504 0
DWIDTH 7 0
BBX 6 6 0 0
BITMAP
84
CC
48
20
10
10
ENDCHAR
STARTCHAR 0057
ENCODING 87
SWIDTH 648 0
DWIDTH 9 0
BBX 8 6 0 0
BITMAP
81
81
5A
5A
24
24
ENDCHAR
STARTCHAR 0058
ENCODING 88
SWIDTH 504 0
DWIDTH 7 0
BBX 5 6 1 0
BITMAP
D8
50
20
70
50
88
ENDCHAR
STARTCHAR 0059
ENCODING 89
SWIDTH 360 0
DWIDTH 5 0
BBX 4 6 0 0
BITMAP
80
D0
50
20
20
20
ENDCHAR
STARTCHAR 005A
ENCODING 90
SWIDTH 432 0
DWIDTH 6 0
BBX 5 6 0 0
BITMAP
F8
10
20
20
80
F8
ENDCHAR
STARTCHAR 005B
ENCODING 91
SWIDTH 288 0
DWIDTH 4 0
BBX 2 8 1 -2
BITMAP
C0
80
80
80
80
80
80
C0
ENDCHAR
STARTCHAR 005C
ENCODING 92
SWIDTH 288 0
DWIDTH 4 0
BBX 3 6 0 -1
BITMAP
80
80
40
40
20
20
ENDCHAR
STARTCHAR 005D
ENCODING 93
SWIDTH 216 0
DWIDTH 3 0
BBX 2 8 0 -2
BITMAP
C0
40
40
40
40
40
40
C0
ENDCHAR
STARTCHAR 005E
ENCODING 94
SWIDTH 360 0
DWIDTH 5 0
BBX 4 4 0 2
BITMAP
70
50
80
80
ENDCHAR
STARTCHAR 005F
ENCODING 95
SWIDTH 432 0
DWIDTH 6 0
BBX 5 1 0 -2
BITMAP
F8
ENDCHAR
STARTCHAR 0060
ENCODING 96
SWIDTH 216 0
DWIDTH 3 0
BBX 2 2 0 4
BITMAP
80
40
ENDCHAR
STARTCHAR 0061
ENCODING 97
SWIDTH 360 0
DWIDTH 5 0
BBX 4 4 0 0
BITMAP
60
90
F0
70
ENDCHAR
STARTCHAR 0062
ENCODING 98
SWIDTH 432 0
DWIDTH 6 0
BBX 4 6 1 0
BITMAP
80
80
E0
90
90
E0
ENDCHAR
STARTCHAR 0063
ENCODING 99
SWIDTH 360 0
DWIDTH 5 0
BBX 4 4 0 0
BITMAP
70
80
80
70
ENDCHAR
STARTCHAR 0064
ENCODING 100
SWIDTH 360 0
DWIDTH 5 0
BBX 4 6 0 0
BITMAP
10
10
70
90
90
70
ENDCHAR
STARTCHAR 0065
ENCODING 101
SWIDTH 360 0
DWIDTH 5 0
BBX 5 4 0 0
BITMAP
70
88
F8
78
ENDCHAR
STARTCHAR 0066
ENCODING 102
SWIDTH 288 0
DWIDTH 4 0
BBX 3 6 0 0
BITMAP
60
40
E0
40
40
40
ENDCHAR
STARTCHAR 0067
ENCODING 103
SWIDTH 360 0
DWIDTH 5 0
BBX 4 6 0 -2
BITMAP
70
90
90
70
10
60
ENDCHAR
STARTCHAR 0068
ENCODING 104
SWIDTH 432 0
DWIDTH 6 0
BBX 4 6 1 0
BITMAP
80
80
E0
90
90
90
ENDCHAR
STARTCHAR 0069
ENCODING 105
SWIDTH 216 0
DWIDTH 3 0
BBX 1 6 1 0
BITMAP
80
00
80
80
80
80
ENDCHAR
STARTCHAR 006A
ENCODING 106
SWIDTH 216 0
DWIDTH 3 0
BBX 2 7 0 -2
BITMAP
40
40
40
40
40
40
80
ENDCHAR
STARTCHAR 006B
ENCODING 107
SWIDTH 360 0
DWIDTH 5 0
BBX 4 6 1 0
BITMAP
80
80
90
A0
E0
90
ENDCHAR
STARTCHAR 006C
ENCODING 108
SWIDTH 216 0
DWIDTH 3 0
BBX 1 6 1 0
BITMAP
80
80
80
80
80
80
ENDCHAR
STARTCHAR 006D
ENCODING 109
SWIDTH 648 0
DWIDTH 9 0
BBX 7 4 1 0
BITMAP
EC
92
92
92
ENDCHAR
STARTCHAR 006E
ENCODING 110
SWIDTH 432 0
DWIDTH 6 0
BBX 4 4 1 0
BITMAP
E0
90
90
90
ENDCHAR
STARTCHAR 006F
ENCODING 111
SWIDTH 360 0
DWIDTH 5 0
BBX 4 4 0 0
BITMAP
60
90
90
60
ENDCHAR
STARTCHAR 0070
ENCODING 112
SWIDTH 432 0
DWIDTH 6 0
BBX 4 6 1 -2
BITMAP
E0
90
90
E0
80
80
ENDCHAR
STARTCHAR 0071
ENCODING 113
SWIDTH 360 0
DWIDTH 5 0
BBX 4 6 0 -2
BITMAP
70
90
90
70
10
10
ENDCHAR
STARTCHAR 0072
ENCODING 114
SWIDTH 360 0
DWIDTH 5 0
BBX 4 4 1 0
BITMAP
B0
C0
80
80
ENDCHAR
STARTCHAR 0073
ENCODING 115
SWIDTH 288 0
DWIDTH 4 0
BBX 3 4 0 0
BITMAP
60
80
00
E0
ENDCHAR
STARTCHAR 0074
ENCODING 116
SWIDTH 288 0
DWIDTH 4 0
BBX 3 6 0 0
BITMAP
40
40
E0
40
40
20
ENDCHAR
STARTCHAR 0075
ENCODING 117
SWIDTH 432 0
DWIDTH 6 0
BBX 4 4 1 0
BITMAP
90
90
90
70
ENDCHAR
STARTCHAR 0076
ENCODING 118
SWIDTH 360 0
DWIDTH 5 0
BBX 4 4 0 0
BITMAP
80
D0
50
20
ENDCHAR
STARTCHAR 0077
ENCODING 119
SWIDTH 504 0
DWIDTH 7 0
BBX 6 4 0 0
BITMAP
94
94
48
48
ENDCHAR
STARTCHAR 0078
ENCODING 120
SWIDTH 360 0
DWIDTH 5 0
BBX 4 4 0 0
BITMAP
90
40
40
90
ENDCHAR
STARTCHAR 0079
ENCODING 121
SWIDTH 360 0
DWIDTH 5 0
BBX 4 6 0 -2
BITMAP
80
80
50
20
20
C0
ENDCHAR
STARTCHAR 007A
ENCODING 122
SWIDTH 360 0
DWIDTH 5 0
BBX 4 4 0 0
BITMAP
F0
00
40
F0
ENDCHAR
STARTCHAR 007B
ENCODING 123
SWIDTH 288 0
DWIDTH 4 0
BBX 3 9 0 -3
BITMAP
20
40
40
40
80
40
40
40
20
ENDCHAR
STARTCHAR 007C
ENCODING 124
SWIDTH 216 0
DWIDTH 3 0
BBX 1 8 1 -2
BITMAP
80
80
80
80
80
80
80
80
ENDCHAR
STARTCHAR 007D
ENCODING 125
SWIDTH 288 0
DWIDTH 4 0
BBX 3 9 0 -3
BITMAP
80
40
40
40
20
40
40
40
80
ENDCHAR
STARTCHAR 007E
ENCODING 126
SWIDTH 360 0
DWIDTH 5 0
BBX 3 2 1 2
BITMAP
60
80
ENDCHAR
STARTCHAR 00A0
ENCODING 160
SWIDTH 288 0
DWIDTH 4 0
BBX 0 0 0 0
BITMAP
ENDCHAR
ENDFONT
